<?xml version="1.0" encoding="UTF-8"?>
<svg id="_レイヤー_1" data-name="レイヤー 1" xmlns="http://www.w3.org/2000/svg" viewBox="0 0 1200 788.26">
  <defs>
    <style>
      .cls-1 {
        fill: none;
        stroke: #231815;
        stroke-miterlimit: 10;
      }
    </style>
  </defs>
  <path class="cls-1" d="m577.2,73.16s-61.84-15.98-66.89,45.67c-5.05,61.66,138.2,64.85,137.06,63.71s-176.36-4.34-172.93,26.49c3.43,30.83,11.42,89.06,61.66,58.23,0,0-24.58,67.67,72.47,47.12,97.05-20.55,58.84-107.64,58.84-107.64,0,0,110.13,38.59,135.25,38.59s46.81-25.12,50.24-21.69c3.43,3.43-1.14,42.25,22.84,39.96,23.98-2.28,28.53,38.63,50.23,39.77,21.69,1.14-140.89,95.36-140.89,95.36,0,0-63.94-22.06-75.36-18.64-11.42,3.43-64.37,38.25-98.62,24.55-34.25-13.7-121.03-37.66-145.01,1.15-23.98,38.81-94.77-98.18-179.26,0,0,0-101.62-83.36-147.29-6.86-45.67,76.5,0,110.75,0,110.75,0,0-133.59-18.27-139.3,63.94-5.71,82.21,94.77,81.07,117.6,76.5,0,0-83.35,14.84-30.83,43.39,52.52,28.54,124.45-33.11,124.45-33.11,0,0-14.84,123.31,110.75,102.76,125.6-20.55,111.89-117.6,111.89-117.6,0,0,25.12,98.19,105.04,86.78,79.92-11.42,87.92-79.92,87.92-132.45,0,0,36.54,138.16,109.61,92.48,73.07-45.67,42.25-130.16,46.81-151.86,0,0,79.92,61.66,97.05,6.85,17.13-54.81-54.81-110.75-54.81-110.75,0,0,376.53-14.31,374.25-125.06-2.28-110.75-123.31-121.03-123.31-121.03,0,0,54.81-111.89-46.81-110.75,0,0-73.68-77.91-160.45-11.68,0,0-236.27-119.39-292.21,5.06Z"/>
</svg>