<?xml version="1.0" encoding="UTF-8"?>
<svg id="_レイヤー_1" data-name="レイヤー 1" xmlns="http://www.w3.org/2000/svg" viewBox="0 0 1200 367.01">
  <defs>
    <style>
      .cls-1 {
        fill: none;
        stroke: #231815;
        stroke-miterlimit: 10;
      }
    </style>
  </defs>
  <path class="cls-1" d="m916.85,74.48c-89.11-47.36-180.66,0-183.48,53.63-2.82,53.63-141.14-87.51-201.83-62.1-60.69,25.4-118.56,134.08-213.12,107.27-94.56-26.82-119.97-125.61-170.78-95.97C96.84,106.95-7.6,135.17-3.37,185.98c4.23,50.81,97.39-4.23,213.12,31.05,115.73,35.28,220-26.82,336.53-8.47,116.53,18.35,398.8,199.01,390.33,66.34-8.47-132.67,257.22-132.67,259.87-183.48,2.65-50.81-190.52,30.42-279.63-16.94Z"/>
</svg>