<?xml version="1.0" encoding="UTF-8"?>
<svg id="_レイヤー_1" data-name="レイヤー 1" xmlns="http://www.w3.org/2000/svg" viewBox="0 0 1024 672.65">
  <defs>
    <style>
      .cls-1 {
        fill: none;
        stroke: #231815;
        stroke-miterlimit: 10;
      }
    </style>
  </defs>
  <path class="cls-1" d="m493.01,68.55s-51.49-13.31-55.69,38.03c-4.2,51.34,115.07,54,114.12,53.05s-146.84-3.61-143.98,22.05c2.85,25.67,9.51,74.15,51.34,48.48,0,0-20.47,56.35,60.34,39.23,80.81-17.11,48.99-89.62,48.99-89.62,0,0,91.7,32.13,112.61,32.13s38.98-20.91,41.83-18.06c2.85,2.85-.95,35.17,19.01,33.27,19.96-1.9,23.76,32.16,41.82,33.11,18.06.95-117.3,79.4-117.3,79.4,0,0-53.24-18.37-62.74-15.52-9.51,2.85-53.59,31.85-82.11,20.44-28.52-11.41-100.77-31.36-120.73.96-19.96,32.31-78.9-81.75-149.25,0,0,0-84.61-69.41-122.64-5.71-38.03,63.69,0,92.21,0,92.21,0,0-111.23-15.21-115.98,53.24-4.75,68.45,78.9,67.5,97.92,63.69,0,0-69.4,12.36-25.67,36.13,43.73,23.77,103.62-27.57,103.62-27.57,0,0-12.36,102.67,92.21,85.56,104.57-17.11,93.16-97.92,93.16-97.92,0,0,20.91,81.76,87.46,72.25,66.55-9.51,73.2-66.55,73.2-110.28,0,0,30.42,115.03,91.26,77,60.84-38.03,35.17-108.38,38.98-126.44,0,0,66.55,51.34,80.81,5.7,14.26-45.63-45.63-92.21-45.63-92.21,0,0,313.5-11.91,311.6-104.12-1.9-92.21-102.67-100.77-102.67-100.77,0,0,45.63-93.16-38.98-92.21,0,0-61.34-64.87-133.6-9.73,0,0-196.72-99.41-243.3,4.21Z"/>
</svg>