<?xml version="1.0" encoding="UTF-8"?>
<svg id="_レイヤー_1" data-name="レイヤー 1" xmlns="http://www.w3.org/2000/svg" viewBox="0 0 1024 313.18">
  <defs>
    <style>
      .cls-1 {
        fill: none;
        stroke: #231815;
        stroke-miterlimit: 10;
      }
    </style>
  </defs>
  <path class="cls-1" d="m781.87,64.38c-76.04-40.41-154.16,0-156.57,45.77-2.41,45.77-120.44-74.67-172.23-52.99-51.79,21.68-101.17,114.42-181.86,91.53-80.69-22.88-102.37-107.19-145.73-81.9C82.12,92.08-7,116.17-3.39,159.53c3.61,43.36,83.1-3.61,181.86,26.5,98.76,30.11,187.73-22.88,287.17-7.23,99.44,15.66,340.31,169.82,333.09,56.61-7.23-113.21,219.49-113.21,221.75-156.57,2.26-43.36-162.58,25.96-238.61-14.45Z"/>
</svg>