<?xml version="1.0" encoding="UTF-8"?>
<svg id="_レイヤー_2" data-name="レイヤー 2" xmlns="http://www.w3.org/2000/svg" viewBox="0 0 894.46 600.5">
  <defs>
    <style>
      .cls-1 {
        fill: none;
        stroke: #231815;
        stroke-miterlimit: 10;
      }
    </style>
  </defs>
  <path class="cls-1" d="m430.99,85s-44.05-11.39-47.64,32.53c-3.59,43.92,98.44,46.19,97.62,45.38s-125.61-3.09-123.17,18.87c2.44,21.96,8.13,63.43,43.92,41.48,0,0-17.51,48.2,51.62,33.56,69.13-14.64,41.91-76.67,41.91-76.67,0,0,78.44,27.49,96.34,27.49s33.34-17.89,35.78-15.45c2.44,2.44-.81,30.09,16.27,28.46,17.08-1.63,20.32,27.51,35.78,28.33,15.45.81-100.35,67.92-100.35,67.92,0,0-45.54-15.71-53.68-13.27-8.13,2.44-45.85,27.24-70.24,17.49-24.4-9.76-86.21-26.82-103.28.82-17.08,27.64-67.5-69.93-127.68,0,0,0-72.38-59.37-104.91-4.89-32.53,54.49,0,78.89,0,78.89,0,0-95.15-13.01-99.22,45.54-4.07,58.55,67.5,57.74,83.77,54.49,0,0-59.37,10.57-21.96,30.9,37.41,20.33,88.65-23.58,88.65-23.58,0,0-10.57,87.83,78.89,73.19,89.46-14.64,79.7-83.77,79.7-83.77,0,0,17.89,69.94,74.82,61.81,56.93-8.13,62.62-56.93,62.62-94.34,0,0,26.02,98.4,78.07,65.87,52.05-32.53,30.09-92.71,33.34-108.16,0,0,56.93,43.92,69.13,4.88,12.2-39.04-39.04-78.89-39.04-78.89,0,0,268.19-10.19,266.57-89.08-1.63-78.89-87.83-86.21-87.83-86.21,0,0,39.04-79.7-33.34-78.89,0,0-52.48-55.49-114.29-8.32,0,0-168.29-85.04-208.14,3.6Z"/>
</svg>