<?xml version="1.0" encoding="UTF-8"?>
<svg id="_レイヤー_1" data-name="レイヤー 1" xmlns="http://www.w3.org/2000/svg" viewBox="0 0 768 234.88">
  <defs>
    <style>
      .cls-1 {
        fill: none;
        stroke: #231815;
        stroke-miterlimit: 10;
      }
    </style>
  </defs>
  <path class="cls-1" d="m569.02,55.6c-52.44-27.87-106.31,0-107.97,31.56s-83.05-51.49-118.77-36.54c-35.71,14.95-69.76,78.9-125.41,63.12-55.65-15.78-70.6-73.92-100.49-56.48-29.9,17.44-91.36,34.05-88.87,63.95,2.49,29.9,57.31-2.49,125.41,18.27,68.1,20.76,129.46-15.78,198.03-4.98,68.57,10.8,234.68,117.11,229.69,39.04-4.98-78.07,151.36-78.07,152.92-107.97,1.56-29.9-112.11,17.9-164.55-9.97Z"/>
</svg>