<?xml version="1.0" encoding="UTF-8"?>
<svg id="_レイヤー_1" data-name="レイヤー 1" xmlns="http://www.w3.org/2000/svg" viewBox="0 0 1500 985.33">
  <defs>
    <style>
      .cls-1 {
        fill: none;
        stroke: #231815;
        stroke-miterlimit: 10;
      }
    </style>
  </defs>
  <path class="cls-1" d="m721.5,92.23s-77.3-19.98-83.61,57.09c-6.31,77.07,172.75,81.07,171.32,79.64s-220.45-5.42-216.16,33.11c4.28,38.54,14.27,111.32,77.07,72.79,0,0-30.73,84.59,90.59,58.9,121.31-25.69,73.55-134.55,73.55-134.55,0,0,137.67,48.24,169.07,48.24s58.52-31.4,62.8-27.12c4.28,4.28-1.43,52.81,28.54,49.95,29.97-2.85,35.67,48.28,62.78,49.71,27.12,1.43-176.11,119.2-176.11,119.2,0,0-79.92-27.58-94.2-23.3-14.27,4.28-80.46,47.81-123.27,30.69-42.82-17.13-151.29-47.07-181.26,1.44-29.97,48.51-118.46-122.73-224.07,0,0,0-127.02-104.2-184.11-8.58-57.09,95.62,0,138.44,0,138.44,0,0-166.99-22.84-174.12,79.92-7.14,102.76,118.46,101.33,147,95.62,0,0-104.19,18.55-38.54,54.23,65.65,35.68,155.57-41.39,155.57-41.39,0,0-18.55,154.14,138.44,128.45,156.99-25.69,139.87-147,139.87-147,0,0,31.4,122.74,131.3,108.47,99.91-14.27,109.9-99.91,109.9-165.56,0,0,45.67,172.69,137.01,115.61,91.34-57.09,52.81-162.7,58.52-189.82,0,0,99.91,77.07,121.31,8.56,21.41-68.51-68.51-138.44-68.51-138.44,0,0,470.66-17.88,467.81-156.32-2.85-138.44-154.14-151.29-154.14-151.29,0,0,68.51-139.87-58.52-138.44,0,0-92.1-97.38-200.57-14.6,0,0-295.33-149.24-365.27,6.32Z"/>
</svg>