<?xml version="1.0" encoding="UTF-8"?>
<svg id="_レイヤー_1" data-name="レイヤー 1" xmlns="http://www.w3.org/2000/svg" viewBox="0 0 1500 458.76">
  <defs>
    <style>
      .cls-1 {
        fill: none;
        stroke: #231815;
        stroke-miterlimit: 10;
      }
    </style>
  </defs>
  <path class="cls-1" d="m1146.94,91.7c-111.38-59.19-225.82,0-229.35,67.04-3.53,67.04-176.42-109.38-252.28-77.63-75.86,31.76-148.2,167.6-266.4,134.08-118.2-33.52-149.96-157.02-213.47-119.97C121.92,132.28-8.63,167.56-3.34,231.08c5.29,63.51,121.73-5.29,266.4,38.81,144.67,44.11,275-33.52,420.66-10.59,145.66,22.93,498.5,248.76,487.92,82.92-10.59-165.84,321.52-165.84,324.83-229.35,3.31-63.51-238.15,38.02-349.53-21.17Z"/>
</svg>