<?xml version="1.0" encoding="UTF-8"?>
<svg id="_レイヤー_1" data-name="レイヤー 1" xmlns="http://www.w3.org/2000/svg" viewBox="0 0 480 297.62">
  <defs>
    <style>
      .cls-1 {
        fill: none;
      }
    </style>
  </defs>
  <path class="cls-1" d="m230.17,30.54s-23.86-6.17-25.8,17.62c-1.95,23.79,53.31,25.02,52.87,24.58s-68.03-1.67-66.71,10.22c1.32,11.89,4.4,34.36,23.79,22.46,0,0-9.48,26.11,27.96,18.18,37.44-7.93,22.7-41.52,22.7-41.52,0,0,42.49,14.89,52.18,14.89s18.06-9.69,19.38-8.37-.44,16.3,8.81,15.42,11.01,14.9,19.38,15.34c8.37.44-54.35,36.79-54.35,36.79,0,0-24.67-8.51-29.07-7.19-4.4,1.32-24.83,14.76-38.05,9.47-13.21-5.29-46.69-14.53-55.94.44-9.25,14.97-36.56-37.88-69.15,0,0,0-39.2-32.16-56.82-2.65-17.62,29.51,0,42.73,0,42.73,0,0-51.54-7.05-53.74,24.67-2.2,31.71,36.56,31.27,45.37,29.51,0,0-32.15,5.73-11.89,16.74,20.26,11.01,48.01-12.77,48.01-12.77,0,0-5.73,47.57,42.73,39.64,48.45-7.93,43.17-45.37,43.17-45.37,0,0,9.69,37.88,40.52,33.48,30.83-4.4,33.92-30.83,33.92-51.1,0,0,14.1,53.3,42.29,35.68,28.19-17.62,16.3-50.21,18.06-58.58,0,0,30.83,23.79,37.44,2.64,6.61-21.14-21.14-42.73-21.14-42.73,0,0,145.26-5.52,144.38-48.24s-47.57-46.69-47.57-46.69c0,0,21.14-43.17-18.06-42.73,0,0-28.42-30.05-61.9-4.51,0,0-91.15-46.06-112.73,1.95Z"/>
</svg>