<?xml version="1.0" encoding="UTF-8"?>
<svg xmlns="http://www.w3.org/2000/svg" viewBox="0 0 543.22 250.99">
  <defs>
    <style>
      .cls-1 {
        fill: none;
        stroke: #000;
        stroke-linecap: round;
        stroke-miterlimit: 10;
        stroke-width: 10px;
      }
    </style>
  </defs>
  <path class="cls-1" d="m12.54,96.78C38.52,69.11,70.73,15.08,80.2,14.76c1.85-.06,4.28.39,5.32,2.34,9.94,18.58,14.28,116.09,63.28,209.5"/>
  <line class="cls-1" x1="61.57" y1="63.02" x2="41.17" y2="175.79"/>
  <path class="cls-1" d="m54.8,119.49s21.83-10.98,47.88-5.69"/>
  <path class="cls-1" d="m147.37,111.23l9.36,50.89c.06.2.38.14.34-.06-3.01-13.36-5.43-56.69,35.38-67.2"/>
  <line class="cls-1" x1="225.19" y1="106.89" x2="256.4" y2="99.5"/>
  <path class="cls-1" d="m287.48,178.88c-49.77,30.81-48.58-107.39-48.98-140.27"/>
  <path class="cls-1" d="m310.05,108.55s-.78,30.82,8.74,57.13"/>
  <path class="cls-1" d="m378,92.29s-13.52-7.38-21.07,16.26c-5.01,15.69,26.26,3.46,46.51,30.3,16.46,21.81,18.03,44.57-.33,53.98-15.34,7.87-23.4-3.23-24.81-10.37"/>
  <line class="cls-1" x1="428.01" y1="108.55" x2="481.65" y2="105.23"/>
  <path class="cls-1" d="m453.62,44.03c13.45,97.29-2.78,214.43,72.54,183.88"/>
  <line class="cls-1" x1="315.36" y1="67.86" x2="315.36" y2="69.86"/>
</svg>