<?xml version="1.0" encoding="UTF-8"?>
<svg xmlns="http://www.w3.org/2000/svg" viewBox="0 0 981.73 434.63">
  <defs>
    <style>
        .cls-1 {
          fill: none;
          stroke: #000;
          stroke-linecap: round;
          stroke-miterlimit: 10;
          stroke-width: 10px;
        }
      </style>
  </defs>
  <path class="cls-1" d="m140.81,31.23c-2.3,33.17,9.13,146.88,14.36,170.23"/>
  <path class="cls-1" d="m91.93,21.35c41.89,12.57,174.47,73.4,155.85,136.29-20.81,70.3-187.32,14.26-221.31-12.67"/>
  <path class="cls-1" d="m277.24,136.86s26.05-9.37,33.84-26.53-4.79-13.41-9.19-9.81c-16.43,13.44-20.65,65.72,12.21,87.6,14.22,9.47,23.88-4.26,23.88-4.26"/>
  <path class="cls-1" d="m401.1,90.78s-21.05,14.65-19.18,22.07c1.07,4.22-3.4,6.46,15.08,10.53,27,5.95,48.49,44.37,41.02,55.67-15.69,23.74-39.15-2.89-45.58-7.64"/>
  <path class="cls-1" d="m489.03,143.7s2.39,34.58,8.16,44.51"/>
  <path class="cls-1" d="m589.09,142.25s-10.45-12.85-21.55-10.82-23.64,11.72-21.6,33.57,5.74,29.78,11.56,29.78,26.87-16.02,31.34-57.5c.05-.5.75-.57.9-.09,8.38,27.52,91.6,305.35-22.91,270.62"/>
  <path class="cls-1" d="m653.8,155.37l2.88,40.01c.03.26.45.29.45.03-.5-28.62,18.25-77.12,31.78-74.79,17.23,2.97,9.34,65.45,43.96,72.44s36.63-1.52,50.58-16.8c16.92-18.54,14.43-53.22-2.81-53.22-21.96,0-35.5,59.55,15.37,75.1,20.32,6.21,35.65-2.1,39.29-5.34"/>
  <path class="cls-1" d="m878.61,136.77l13.12,64.24c.23.54,1.05.3.95-.28-3.1-16.78-13.32-76.68,60.34-67.91"/>
  <line class="cls-1" x1="483.37" y1="82.69" x2="483.37" y2="84.74"/>
</svg>