<svg id="レイヤー_1" data-name="レイヤー 1" xmlns="http://www.w3.org/2000/svg" viewBox="0 0 352.82 352.82"><defs><style>.cls-1{fill:#020202;}</style></defs><path class="cls-1" d="M345.81,454.2h-4c-.37-1.42-1.55-1-2.44-1a170.31,170.31,0,0,1-26.73-2.88c-70.47-12.15-128.71-70.8-141-141.81-.77-4.42-.21-9.19-2.78-13.25v-35c2.41-4.48,2-9.55,2.81-14.33,11.88-70.61,70.84-129.58,141.78-141.77,5.11-.88,10.47-.56,15.33-2.82h31c5.25,2,10.88,1.88,16.32,2.8C451.81,117,512.93,182.8,520,258.92c.53,5.78-.37,11.74,1.73,17.37v3c-1.41.37-1,1.55-1,2.44-.55,27.58-7,53.76-20.37,77.82-30,54-75.7,85.11-137.16,92.91C357.41,453.18,351.45,452.07,345.81,454.2ZM343.7,428a160.46,160.46,0,0,0,56.13-10.46c3.23-1.27,3.66-2.63,3.07-5.77a651.56,651.56,0,0,0-30.1-106.7c-1-2.75-2.11-2.81-4.62-1.91a236.12,236.12,0,0,0-56.46,29.09c-23.05,16.26-43.19,35.33-57.21,60.25-1.7,3-1.21,4.29,1.45,6.23A150.45,150.45,0,0,0,343.7,428ZM233.09,377.75c31.24-48.45,73.06-82.9,128.21-100.94-3.52-7.28-7.13-14.38-10.35-21.65-1.32-3-2.85-3.3-5.73-2.47C297.46,266.43,248.62,272.54,199,273c-3.46,0-4.38.8-4.4,4.34a147.69,147.69,0,0,0,15.77,67.28A136.7,136.7,0,0,0,233.09,377.75ZM213.36,246.8a593.5,593.5,0,0,0,119.18-17.18c4.24-1.07,3.55-2.35,1.94-5.15q-23.66-41-51-79.65c-2-2.88-3.59-2.88-6.4-1.4A154.28,154.28,0,0,0,233.42,177a149.77,149.77,0,0,0-34.84,66.24c-.74,3.1-.14,3.79,2.83,3.65C205.39,246.66,209.38,246.8,213.36,246.8Zm96.39-115.3a822.41,822.41,0,0,1,52,80.61c4.12,7.3,4.12,7.43,11.85,4.18,26.07-11,49.48-25.73,68.16-47.37,2.34-2.71,2.58-4.18-.44-6.65a152,152,0,0,0-49.85-27.57A149.09,149.09,0,0,0,309.75,131.5Zm185,134.56a136.48,136.48,0,0,0-4.11-25.13,151.61,151.61,0,0,0-26.78-55.17c-2.05-2.69-3.18-2.87-5.25,0a74.25,74.25,0,0,1-7.65,8.52c-20.17,20.09-43.88,34.85-70,45.94-3.06,1.29-3.51,2.38-2.11,5.31q5.38,11.19,10.15,22.68c1.12,2.69,2.53,3.25,5.26,2.92,31.31-3.74,62.41-1.4,93.37,3.69C495.2,276,495.16,276.21,494.77,266.06ZM429,402.08a142,142,0,0,0,23.11-19.25,150,150,0,0,0,40.53-77c.61-3,.37-4.72-3.21-5.65a228.09,228.09,0,0,0-86-5.8c-2.7.34-3.66,1-2.58,4A653.86,653.86,0,0,1,429,402.08Z" transform="translate(-168.9 -101.37)"/></svg>