<svg id="レイヤー_1" data-name="レイヤー 1" xmlns="http://www.w3.org/2000/svg" viewBox="0 0 347.85 278.86"><path d="M594.93,189.33V408.22c-1.55.32-1.28,1.8-1.6,2.76-5.19,15.61-16,24-32.32,25.43-1.16-.07-2.32-.19-3.48-.19H283c-1,0-2,.1-3,.15-15.62-1.45-26-9.58-31.36-24.33-.34-1,0-2.46-1.58-2.81V186.33c1.64-.79,1.33-2.57,1.75-3.86a35.19,35.19,0,0,1,14.28-18.56c4-2.71,8.58-3.86,13-5.57H564.94c9.09,2.29,16.95,6.46,22.8,14.09C591.63,177.48,593,183.52,594.93,189.33Zm-313,3.8c0,10.92.11,20.91-.06,30.9a6,6,0,0,0,3.27,5.92q66.24,41.25,132.32,82.76c2.73,1.71,4.51,1.5,7.06-.16,8.49-5.54,17.17-10.8,25.76-16.17Q503.33,263.21,556.37,230c1.39-.88,3.57-1.19,3.56-3.67,0-10.87,0-21.74,0-33.2-2,1.2-3.22,2-4.47,2.73q-65.33,40.83-130.6,81.75c-3,1.85-4.94,1.93-7.91.05-25.85-16.34-51.81-32.5-77.74-48.72Z" transform="translate(-247.08 -158.34)"/><path class="cls-1" d="M280.07,437.21a6,6,0,0,0-.05-.85c1-.05,2-.15,3-.15H557.53c1.16,0,2.32.12,3.48.19a2.15,2.15,0,0,1-.06.8Z" transform="translate(-247.08 -158.34)"/></svg>