<?xml version="1.0" encoding="UTF-8"?>
<svg xmlns="http://www.w3.org/2000/svg" viewBox="0 0 868.43 448.14">
  <defs>
    <style>
      .cls-1 {
        fill: none;
        stroke: #000;
        stroke-linecap: round;
        stroke-miterlimit: 10;
        stroke-width: 10px;
      }
    </style>
  </defs>
  <line class="cls-1" x1="32.49" y1="67.04" x2="32.14" y2="247.95"/>
  <path class="cls-1" d="m115.96,13.91s-45.23,35.62-57.25,39.01"/>
  <path class="cls-1" d="m122.98,86.54s-67.71,50.23-85.74,51.64"/>
  <path class="cls-1" d="m163.98,152.17c-15.71,16.77-92.99,70.39-123.53,81.04"/>
  <path class="cls-1" d="m181.86,147.48c3.62,32.39.14,76.39,6.08,79.46,4.7,2.43-.12-98.98,20.58-105.89,32.11-10.72,29.54,63.12,52.33,135.89"/>
  <path class="cls-1" d="m325.58,127.35s-11.16-11.25-15.58-8.38c-14.19,9.22-40.46,75.86-12.73,102.31,4.22,4.02,14.34,3.64,20.53-4.47,18.41-24.12,12.85-95.93,12.7-91.3s64.08,316.81-17.73,311.74"/>
  <line class="cls-1" x1="388.62" y1="157.5" x2="394.1" y2="220.54"/>
  <path class="cls-1" d="m448.01,169.46l-.62,67.1c0,.12.19.13.19,0,.69-13.9,5.57-89.99,33.3-98.26,26.08-7.78-3.28,93.6,41.38,98.97,50.12,6.02,94.08-95.85,58.81-116.34-21.86-12.7-50.52,128.12,12.57,126.33,51.47-1.45,83.49-75.79,59.48-111.7-4.55-6.8-11.76-3.78-14.18-1.83-21.27,17.15-23.41,111.68,27.41,111.79,48.68.1,62.01-74.84,65.21-97.62.14-.96,1.53-.94,1.64.03l9.35,97.02c.11,1,1.56,1.03,1.69.03,3.08-23.01,13.37-96.11,105.32-96.33"/>
  <line class="cls-1" x1="388.62" y1="101.27" x2="388.62" y2="104.46"/>
</svg>