<svg class = "icon" data-name="レイヤー 1" xmlns="http://www.w3.org/2000/svg" viewBox="0 0 343.82 335.82"><path class="cls-1" d="M400,129.37h35c.21.79.81.87,1.5.94a152,152,0,0,1,28.89,5.15c68.2,20.15,110.74,64.13,124.92,134.5,1,5.09.44,10.45,2.61,15.33v31c-2.47,4.61-2,9.83-2.91,14.74-8.29,43.33-29.14,79.1-63.82,106.56C510.5,450,492.86,458.81,474,465.19h-2c-6.88-3-7.77-8.72-7.6-15.45.4-16.81.44-33.63.45-50.45,0-12.06-2.19-23.49-10.69-32.83-.12-.13.12-.6.18-.84,7.59-1.14,15.2-2,22.71-3.44,31.63-5.91,48.05-21.13,53.56-50.39,4.26-22.56,3.46-44.23-14.42-61.75-1.47-1.44-1.09-2.76-.56-4.49,3.19-10.41,3.19-21,1.12-31.6-2.85-14.54-5.52-15.9-19.78-11-10.29,3.54-19.59,9-28.69,14.79a8.28,8.28,0,0,1-7,1.28,165.86,165.86,0,0,0-79.53,0,8.18,8.18,0,0,1-7-1.16c-5.44-3.51-11.05-6.79-16.78-9.78-6.93-3.61-14.13-6.64-22-7.45-3.68-.38-6,.48-7.33,4.64-4.16,13.21-5.06,26.44-1.25,39.78a5.63,5.63,0,0,1-1.43,6.15c-6,6.63-10.61,14.05-12.4,22.95-2.76,13.61-1.75,27.2,1,40.65,3.49,17.25,11.82,31.29,28,39.67a82.75,82.75,0,0,0,23.55,7.78c7.58,1.36,15.21,2.36,23.36,3.6a41,41,0,0,0-10.33,21.32,2.9,2.9,0,0,1-2,2.5c-15.24,6.39-33.25,6-44.62-9.12-2.8-3.72-5.25-7.72-8.22-11.28A34,34,0,0,0,302.62,357c-3-.44-7.12-1.28-8.46,2.09-1.25,3.15,2.24,5.57,4.65,6.92,11,6.22,16.57,16.57,21.08,27.56,3.9,9.49,10.69,15.48,20.19,18.53,10.81,3.47,21.9,3.82,33,2.07,3.78-.6,5.44-.32,5.28,4.35-.37,11.15,0,22.31,0,33.47,0,9.2-.47,10-8.38,13.19h-2c-.21-.76-.86-.82-1.49-1.05C304.85,442,267.65,398.35,252.79,335c-1.45-6.2-1.1-12.73-3.71-18.68v-38c2-1.54,1.31-3.92,1.62-5.88,12-74.62,64.21-127.67,138.51-140.63C392.83,131.14,396.73,131.64,400,129.37Z" transform="translate(-249.08 -129.37)"/><path class="cls-1" d="M349.83,397.63c-.4,1.87-1.8,2.19-3.37,2-1.85-.22-3.91-.71-3.83-3,.05-1.61,1.68-2.33,3.32-2.23A4,4,0,0,1,349.83,397.63Z" transform="translate(-249.08 -129.37)"/><path class="cls-1" d="M364,399.15c-.34,2.15-2.09,2.4-3.69,2.44-1.42,0-3.2-.06-3.42-2-.25-2.35,1.67-2.59,3.29-2.69S363.46,397.09,364,399.15Z" transform="translate(-249.08 -129.37)"/><path class="cls-1" d="M373.41,395.06c1.85.23,3.73.26,3.56,2.29s-2,2.78-4,2.87c-1.45.06-2.83-.27-2.87-2C370,395.88,371.94,395.46,373.41,395.06Z" transform="translate(-249.08 -129.37)"/><path class="cls-1" d="M333.61,386.91a4.41,4.41,0,0,1,3.48,4.12c.09,1.35-.77,2.39-2.13,2-1.89-.54-3.82-1.37-4-3.81C330.86,387.49,332,387,333.61,386.91Z" transform="translate(-249.08 -129.37)"/><path class="cls-1" d="M326.27,383.22a4.1,4.1,0,0,1-3.35-3.68c-.15-1.26.12-2.45,1.7-2.39,2.18.09,3.1,1.65,3.42,3.56A1.94,1.94,0,0,1,326.27,383.22Z" transform="translate(-249.08 -129.37)"/><path class="cls-1" d="M319.35,373.19c-1.68-.7-3.26-1.32-3.3-3.37,0-1.27.79-1.79,1.94-1.63a3.48,3.48,0,0,1,2.94,3C321.21,372.36,320.29,372.86,319.35,373.19Z" transform="translate(-249.08 -129.37)"/><path class="cls-1" d="M311.7,365.84c-1.05-.45-2.64-.45-2.65-2.22,0-1,.78-1.31,1.69-1.35,1.53-.07,2.61.6,2.71,2.14C313.5,365.23,312.78,365.85,311.7,365.84Z" transform="translate(-249.08 -129.37)"/></svg>