<svg class = "icon" data-name="レイヤー 1" xmlns="http://www.w3.org/2000/svg" viewBox="0 0 351.07 351.12"><path class="cls-1" d="M245.08,361.27V232.32c2-5.8,1.31-11.91,1.92-17.87,2.27-22,8.63-42.25,23.54-59.17,17.95-20.37,41.21-29.42,67.62-32,6.29-.62,12.73.14,18.86-1.92H483c.57,1.61,2,.94,3,1a183.59,183.59,0,0,1,25.34,2.07c22.33,3.36,41.9,12.16,57.59,28.91,18.46,19.72,24.69,43.87,26,69.89,1.77,34.26,1.19,68.56,1.1,102.84-.06,21.1.18,42.27-3.12,63.22-4.44,28.21-17.9,50.82-42.23,66.37-17.35,11.08-36.87,14.58-57,15.6-32.09,1.62-64.21,1.29-96.31,1.12-22.94-.13-45.95.43-68.71-3.15-31.51-4.94-55.69-20.74-70.66-49.38-8.83-16.9-11-35.37-11.92-54.07C246,364.24,247,362.4,245.08,361.27Zm319.68-64.4c-.17-22.8.55-45.62-1-68.4-.39-5.63-1.13-11.25-1.83-16.85-3.87-30.81-22.62-50.27-53.21-55.44-17-2.87-34.1-3.19-51.23-3.29-13-.07-26,.42-38.94.24-27.12-.36-54.22-.86-81.25,2.2-31.94,3.6-52.23,22.59-57.39,54.19-3.28,20.12-3.2,40.43-3.27,60.73,0,12.81.43,25.63.24,38.45-.39,25.8-.75,51.57,3.22,77.19,4.07,26.19,21.14,44.77,47,50.68,17,3.87,34.32,4.1,51.6,4.42,15.14.28,30.3-.4,45.44-.18,27.29.4,54.57.9,81.73-2.6,13.29-1.72,25.4-6.12,35.69-15.1,14.87-13,19.63-30.19,21.44-48.88C565.46,348.48,564.51,322.67,564.76,296.87Z" transform="translate(-245.08 -121.36)"/><path class="cls-1" d="M330.87,296.78c0-49.82,39.43-89.41,89.59-89.95,49.26-.53,90.26,40.33,90.32,90S470.34,387,420.66,387.1,330.87,346.88,330.87,296.78Zm148.25.23A58.68,58.68,0,0,0,421,238.34c-32-.17-58.7,26.23-58.76,58.18a58.47,58.47,0,1,0,116.93.49Z" transform="translate(-245.08 -121.36)"/><path class="cls-1" d="M514.83,182.33a21,21,0,0,1,20.57,21.24,21.21,21.21,0,0,1-21.28,20.65,20.9,20.9,0,0,1-20.68-21.12C493.47,191.28,502.82,182.21,514.83,182.33Z" transform="translate(-245.08 -121.36)"/></svg>