<svg id="レイヤー_1" data-name="レイヤー 1" xmlns="http://www.w3.org/2000/svg" viewBox="0 0 320.09 320.09"><path class="cls-1" d="M437,272.42c0-8.29-.16-16.58.07-24.87.09-3.11-.81-3.85-3.86-3.83q-28,.22-56,0c-3.4,0-4.12,1.05-4.12,4.25q.13,102.68,0,205.36c0,3.4,1,4.1,4.21,4.08,19.32-.14,38.64-.19,58,0,3.81,0,4.65-1,4.63-4.7-.15-35-.07-70-.11-104.93A112.4,112.4,0,0,1,441,330.9c3.39-22.36,15.8-33.54,37.73-33.94,17.36-.31,27.84,7.61,32.31,24.3A77.58,77.58,0,0,1,513.71,341q.24,55.71.1,111.42c0,4.29,1.18,5.09,5.21,5q28-.35,56,0c4.07.05,5.21-.83,5.19-5.08-.19-39.14-.13-78.28-.1-117.42a189.33,189.33,0,0,0-3.19-36.74c-4-20.19-11.66-38.36-30.47-49.22S507,236.36,486,239.82,448.82,254.29,437,272.42Zm-105.1,77.81c0-33.81-.06-67.63.07-101.44,0-3.67-.58-5.16-4.77-5.11q-28.74.38-57.47,0c-3.93-.05-4.56,1.25-4.55,4.82q.15,102.2,0,204.38c0,4,1.28,4.56,4.8,4.53,19.16-.17,38.31-.21,57.47,0,3.91.05,4.57-1.19,4.56-4.77C331.82,418.52,331.88,384.38,331.88,350.23Z" transform="translate(-260.08 -137.35)"/><path class="cls-2" d="M304.05,137.35c6.42,1.93,12.76,3.88,18.17,8.19A38.51,38.51,0,1,1,262,187.67c-.48-1.47-.17-3.37-1.87-4.34v-16c1.5-.31,1.38-1.73,1.7-2.72,4.35-13.48,13.49-22,26.92-26,.84-.25,2.1.17,2.36-1.24Z" transform="translate(-260.08 -137.35)"/><path class="cls-3" d="M437,272.42c11.84-18.13,28.15-29.15,49-32.6s41.57-1.7,60.39,9.16,26.49,29,30.47,49.22a189.33,189.33,0,0,1,3.19,36.74c0,39.14-.09,78.28.1,117.42,0,4.25-1.12,5.13-5.19,5.08q-28-.36-56,0c-4,.05-5.22-.75-5.21-5q.23-55.71-.1-111.42a77.58,77.58,0,0,0-2.63-19.72c-4.47-16.69-14.95-24.61-32.31-24.3-21.93.4-34.34,11.58-37.73,33.94a112.4,112.4,0,0,0-1.25,16.9c0,35,0,70,.11,104.93,0,3.7-.82,4.74-4.63,4.7-19.32-.21-38.64-.16-58,0-3.18,0-4.22-.68-4.21-4.08q.15-102.69,0-205.36c0-3.2.72-4.28,4.12-4.25q28,.25,56,0c3.05,0,3.95.72,3.86,3.83C436.82,255.84,437,264.13,437,272.42Z" transform="translate(-260.08 -137.35)"/><path class="cls-2" d="M331.88,350.23c0,34.15-.06,68.29.08,102.44,0,3.58-.65,4.82-4.56,4.77-19.16-.23-38.31-.19-57.47,0-3.52,0-4.81-.54-4.8-4.53q.22-102.19,0-204.38c0-3.57.62-4.87,4.55-4.82q28.74.33,57.47,0c4.19-.05,4.78,1.44,4.77,5.11C331.82,282.6,331.88,316.42,331.88,350.23Z" transform="translate(-260.08 -137.35)"/></svg>