<?xml version="1.0" encoding="utf-8"?>
<!-- Generator: Adobe Illustrator 25.3.1, SVG Export Plug-In . SVG Version: 6.00 Build 0)  -->
<svg version="1.1" id="レイヤー_1" xmlns="http://www.w3.org/2000/svg" xmlns:xlink="http://www.w3.org/1999/xlink" x="0px"
	 y="0px" viewBox="0 0 343.8 335.8" style="enable-background:new 0 0 343.8 335.8;" xml:space="preserve">
<style type="text/css">
	.st0{fill-rule:evenodd;clip-rule:evenodd;}
</style>
<path class="st0" d="M42.3,88c0.4-4.2-1.2-8.3-4.3-11.1L6.2,38.7V33h98.6L181,200l67-167.1h93.9v5.7l-27.1,26
	c-2.3,1.8-3.5,4.7-3,7.6v191.2c-0.5,2.9,0.7,5.8,3,7.6l26.5,26v5.7H207.9v-5.7l27.5-26.7c2.7-2.7,2.7-3.5,2.7-7.6V108.3l-76.3,193.9
	h-10.3L62.6,108.3v129.9c-0.7,5.5,1.1,11,4.9,14.9l35.7,43.3v5.7H2v-5.7l35.7-43.3c3.8-4,5.5-9.5,4.6-14.9
	C42.3,238.3,42.3,88,42.3,88z"/>
</svg>
