<?xml version="1.0" encoding="UTF-8"?>
<svg xmlns="http://www.w3.org/2000/svg" viewBox="0 0 1371.06 258.86">
  <defs>
    <style>
      .cls-1 {
        fill: none;
        stroke: #000;
        stroke-linecap: round;
        stroke-miterlimit: 10;
        stroke-width: 10px;
      }
    </style>
  </defs>
  <path class="cls-1" d="m30.48,14.69c-1.24,18.2,10.66,178.76,18.06,182.04"/>
  <path class="cls-1" d="m42.98,13.82s63.75,27.31,61.95,57.71-29.3,43.65-53.52,50.68"/>
  <path class="cls-1" d="m113.72,183.24s64.11-110.58,31.87-153.25c-1.62-2.15-5.61-8.71-6.82-6.96-15.15,22.06-39.17,158.54,26.42,198.94"/>
  <path class="cls-1" d="m199.47,124.89s-10.48-13.29-12.46-12.36c-6.19,2.93-31.62,59.97-10.86,77.71,23.65,20.2,25.71-50.5,25.57-66.26-.36-9.01-3.6,77.11,28.73,74.18"/>
  <path class="cls-1" d="m273.48,117.02s-7.72-6.18-17.86,3.62c-12.43,12.01-10.58,87.41,34.08,89.08,48.08,1.8,63.57-82.93,53.59-107.9-6.53-16.33-50.36,47.79,14.96,92.68,11.11,4.61,24.26,4.18,30.94-2.61"/>
  <path class="cls-1" d="m396.38,90.85s-11.65-2.62-11.63,12.16c.01,8.02,58.29,67.19,58.29,91.6,0,19.1-9.14,31.32-20.57,30.56"/>
  <path class="cls-1" d="m520.01,39.32c5.08,20.21,13.93,121.01,16.89,160.93"/>
  <path class="cls-1" d="m599.83,11.73c-2.36,11.4-24.81,64.67-50.48,85.42"/>
  <path class="cls-1" d="m602.19,130.04c4.2,21.02,9.92,39.75,35.96,67.62,13.01,13.92-5.25-43.86,16.87-52.25,15.79-5.98,65.64-5.81,68.12-14.92s-6.85-16.91-18.28-9.37c-8.65,5.71-5.25,79.5,35.18,86.64,27.59,4.87,31.26-6.64,31.26-6.64"/>
  <path class="cls-1" d="m863.88,46.78l10.74,119.94s-23.63-131.74,20.43-147.87,4.42,85.15-6.66,82.88,33.74-59.8,79.31-38.56,47.29,85.25,11.23,118.8-53.63,30.61-67.22,30.38-68.39-15.68-75.37-50.6"/>
  <path class="cls-1" d="m1038.7,116.03s15.65,2.01,23.02-11.53,11.51-24.69,5.14-23.73-36.58,20.7-33.1,63.38,13.58,40.83,21.75,43.03,37.23-8.06,45.7-23.02,21.39-32.21,22.66-49.36-6.01-43.25-9.7-44.05-22.3,40.44-19.61,61.3,7.96,46.82,28.03,47.77,43.72-12.99,51.05-23.02,22.84-37.18,22.21-59.15-3.44-23.91-6.62-24.39c-2.97-.45-4.62,84.79,9.31,112.23,1.11,2.19,4.97,2.05,5.06-.41,1.44-39.44,21.66-89.43,24.65-92.52,2.74-2.83,5.75-4.81,10.21.29s48.16,141.14,96.57,151.32"/>
</svg>