<?xml version="1.0" encoding="utf-8"?>
<svg version="1.1" xmlns="http://www.w3.org/2000/svg" xmlns:xlink="http://www.w3.org/1999/xlink" x="0px" y="0px"
	 viewBox="0 0 530.5 294.9" style="0 0 530.5 294.9;" xml:space="preserve">
<path d="M56.5,283.8c-35.6-0.4-57.2-1.6-46.3-18.4s36.8-15.5,82.9-15.5s123.6,8.5,123.6-8.5s-34-3.6-49.6-3.6
	c-39,0-46.9-6.7-46.9-20.8s16.1-18.8,57.7-18.8s91.1,11.1,91.1-11c0-12.8-25.6-9.9-105-9.9c-73.8,0-77.2-14.3-77.2-29.4
	c0-28.2,116.4-20.3,166.3-20.3c2.5,0,249.2,10.6,249.2-15.1c0-19-80.2-15.9-111.5-15.9S290.4,85.6,290.4,51.8
	C290.4,9.6,424,9.7,424,9.7S307,9.9,307,51.1c0,31.9,61.7,42.7,82.8,43.6c35.7,1.6,118.7-7.3,118.7,15.8
	c0,28.6-168.1,18.1-248.9,18.1c-49.9,0-161.2-6.1-161.2,19.1c0,14,7.9,27.3,65.6,28c84.6,0,113-6.4,113,11.1c0,23-49.3,13.2-99,13.2
	c-12.7,0-49.6,0-49.6,19.4c0,14.1,12.9,16.9,39.4,16.9c14.3,0,51.2-11,51.2,4.6c0,17-68.3,9.5-114.5,9.5s-71.9-1.9-82.8,15
	C10.8,282.2,21.4,282.5,56.5,283.8L56.5,283.8z"/>
<path d="M108.5,286.1c-37.2,1.9-87.7,1.3-76.8-15.5s60.5-12.2,106.7-12.2c25.3,0,68.2-4.8,68.2-14
	c0-14.4-8.4-10.8-35.6-10.8c-31.9,0-37.3-4.1-37.3-15.1c0-20.9,46.2-14.8,91.6-14.8c41.6,0,55.7-1.3,55.7-17.7
	c0-19.3-18.8-14.6-61.6-14.6c-57.8,0-103.8,8.4-103.8-18.6S197.3,130,247.2,130s270.5,16.7,270.5-22c0-7.8-21.8-19.4-67.8-19.4
	c-51.7,0-80.9-17.1-80.9-42.9c0-24.1,40.3-31,40.3-31s-29.2,3.7-29.2,32c0,13.2,16.7,40.4,70,40.4c50.2,0,77.5,7.5,77.5,23.2
	c0,43.4-216.4,21.6-280,21.6c-49.9,0-120.5-7.4-120.5,20.6s45.6,16.6,92.2,16.6c40.8,0,73.1-3.7,73.1,16.6c0,24-39.3,18.5-67.8,18.5
	c-49,0-83.3-2.3-83.3,14c0,14.1,6.8,12.6,33.3,12.6c19.3,0,37.2-0.1,37.2,13.1c0,11.4-34,14.8-61.4,14.8
	c-46.1,0-101.6-4.4-112.5,12.5S71.9,286.8,108.5,286.1L108.5,286.1z"/>
<path d="M124.9,245.7c0,0-48,7.8-48-23.9c0-28.6,43.3-29.3,85.8-29.3c50.3,0,67.6,6.8,67.6-2.7c0-6.4-22.9-5.8-75.8-5.8
	c-92.4,0-139.4-5.6-139.4-33.2c0-40.2,110.1-43.3,180.9-43.3s257.5,24.8,257.5,6.6c0-11.8-57.3-7.5-83.9-7.5
	c-72.3,0-126.4-15.8-126.4-53.3s97.7-42.7,97.7-42.7s-72.8,5.7-72.8,43.7s67.1,48.1,100,48.1c26.6,0,108.2-7.4,108.2,10.7
	c0,22.5-229.2-0.1-269-0.1C114,113,50,120,50,150.8c0,13,47.8,30.2,116.8,30.2c52.9,0,81.8,2.4,81.8,8.8c0,10.8-24.5,4.7-73.6,4.7
	c-23.3,0-85.8,3.8-85.8,27.3C89.2,250.4,124.9,245.7,124.9,245.7L124.9,245.7z"/>
</svg>
