<?xml version="1.0" encoding="utf-8"?>
<svg version="1.1" xmlns="http://www.w3.org/2000/svg" xmlns:xlink="http://www.w3.org/1999/xlink" x="0px" y="0px"
	 viewBox="0 0 438.2 378.4" style="0 0 438.2 378.4;" xml:space="preserve">
<path d="M124.8,367.1c-41.5-0.6-67.5-2.5-67.5-29.6s32.7-22.6,86.2-22.6s84.8,6.5,84.8-16.5s-39.9-16.6-70.6-16.6
	c-38.8,0-52-3.8-52-22.8s24.9-22.7,73.1-22.7s99,4.3,99-31.5s-66.9-34-120.9-34S5.5,175.8,5.5,139.3s119.4-37.5,177.2-37.5
	s208.4,14.7,208.4-24.1S308.9,50.3,284,50.3c-51.6,0-128.1,0-128.1-25.8S297.4,4.8,297.4,4.8S171.2-1.4,171.2,24.5
	s74.5,22.8,126.1,22.8s108.4-5.1,108.4,27c0,44.8-151.8,31.5-209.6,31.5s-177.2-3-177.2,33.5s97.4,29.4,151.4,29.4
	s120.9,0.2,120.9,36s-50.9,33.5-99,33.5s-73.1,1.7-73.1,20.7s21.3,20.8,52,20.8s70.6-4.4,70.6,18.6s-32.8,17.8-86.2,17.8
	s-82.8-5.8-82.8,21.3S83.2,365,124.8,367.1L124.8,367.1z"/>
<path d="M186.3,364.6c-41.8,0.8-100.6,2.1-100.6-25s61-19.6,114.4-19.6c29.3,0,60.1,4.7,60.1-18.3S239.9,277,208.5,277
	s-69.1-1.8-69.1-20.8s51.6-15.4,99.7-15.4s71.8-15.1,71.8-37.3c0-26.7-37.1-38.2-91.1-38.2s-186.7,7.1-186.7-26.7
	c0-36.5,153.1-28.4,211-28.4s172.8,2.2,172.8-36.5c0-34.6-51.7-32-86.6-32c-51.6,0-123.5,3.2-123.5-17.8
	c0-25.9,106.8-13.7,106.8-13.7s-96.4-1.9-96.4,13.7c0,16.9,86.4,15.8,138,15.8s78.1,10.8,78.1,36.6c0,39-103.1,37.2-176.8,37.2
	c-57.8,0-209.9-11.3-209.9,25.2s132.7,23,186.7,23s91.1,19.2,91.1,41.9c0,29.2-23.7,39.3-71.8,39.3s-99.7-5.6-99.7,13.4
	s38.4,19.8,69.1,19.8c22.4,0,49,1.7,49,24.7S245.3,322,213.5,322c-53.4,0-118.1-8.2-118.1,18.9S144.5,365.3,186.3,364.6L186.3,364.6
	z"/>
</svg>
