<?xml version="1.0" encoding="utf-8"?>
<svg version="1.1" xmlns="http://www.w3.org/2000/svg" xmlns:xlink="http://www.w3.org/1999/xlink" x="0px" y="0px"
	 viewBox="0 0 1020.3 108.2" style="0 0 1020.3 108.2;" xml:space="preserve">
<path d="M1013.2,19.5c-83.5-1.4-116.4-4.6-116.4,18S845.9,12,798,12c-8.4,0-100.9-2-100.9,14.6c0,7.2,32.6,4.1,46.6,4.1
	c42.9,0,52.3,6.3,52.3,11.6c0,7.7-6.5,15.6-68,15.6c-10.2,0-53.1-2-53.1,2.7c0,4.2,31.7,2.9,52.9,2.9c15,0,55.9,1.4,56.8,13.6
	c1.4,17.8-23.4,29.6-63.7,29.6c-50.8,0-98.7-20.1-189-20.1c-49.3,0-148,32.2-148-27.1c0-35.1-34.7-43.6-78-43.6
	c-95.4,0-118.4,35.6-190.8,35.6c-60.5,0-86.6-25.8-111.9-25.8C28.4,25.5,49.5,47,110,47c76.5,0,102.4-37,197.7-37
	c50.3,0,91.9,18.1,91.9,52.2s77.9,22.3,127.9,22.3c90.3,0,141.9,20.1,192.7,20.1c16.8,0,53.2-4.8,53.2-26.5
	c0-11.5-33.2-13.9-45.7-13.9c-29,0-59.9,2.4-59.9-3.6c0-6.6,49-4.9,60.1-4.9c51.2,0,60.6-8.4,60.6-13.4c0-4.6-14.8-10.6-46.3-10.6
	c-27.6,0-52.5,2.9-52.5-5.3c0-18.1,94.8-16.4,103.9-16.4c47.9,0,98.6,45.8,97.8,22.7C890.7,13,930.8,17.8,1013.2,19.5L1013.2,19.5z"
	/>
<path d="M3.1,18.1c18.6,0,27.7,3.1,48.1,9.8s49.5,9.4,74.1,9.4c41.4,0,90.9-34.8,170.3-34.8S417,26.6,417,55.3
	c0,26,35.6,22.8,137.6,22.8c44.8,0,198.5,44.3,198.5,1.6c0-11.6-28.1-11.9-38.1-11.9c-54.3,0-62-0.9-62-7.1c0-9.6,42.9-10,57.2-10
	c19.8,0,54.2,3.9,54.2-6.7c0-8.7-31.8-7.9-36-7.9c-28.8,0-52.8,4.7-52.8-9.5c0-8,9-20.7,115-20.7c51,0,53.2,13.9,94.4,27.5
	c-45.2-10.8-49-26.1-100-25.8C723.9,7.9,683.6,12,683.6,26.7c0,8.8,17.8,7.7,56.7,7.7c25.7,0,31.4,5.8,31.4,9.5
	c0,10.5-18.9,9.3-63.7,9.3c-24.5,0-45.6,2.6-45.6,7.9s18.2,4.8,52.7,4.8c7.6,0,50.8-2,50.8,13.1c0,47.8-165.6,3.1-211.1,3.1
	c-89.7,0-147.7,6-147.7-24.2c0-26-35.5-53.6-111.6-53.6S165.6,42.6,124.2,42.6c-34.6,0-56.8-5.4-76.8-13.1S21.6,18.1,3.1,18.1
	L3.1,18.1z"/>
</svg>
