<?xml version="1.0" encoding="utf-8"?>
<svg version="1.1" xmlns="http://www.w3.org/2000/svg" xmlns:xlink="http://www.w3.org/1999/xlink" x="0px" y="0px"
	 viewBox="0 0 504.8 291.3" style="0 0 504.8 291.3;" xml:space="preserve">
<path d="M4.3,284.8c17.4-21.5,37.5-16.3,76.3-14.8s58.1,6.9,72.8-11.4c14.8-18.3-15.5-14.3-37.8-15.2s-38-4.6-25.8-19.7
	S122,206.6,157,208c34.9,1.4,69.5,6,92.4-22.4c22.9-28.4-25.5-28.9-64.7-30.4c-39.2-1.5-114.3-0.3-90.9-29.3
	c23.4-29,113.6-25.5,155.6-23.8c41.9,1.6,138.8,16.7,163.7-14.2c24.9-30.8-20.8-25.8-58.2-27.2s-94.2-1.2-77.6-21.8
	C293.8,18.2,416.2,1.9,416.2,1.9S303.6,18.6,287,39.1c-16.6,20.6,40.9,19.5,78.3,21c37.4,1.5,82.4-2.8,57.5,28
	c-24.9,30.9-126.7,17.3-168.6,15.6c-41.9-1.6-127.3-6.7-150.7,22.4c-23.4,29,51.1,27,90.3,28.5s88.2,2.9,65.3,31.3
	c-22.9,28.4-57.8,24.4-92.7,23c-34.9-1.4-54.8,0.1-67,15.2c-12.2,15.1,1.5,18,23.7,18.8c22.3,0.9,54.7-2.3,39.9,16
	c-14.8,18.3-34.4,13.6-73.2,12.1S21.7,263.3,4.3,284.8L4.3,284.8z"/>
<path d="M23.6,287.3c17.4-21.5,56.8-13.9,95.6-12.3c21.2,0.8,42,5.5,56.8-12.8s-0.3-20.3-23.1-21.2
	c-22.3-0.9-49-3.4-36.8-18.5s46-9.2,80.9-7.8c34.9,1.4,63.1-11.6,77.3-29.2c17.1-21.3-1.8-32.2-41-33.7S90.9,155,114.3,126
	s129.3-18.2,171.3-16.6c41.9,1.6,123.9,6.7,148.8-24.1c22.2-27.5-15.5-27.9-40.9-28.9C356,55,302.5,56.5,316,39.8
	C332.6,19.2,431.4,8.3,431.4,8.3S331.3,27.6,321.3,40c-10.8,13.4,54,14.1,91.5,15.6s48.3,11.7,31.8,32.2c-25,31-97.4,25-150.8,22.9
	c-41.9-1.6-146.3-13.4-169.7,15.6s80.9,22.9,120,24.4s54.4,17.1,39.9,35.1c-18.7,23.2-44.1,31.5-79,30.2s-67.1-8.2-79.3,6.9
	s15,16.8,37.3,17.7c16.2,0.6,33.2,2.7,18.5,21C166.6,280,152,277,128.9,276.1C90.1,274.6,40.9,265.8,23.6,287.3L23.6,287.3z"/>
<path d="M148.6,281.5c21.2,0.8,62-1.1,69.6-21.4c4.4-11.7-5.8-19.4-17.9-19.9c-22.3-0.9-56.5,3.4-50.2-13.4
	c5.9-15.8,43-9.4,77.9-8c34.9,1.4,59.9-16.8,67.1-36c2.9-7.6,14.9-33.4-24.2-35c-39.2-1.5-156.2,9.2-132.8-19.8s140.6-12.6,182.6-11
	c41.9,1.6,148.6-2.9,160.1-33.7c7-18.8-28-31-53.3-32c-37.4-1.5-88.2,4-74.7-12.8c12.6-15.7,94.1-24,94.1-24s-79.5,13.9-88.8,24.2
	c-11.6,12.9,51.3,10.2,88.7,11.7c39.6,1.6,55.7,22,51.8,32.3c-12.7,33.8-116.3,37.6-169.7,35.5c-41.9-1.6-157.6-19-181.1,10.1
	s94.8,16.9,133.9,18.4s21.2,39,21.2,39c-7.2,19.3-32,35.7-66.9,34.3c-34.9-1.4-75.5-7.2-81.1,7.8c-6.3,16.8,25.4,9.5,47.6,10.4
	c15.2,0.6,27.1,6.2,21.6,20.6C216.5,279.2,171.6,282.4,148.6,281.5L148.6,281.5z"/>
</svg>
