<?xml version="1.0" encoding="utf-8"?>
<svg version="1.1" xmlns="http://www.w3.org/2000/svg" xmlns:xlink="http://www.w3.org/1999/xlink" x="0px" y="0px"
	 viewBox="0 0 655.8 206.3" style="0 0 655.8 206.3;" xml:space="preserve">
<path d="M96.2,94.2c-38.3-2.7-94.9-4.2-94.9,24.5s39.4,40.5,92.2,40.5s65.5-12.6,97.9-12.6c28.1,0,52.6,57.1,96,57.1
	c80,0,54.4-57,172.1-57c156.1,0,193.3-0.7,193.3-26.5s-49-27.2-86-27.2s-85.1-7.5-85.1-37.7S600.9,5.4,600.9,5.4
	s-128.3,21-128.3,51.2s52.1,37.5,89.1,37.5s84.9,0.8,84.9,26.5s-62,21.5-188.9,21.5c-115.3,0-75.4,52.9-169.9,52.9
	c-35.6,0-70-51.5-91.9-51.5S138.2,157.6,94,157.6c-52.8,0-84.5-11-84.5-39.6S57.9,91.6,96.2,94.2L96.2,94.2z"/>
<path d="M108.2,97.4c-39.1-0.8-91.4-7.9-91.4,20.7c0,16.9,18.6,36.9,71.5,36.9c65.9,0,75.2-14.9,107.1-14.9
	s46.3,51.1,95.6,51.1c98.6,0,35.1-53.8,186-53.8c103.6,0,153.7,6.3,153.7-19.5c0-20.1-29.7-21.5-89.6-21.5
	c-48.1,0-77.8-15-77.8-38.8C463.2,25.2,578,4.4,578,4.4S455.3,23.7,455.3,57.6c0,22.4,29.3,40.6,79.9,40.6c37,0,84.5-0.4,84.5,18.9
	c0,28.9-116.7,18.2-131.3,18.2c-166,0-97.3,51.6-197.6,51.6c-42.8,0-66.9-50.1-96.1-50.1c-19.1,0-49.4,17.4-106.1,17.4
	c-52.8,0-61.9-23.1-61.9-36.6C26.9,89.2,69.7,98.7,108.2,97.4L108.2,97.4z"/>
<path d="M130.4,101.4c-63.2,0-94.8,3.2-94.8,19.3c0,6.9,3.3,30.3,63.7,30.3c35.5,0,79.7-18.6,99.6-18.2
	c20.9,0.4,52.4,50.5,96.1,50.5c53,0,69.2-53.7,141.9-53.7c111.9,0,170.5,13.1,170.5-12.6c0-21.8-50.3-17-85.3-17
	c-37,0-74.1-20.6-74.1-43.3c0-33.6,109.6-54.3,109.6-54.3S439.8,22,439.8,56.9c0,24.3,40,44.7,75.8,44.7c41.3,0,84.1-4.5,84.1,14.9
	c0,25.8-50.9,8.3-158.9,8.3c-73.3,0-81.6,53.7-146.6,53.7c-42.8,0-73.4-47.9-94.8-47.9c-16.5,0-72.3,18.6-100.6,18.6
	c-43.6,0-54.4-18.2-54.4-28.9C44.4,106.9,78,100.8,130.4,101.4L130.4,101.4z"/>
</svg>
