<svg xmlns="http://www.w3.org/2000/svg" viewBox="0 0 509.57 508.7"><defs><style>.cls-1{fill:none;stroke-width:6px;}.cls-1,.cls-2{stroke:#ffee95;stroke-miterlimit:10;}.cls-2,.cls-3{fill:#ffee95;}.cls-2{stroke-width:3px;}.cls-4{fill:#ff655f;}.cls-5{fill:#445dc9;}.cls-6{fill:#fafafa;}.cls-7{fill:#0d0d0d;}.cls-8{fill:#f9f9f9;}</style></defs><g id="レイヤー_3" data-name="レイヤー 3"><ellipse class="cls-1" cx="309.51" cy="252.04" rx="20.81" ry="36.44"/><ellipse class="cls-1" cx="238.4" cy="333.09" rx="36.44" ry="20.81" transform="translate(-240.48 453.36) rotate(-83.97)"/><rect class="cls-2" x="5.31" y="53.59" width="181.7" height="14.73"/><rect class="cls-2" x="1.5" y="82.96" width="139.09" height="6.45"/><rect class="cls-2" x="286.99" y="329.2" width="181.7" height="14.73"/><rect class="cls-2" x="326.37" y="355.8" width="181.7" height="7.36"/><rect class="cls-3" x="230.52" y="377.18" width="181.7" height="6.17"/><rect class="cls-4" x="509.3" y="374.54" width="2.79" height="153.12" transform="translate(104.93 -250.44) rotate(23.99)"/><rect class="cls-4" x="504.6" y="350.16" width="2.79" height="153.12" transform="translate(94.61 -250.64) rotate(23.99)"/><rect class="cls-5" x="208.97" y="75.74" width="2.79" height="153.12" transform="translate(-42.48 -154.15) rotate(23.99)"/><rect class="cls-5" x="186.41" y="83.89" width="2.79" height="153.12" transform="translate(-41.12 -144.28) rotate(23.99)"/><rect class="cls-5" x="197.54" y="343.53" width="2.79" height="153.12" transform="translate(65.4 -126.38) rotate(23.99)"/><rect class="cls-4" x="227.68" y="300.4" width="2.79" height="153.12" transform="translate(50.46 -142.36) rotate(23.99)"/><rect class="cls-5" x="223.53" y="378.87" width="2.35" height="100.84" transform="translate(71.36 -136.06) rotate(23.99)"/><rect class="cls-4" x="451.48" y="190.87" width="2.79" height="153.12" transform="matrix(0.91, 0.41, -0.41, 0.91, 25.26, -242.8)"/><rect class="cls-5" x="458.65" y="230.26" width="2.79" height="102.81" transform="translate(31.67 -244.48) rotate(23.99)"/></g><g id="レイヤー_1" data-name="レイヤー 1"><path class="cls-6" d="M134.05,446c0,.57,0,1,.35,1.36a.57.57,0,0,0,.75.06.4.4,0,0,0,.09-.58,1.14,1.14,0,0,1-.26-1.35.39.39,0,0,0-.33-.49c-.34-.05-.51.14-.56.46S134.06,445.85,134.05,446ZM412.43,123.51c-.18.69.4.66.71.87.12.09.2,0,.18-.12C413,124,412.91,123.57,412.43,123.51ZM358.08,91.15a3.47,3.47,0,0,0-.47,0c-.18,0-.5-.14-.49.22s.29.3.5.3S358,91.55,358.08,91.15Z" transform="translate(-122.57 -81.78)"/><path class="cls-7" d="M610.36,471.34c-.37-.18-.89,0-1-.74-.2-1.64-.94-3.15-1-4.85a12,12,0,0,0-1.08-3.43,12.57,12.57,0,0,1-.78-2.71c-.3-2.07-1.43-3.83-2.18-5.72-.62-1.6-1.57-3.06-2.2-4.66-1-2.45-2.74-4.43-3.69-6.86a43,43,0,0,0-5.78-9.64c-3-4.07-6-8.1-8.69-12.36a68.36,68.36,0,0,0-8.45-10.23,118.65,118.65,0,0,0-13-11.24c-4.48-3.53-9.63-5.22-15-6.28a33.32,33.32,0,0,0-10.31,0A62.53,62.53,0,0,0,521,397.21c-6.41,2.58-12.49,5.86-18.77,8.71a114.72,114.72,0,0,1-11,4.61c-4,1.32-7.91,2.81-11.84,4.28a13.43,13.43,0,0,0-2.93,1,.73.73,0,0,1-.48.09c-2-.43-3.87.18-5.79.42a3.75,3.75,0,0,1-.82,0,7.71,7.71,0,0,0-4.06.9,25.54,25.54,0,0,1-6.61,1.79,50.85,50.85,0,0,0-10.26,2.62c-2.2.92-3.85,2.48-5.65,3.84s-3.53,2.8-5.26,4.24a81.25,81.25,0,0,1-8.43,6.36,91.16,91.16,0,0,1-9.94,5.81,84,84,0,0,0-7.28,4.19c-3.11,1.86-6.3,3.56-9.5,5.24a46.07,46.07,0,0,0-9.43,6.51c-3.16,2.83-6,5.95-9.09,8.88a27.22,27.22,0,0,0-3.45,4.21c-.54.77-1.31,1.36-1.84,2.13-1.09,1.59-2.09,3.24-3.12,4.87a5.51,5.51,0,0,1-.52.85c-1.81,1.9-2.91,4.29-4.3,6.47-1.23,1.92-1.89,4.13-3.09,6a53.55,53.55,0,0,0-3.83,7c-1.45,3.34-2.85,6.71-4.1,10.14a34.72,34.72,0,0,0-1.79,11.78,75.36,75.36,0,0,0,.39,10.52,98.69,98.69,0,0,0,2,12.68c.52,2,.84,4,1.23,6.05a5.82,5.82,0,0,0,.69,2c1,1.6,1.94,3.22,3,4.77a5.75,5.75,0,0,1,.79,2.66c.05.43-.42.47-.64.67s-.46-.14-.54-.39c-.76-2.24-2.26-4.05-3.36-6.09a3.33,3.33,0,0,1-.33-.58,14.71,14.71,0,0,0-3.16-5,75.12,75.12,0,0,1-5.33-8,61.66,61.66,0,0,1-4.87-10.37c-.84-2.16-1.79-4.28-2.7-6.41a25.27,25.27,0,0,1-2.25-7.11c-.37-3.58-1.29-7.06-1.48-10.67a70.92,70.92,0,0,1,.05-11.84,62.82,62.82,0,0,1,1.63-8.17c1.2-4.91,2.05-9.92,3.89-14.63,1.92-4.92,3.07-10.1,4.91-15a170.55,170.55,0,0,1,8.2-18.19c2.2-4.31,5-8.25,7.55-12.31,2-3.09,3.7-6.31,5.49-9.5a98.16,98.16,0,0,1,5.56-8.67c3.18-4.45,6.42-8.86,9.64-13.27.56-.76,1.21-1.44,1.78-2.2a11.17,11.17,0,0,0,2.32-5.1c.36-2.88,1-5.86-.61-8.65-.67-1.16-.87-1.33-2.2-1.26a7,7,0,0,0-4.37,1.6,7,7,0,0,1-2.36,1.15,6,6,0,0,0-2.33,1.17,30.62,30.62,0,0,1-4.45,3.07,22.66,22.66,0,0,1-7,3.46,9.7,9.7,0,0,0-2.71,1.52c-2.39,1.46-4.62,3.17-7,4.62a60.88,60.88,0,0,1-6.19,3.39c-2,.91-4,1.83-5.88,2.93-3,1.71-6.28,2.06-9.59,2.57s-6.43.44-9.64.71a20.75,20.75,0,0,1-7.27-1.11,31.9,31.9,0,0,1-7.82-3c-5.06-3-10.18-5.89-15.06-9.14a25.31,25.31,0,0,1-6.17-5.49,9.82,9.82,0,0,0-1.39-1.42,41.49,41.49,0,0,1-5.25-6,4.87,4.87,0,0,0-1.14-1.17,2.1,2.1,0,0,1-.81-1,8.75,8.75,0,0,0-3-4.28c-.5-.39-.45-1.33-1.31-1.28-.59,0-1.11-.6-1.73-.15a5.48,5.48,0,0,0-1.85,2.09,3.21,3.21,0,0,0-.34,1.28c0,2.23-.93,4.32-.89,6.57s0,4.34-.1,6.51A65.34,65.34,0,0,1,272.15,397c-.49,2-.59,4.18-1.1,6.21-1.11,4.44-1.2,9-2,13.5a65.9,65.9,0,0,1-1.32,6.86,46.8,46.8,0,0,1-2.52,7.22c-1.44,3-2.67,6.08-4.18,9a70.3,70.3,0,0,1-4.64,7.66c-1.47,2.14-3,4.27-4.51,6.34a6.11,6.11,0,0,1-1.85,1.87c-2.55,1.4-4.46,3.58-6.51,5.59a49.14,49.14,0,0,1-9.42,7.19,45,45,0,0,0-4.42,2.86,25.43,25.43,0,0,1-4.69,2.36,70.65,70.65,0,0,1-9.37,3.47,40.82,40.82,0,0,1-6.22,1.26,24.12,24.12,0,0,0-2.66.83q-4,1.1-7.94,2.15c-3,.79-5.76,2.12-8.69,3-3.34,1-6.68,2.08-10,3.23-5.54,1.92-11.15,3.62-16.71,5.45a36.05,36.05,0,0,0-6.18,2.7c-3.18,1.75-6.58,3-9.81,4.65A101.18,101.18,0,0,0,137.33,506c-.41.27-.8.59-1.2.88-1.39,1-2.4,2.27-2.18,4.19,0,.3.12.69-.39.93a4.4,4.4,0,0,1-.23-1.86c-.05-.59-.41-.66-.76-.3a11.51,11.51,0,0,0-3,4.31c-.39,1.15-.61,2.35-.94,3.64a6.37,6.37,0,0,1,.79-5.45,14.31,14.31,0,0,1,3.46-4.21c1.53-1.2,2.56-2.89,3.84-4.33,2.88-3.22,6.43-5.47,10.07-7.65,2.55-1.53,5.35-2.51,7.91-4a4,4,0,0,0,2.22-3.27,20.67,20.67,0,0,0-.05-4.65c-.5-3.47-1.31-6.87-1.93-10.3a65.4,65.4,0,0,1-1.42-12.43c0-2.61-.18-5.23-.29-7.84-.06-1.67.12-3.34.19-5,.15-4,.25-7.91.66-11.85.35-3.32.46-6.69,1.1-9.95.84-4.26,1-8.61,1.85-12.86.63-3,1.12-6,1.57-9a21.69,21.69,0,0,1,1.19-4.16,19.11,19.11,0,0,0,1.16-4c.54-4,2.07-7.72,3.5-11.45A115.74,115.74,0,0,1,170,373.47c1.4-2.71,2.52-5.55,3.68-8.37a70.62,70.62,0,0,1,4.47-8.53c2.59-4.46,5.83-8.48,8.49-12.89a133.66,133.66,0,0,0,7.26-13.24,99.56,99.56,0,0,0,3.79-9.42c1.31-3.82,2.52-7.68,3.9-11.48,1.1-3,2-6.11,3.1-9.13,1.31-3.6,2.35-7.3,3.36-11,.28-1-.24-2.14-.53-3.18a4.35,4.35,0,0,1-.24-2.09c.63.19.1,1.05.81,1.15a1.7,1.7,0,0,0,.32-1.18,16.91,16.91,0,0,1,2.26-9.39,10,10,0,0,1,2.25-3.12c.39-.33.73-.86.34-1.3-.74-.85-.27-1.53.1-2.26.54-1.09,1.07-2.19,1.62-3.27,1.31-2.58,1.55-5.42,2-8.21.16-1,.28-2,.47-3a71.93,71.93,0,0,0,1.61-16.42,25.57,25.57,0,0,1,.31-5.1c.62-.77.93.92,1.6.13a4.69,4.69,0,0,0-1-1.85c-.66.37.33,1.27-.61,1.43,0-.35-.11-.83-.48-.34-.48.65-.64.38-.79-.13a1.83,1.83,0,0,1,.65-1.8c.25-.26.47-.51.21-.85a12,12,0,0,1-1.55-4.38,3.78,3.78,0,0,1,.3-3.36,2.32,2.32,0,0,0,.25-1.3,30.57,30.57,0,0,1,1.08-8.41,71.65,71.65,0,0,0,1.23-7.58c.49-3.47,1.34-6.85,2.17-10.26.69-2.85,1.51-5.66,2.07-8.55a75.92,75.92,0,0,1,4.13-13.17,65.2,65.2,0,0,1,4.4-9.84c2.29-3.86,4.28-7.91,6.87-11.55q3-4.26,6.25-8.4c2.27-2.92,4.49-5.9,6.88-8.72a90.67,90.67,0,0,1,6.83-7.43c1.48-1.41,2.86-3,4.46-4.21,2.23-1.77,4.43-3.58,6.83-5.14a142.66,142.66,0,0,1,18.05-10.13,27.65,27.65,0,0,1,2.91-1.11c6.22-2.12,12.48-4.07,18.87-5.6,5.81-1.38,11.65-1.06,17.48-.42a23.41,23.41,0,0,1,5.11,1.7c1.29.48,2.54,1,3.82,1.52a1.93,1.93,0,0,1,1.4,2.09,12.92,12.92,0,0,1-.19,1.49c-.47,2.61-.6,5.28-1.23,7.87a4,4,0,0,0,.23,2.92c.18.33.46,1.12-.55.86a.3.3,0,0,0-.38.21,13.18,13.18,0,0,0-.59,3.09c.07.9,1,1.29,1.33,2.06a.32.32,0,0,0,.41.19.49.49,0,0,0,.33-.51,17.49,17.49,0,0,1,.41-3.46c.4-2.64.59-5.31,1.17-7.92a12.81,12.81,0,0,0,.17-2.32,21,21,0,0,1,.3-3.16c.18-.88.5-1.81-.33-2.63-.43-.42-.11-1,.16-1.37s.64-.32,1,0a.64.64,0,0,0,.47.07c2.21-.58,4.49-.16,6.71-.49a42.67,42.67,0,0,1,6.37-.54,28.28,28.28,0,0,1,8.87,1.5c2.61.85,5.24,1.57,7.91,2.17a18,18,0,0,1,3.29,1,69.7,69.7,0,0,1,10.57,5.66c1.92,1.27,3.72,2.72,5.7,3.91.36.22.72.48,1.1.69a12.69,12.69,0,0,1,3.25,2.25,31.62,31.62,0,0,0,3.31,2.43c3,2.39,6,4.79,9.09,7.11a38.63,38.63,0,0,1,4.73,3.83c2.74,2.86,5.69,5.51,8,8.82.87,1.27,2.05,2.29,2.9,3.6,1.43,2.22,3.31,4.1,4.66,6.4.75,1.27,1.91,2.3,2.51,3.68,1,2.37,2.73,4.25,4.09,6.38,2.3,3.59,4.73,7.09,7,10.72a34.22,34.22,0,0,1,2.23,5c1.32,3.16,2.69,6.3,3.86,9.52.8,2.19,1.7,4.32,2.63,6.45a9.49,9.49,0,0,1,.76,2.89c.24,2.28,1,4.44,1.36,6.69.55,3.62,1.72,7.14,1.55,10.85a3.68,3.68,0,0,0,.14,1.33c.37,1.07.5,2.06-.44,2.91-.36,2.32-2,4-2.9,6.06-.44,1-.77,2,.18,2.91a1.46,1.46,0,0,1-.08,2.11c-.78.88-1.25,2-2,2.88-1.54,2-1.55,4.21-1.29,6.61s.77,4.56,1.06,6.85a19.54,19.54,0,0,0,1.08,4c1.5,4.31,2.81,8.69,4.5,12.94a50.49,50.49,0,0,1,2.67,7.8c.56,2.55,1.76,4.9,2.58,7.37,1.51,4.53,3,9.07,4.63,13.54a106.31,106.31,0,0,0,5.31,12.9c1,2,1.84,4.15,2.71,6.25,1.05,2.56,2.12,5.12,3.08,7.72,1.1,3,2,6,3.13,8.94,1,2.76,1.81,5.6,2.66,8.42a92.79,92.79,0,0,1,2,9.79c.57,3.07.7,6.2,1.12,9.28a107,107,0,0,1,.92,12c.08,3.18-.21,6.35-.06,9.53a101.29,101.29,0,0,1-.44,10.16A46,46,0,0,1,480.14,402a91.8,91.8,0,0,1-6.11,11.4c-.14.22-.45.36-.26.68s.46.16.72.15a14.54,14.54,0,0,0,6.58-1.82c1.9-1,4.09-1.21,6.07-2a68,68,0,0,0,8.56-3.77,32.08,32.08,0,0,1,3.37-1.3c3-1.24,6-2.49,8.91-3.81,4.25-1.9,8.4-4.07,12.73-5.74,4.95-1.9,9.87-4.09,15.21-4.56,3.71-.33,7.44-.68,11.15,0a5.53,5.53,0,0,0,1.15,0,23,23,0,0,1,10.91,2.64,60.23,60.23,0,0,1,11,6.84A50.57,50.57,0,0,1,575,405.2c1.84,1.83,3.84,3.5,5.54,5.47,2.42,2.81,4.89,5.57,7.06,8.58.72,1,1.64,1.8,2.43,2.72a32,32,0,0,1,3.1,4.49c1.2,2.06,2.48,4.06,3.72,6.09a8.71,8.71,0,0,1,.79,1.82c.67,2,2,3.68,2.8,5.64a11.84,11.84,0,0,1,.53,1.22c.74,2.85,2.11,5.47,3,8.27a43.74,43.74,0,0,0,3.23,7.27,51.33,51.33,0,0,0,2.61,4.63c.15.21.22.52.55.55v1.34c-.19.26-.34.13-.49,0-.36-.4-.53-1-1.23-1.31l1.72,6.38ZM398.24,122.46a.28.28,0,0,0-.27-.3s-.12.07-.12.1a.39.39,0,0,0,.26.36c.13.13.28.32.42,0C398.58,122.56,398.39,122.47,398.24,122.46ZM385,142.75c0-.3-.15-.37-.4-.36l0-.32c0,.11,0,.22,0,.33.3-.08.39.07.38.35l.62.05c0,.15,0,.15-.05,0S385.13,142.78,385,142.75ZM585.29,419.1c.06.15.05.47.32.28s0-.32-.15-.46a.5.5,0,0,0-.37-.35c-.05-.15-.14-.24-.3-.22s-.08.08-.07.12.12.24.28.25A.29.29,0,0,0,585.29,419.1ZM240.41,250.45l-.36.32a.41.41,0,0,0-.09.57c-.09-.05-.18-.14-.27-.14a1.43,1.43,0,0,0-.41.09s0,.1,0,.16.26,0,.39,0a.82.82,0,0,0,.28-.14,4.85,4.85,0,0,1,.09-.55c.22,0,.39-.06.35-.34.31.12.42,0,.36-.31.79,0,1.24-.37,1.42-1.32a3.39,3.39,0,0,0-1.37,1.37A.41.41,0,0,0,240.41,250.45ZM572.19,404.62c-.13.13-.12.25,0,.33a.2.2,0,0,0,.14,0c0-.19-.07-.25-.23-.26,0-.22-.1-.32-.29-.37l-.21-.46a1.41,1.41,0,0,0-1,0c0-.13.24-.2.05-.38s-.25.05-.37.07c.12-.23.4-.51-.16-.51.28-.29,0-.37-.17-.51a3.12,3.12,0,0,0-1.7-1.26,2.39,2.39,0,0,0,1.54,1.43c0,.23.12.35.35.31.05.18.1.35.16.52.21,0,.39,0,.3.32.34,0,.69.2,1,0,0,.12-.21.2-.12.4s.24,0,.35,0-.18.21,0,.38S572.08,404.63,572.19,404.62ZM238.32,251.92h0l.24.21s.05,0,.08,0ZM386.24,143.73c-.15-.11-.3-.36-.46-.07-.07.13.1.24.26.27a.3.3,0,0,0,.32.34,37,37,0,0,0,2.38,4.91c1.66,3.08,2.64,6.48,4.43,9.49a3.59,3.59,0,0,1,.43,1.07,29.2,29.2,0,0,0,1.49,4.76c1.43,3.49,2.68,7.05,4,10.57a99.25,99.25,0,0,1,4.13,14.05c.68,3.21,1.25,6.43,1.62,9.69a86.41,86.41,0,0,0,1.68,11.55,17.13,17.13,0,0,1,.61,2.93c.13,1.82.31,3.65.53,5.46a24.14,24.14,0,0,0,.71,4.26,113.08,113.08,0,0,1,2.58,11,130.66,130.66,0,0,0,3.46,13.9c1.6,4.9,2.77,9.93,4.75,14.7.1.25.13.53.21.79.69,2.05,1.19,4.15,2.06,6.13a52.47,52.47,0,0,0,4.86,8.82c.71,1,1,2.53,2.47,2.94.11,0,.17.27.26.41,1,1.77,2.4,3.24,3.18,5.18a39.4,39.4,0,0,1,2.16,5,9.13,9.13,0,0,0,1.75,3.27,3.88,3.88,0,0,0-.2-2,24.43,24.43,0,0,1-.8-2.7c-.63-1.6-.78-3.32-1.39-4.91-.88-2.27-1.57-4.62-2.49-6.87-.81-2-1.08-4.18-1.94-6.17a12.33,12.33,0,0,1-.78-1.81,28.42,28.42,0,0,0-1.58-4.69,128.22,128.22,0,0,1-4.75-13A124.12,124.12,0,0,1,418,235.54a36,36,0,0,0-1-4.87,27.79,27.79,0,0,1-1-3.35c-.6-3.16-1-6.35-1.48-9.55-.59-4.35-1.5-8.66-2.25-13-.59-3.4-1.25-6.78-2.11-10.11-1.69-6.5-3.39-13-5.43-19.39-.51-1.59-.86-3.22-1.23-4.84s-1.25-3-1.73-4.56a40.11,40.11,0,0,0-6.38-12.12,74,74,0,0,0-8.79-9.69C386.46,144,386.35,143.84,386.24,143.73ZM231.84,255.47c-.18.05-.3.19-.17.33s.26,0,.36-.14.43-.24.19-.45S231.92,255.3,231.84,255.47Zm-4.58,20.83-.07.05,0-.09.53-.05c0-.68,1.05-.92.72-2-.56.68-1.17,1.11-.73,2-.08-.07,0-.31-.24-.24S227.33,276.18,227.26,276.3Zm152.88-41.2c.15-.09.47-.14.23-.4s-.33.08-.48.2l-.29.33c-.14.23-.24.52,0,.66s.2-.27.2-.47C380,235.43,380.12,235.31,380.14,235.1Zm-68.45-1.56c.15-.07.31-.13.27-.33s-.15-.11-.23-.16l0,.49c.1-.1.12-.1.05,0S311.7,233.54,311.69,233.54Zm-12.43-11.73-.25-.31-.49-1,.26-.2c.28,0,.39.3.57.47l.7.74c-.36-.78-.36-.78-.72-.68.65-.31,0-.74.08-1.11.19-.9-.32-1.3-1.07-1.56a28.42,28.42,0,0,1-3.18-1.48,21.83,21.83,0,0,0,3.56,5c0,.2.11.34.33.34,0,.15.11.31.27.17S299.35,221.93,299.26,221.81Zm102.46-96.17,0-.14a.08.08,0,0,1,0,0,.3.3,0,0,1-.08.08c.33,0,.66.3,1,0-.35.48.08.7.34.94,1.32,1.25,2.58,2.59,4,3.7,3.48,2.72,6.58,5.87,9.82,8.86A2.79,2.79,0,0,0,418,140v-.05l0,0a37.66,37.66,0,0,0-3.07-3.88,82.14,82.14,0,0,0-11.37-9.53c-.35-.23-.8-.4-.9-.91ZM381.79,232.77a.52.52,0,0,0,.25-.56s-.22,0-.24,0c-.09.19-.21.39,0,.58-.12-.15-.24-.15-.33,0,0,0,0,.13,0,.14C381.71,233,381.76,232.92,381.79,232.77ZM196.46,329.71a1.45,1.45,0,0,0,0-.29c0-.1.2-.3-.1-.26a1.28,1.28,0,0,0,0,.26c0,.1.05.19.07.29s-.2-.15-.24.05c0,0,.06-.1.09-.11S196.42,329.69,196.46,329.71ZM248.21,142c.08.35-.59.58-.14,1-.1-.1-.21-.22-.34-.06a.32.32,0,0,0,0,.24c.16,0,.25-.07.3-.23.44-.24.38-.58.18-.94l.19.23.11-.14ZM566.84,400.35a.31.31,0,0,0,.34.22.35.35,0,0,0,0-.25c-.14-.13-.27,0-.39.08.19-.16.11-.26-.06-.34s-.15,0-.15,0C566.52,400.27,566.74,400.26,566.84,400.35ZM248.48,244.69c0-.35.42-.69,0-1.05.54.46.63-.16.82-.39,2.87-3.47,4.64-7.65,7-11.45,1.48-2.36,2.34-5.11,3.82-7.51,1.68-2.76,2.39-6,3.7-8.89a6.22,6.22,0,0,0,1-3c-.41.41-.68.72-1.07.67-1.5-.19-1.87.74-2.23,2a59.75,59.75,0,0,1-2.41,7.05,52.6,52.6,0,0,0-2,5.06,42.06,42.06,0,0,1-3.79,7.81,10.91,10.91,0,0,1-.76,1.8,65.11,65.11,0,0,0-4,6.86c-.08.34-.67.64-.08,1,0-.15-.06-.33-.26-.29s-.13.13-.19.2ZM199.2,321.38a.74.74,0,0,0-.19.86s.24,0,.24-.05c0-.29.58-.62-.06-.84l.15.22.15-.16ZM299.15,224c-.18-.19-.35-.36-.56,0a1.21,1.21,0,0,0-.5-1.55c-.22.73.55,1,.51,1.52h.6a1.13,1.13,0,0,0-.05.32c0,.15,0,.32.27.29a1.42,1.42,0,0,0-.1-.29A1.53,1.53,0,0,0,299.15,224Zm-18.38-13.77a.42.42,0,0,1-.13.07s-.06-.05-.08-.08l.24,0a.88.88,0,0,0-.13.3c0,.14-.05.37.13.36s.1-.24.07-.37A2.81,2.81,0,0,0,280.77,210.18Zm116.15-88.72c0-.32-.31-.38-.53-.51a1.57,1.57,0,0,0-1.41-.77c.32.46.63.93,1.25,1,.06.32.32.39.56.5a2.65,2.65,0,0,0,.21.26c.15.15.43.32.54.18.25-.32-.11-.44-.31-.58A1,1,0,0,0,396.92,121.46ZM301,222.24c-.1.09-.44,0-.23.31l.23-.31c-.37.12-.38-.61-.81-.35C300.33,222.34,300.59,222.5,301,222.24Zm79.37,9.38c-.22.1-.33.56-.68.2l.13-.72c.63-.5.73-1.42,1.45-1.87a.63.63,0,0,0,.1-.76.65.65,0,0,0-1.2.23l-.54,2.21c-.27.33-.29.63.09.88.67.09-.23.84.42,1,.18-.37.8-.65.21-1.17.06.18.16.22.3.08s0-.09,0-.13ZM303,226c0,.22.09.43.38.28,0,1.53,0,1.53,1.13,1.55-.65-.31-.66-1.09-1.17-1.51-.07-.16,0-.51-.37-.28-.12-.84-.12-.84-1-1.47C302.23,225.26,302.44,225.78,303,226ZM200.42,319.38c-1.17-.12-.6.74-.64,1.25l.64-1.26a1.4,1.4,0,0,0,0-.29c0-.1.29-.27-.06-.29a2.53,2.53,0,0,0,0,.28A2.87,2.87,0,0,0,200.42,319.38Zm170.92-87.16a2.79,2.79,0,0,0-.58,1.47,2.74,2.74,0,0,0,.81-1.28c.31-.16.49-.47.18-.68S371.44,232,371.34,232.22Zm64.93-67.34-.11.07s0,0-.05,0l.17,0c-.47.91.33,1.38.67,2a72.77,72.77,0,0,0,4,6.75,31.47,31.47,0,0,0-3.86-7Zm-64,66.18a1.93,1.93,0,0,0,.87-2.09,4.56,4.56,0,0,0-1,2,.34.34,0,0,0-.2.37s.08.11.11.11A.3.3,0,0,0,372.22,231.06ZM290,238.6l.08-.09,0,0-.13.05c.45-.65,0-1.15-.31-1.65-.1-.16-.4-.15-.6,0s-.12.36,0,.56C289.36,237.9,289.88,238.09,290,238.6Zm17.75-11.4c.39.34.35,1.14,1.15,1.13A2.23,2.23,0,0,0,308,227a2.67,2.67,0,0,0-1.32-2,1.22,1.22,0,0,0-.66-1c-.3-1-.27-.79.58-.9s.92,1,1.66.85l0-.05a6.53,6.53,0,0,0,1.42,3.56,31.55,31.55,0,0,1,3.46,5.42c.1-.1.18-.09.23,0,.05,0,.21.29.14,0,0,0-.25,0-.38,0a8.64,8.64,0,0,0-1.38-3.81,19,19,0,0,1-1.73-3.43c1.24,0,1.21,1.17,1.8,1.61.51-.31-.36-1,.37-1.29l.32-.22s-.09-.12-.11-.11a.34.34,0,0,0-.2.36c.27-1,.17-1.32-.66-1.67a46.45,46.45,0,0,1-4.19-2.06,10.27,10.27,0,0,0-2-.74c-.37-.12-.17.25-.24.4l-.26.3c-.55-.26-.09-1.1-.79-1.32a32.81,32.81,0,0,1-4.05-1.53c.75,1.1,1.16,2.41,2.33,3.11s1.3,2.32,2.7,2.84l-1.77-2.86.26-.32,2.25,2.1.7,1Zm87.34-59a1.52,1.52,0,0,0,.44,1.88c.1-.73-.55-1.22-.44-1.87-.76-.75-.6-2-1.5-2.66C394.16,166.38,393.85,167.71,395.12,168.17ZM313.9,225.69l-.17-.16v.2l.21-.08a3.09,3.09,0,0,0,1.26,2.37C315,226.5,314.85,226.23,313.9,225.69Zm100-28.53.27-.19-.14-.1-.11.3a5.52,5.52,0,0,0-1.28-4C412.79,194.69,413.63,195.84,413.93,197.16Zm68.76,192.56c-.15-.06-.36-.08-.39.1a34.64,34.64,0,0,0-.92,4.54,12.48,12.48,0,0,0,1.28-4.69,4,4,0,0,0,.07-2.06A5.55,5.55,0,0,0,482.69,389.72ZM381.42,111v.07l.06,0a15.64,15.64,0,0,0,4.58,2.83l0-.08-.07,0A13.85,13.85,0,0,0,381.42,111Zm16.94,116c.18-.86.51-1.87-.11-2.51-.47-.47-1.32,0-2,.27,0,0-.11,0-.16,0-.91.16-.91.16-.5,1.22.25-.08.27-.31.36-.5s.22-.68.64-.59.22.43.24.68c0,.44.21.41.48.16s.41-.49.8-.4c.41.53-.27,1.2.21,1.71-.1-.15-.11-.49-.39-.16ZM264.85,426.11a11,11,0,0,0-2.09,5.46,9.87,9.87,0,0,0,1.66-3.3c.22-.69.71-1.38.39-2.19a8.89,8.89,0,0,0,1.6-4.91,3.5,3.5,0,0,0-.59,1.31C265.65,423.74,264.65,424.76,264.85,426.11Zm21.71-212,0-.09-.07.07c.15-1-.66-1.86-.38-2.92.14-.5-.82-.78-.87-.71-.67,1-1.26-.1-1.9-.13.35,1.78.38,3.57,1.95,4.92a2.46,2.46,0,0,0-.53-1.81c-.29-.53-.91-1-.22-1.71C285.25,212.48,285.91,213.27,286.56,214.06ZM379,109.26c-.27.06-.36.23-.18.44a.74.74,0,0,0,.94.27c0-.52-.64-.34-.79-.7-.82-.61-1.92-.59-2.69-1.38s-1.88-.82-2.88-1-1.93-.74-3-.87-1.83-.41-2.75-.62a24.85,24.85,0,0,0,3.43,1.58,48.42,48.42,0,0,1,7.26,2.45C378.62,109.5,378.89,109.66,379,109.26ZM360.84,247.92c-.27.19-.69.17-.81.57-.33,0-.66,0-.67-.52,0-.76.5-1.05,1.05-1.34l5.81-3,6.06-3.12a2.36,2.36,0,0,0-3.06-.37c-.36.21-.61.49-1,.06s-1,.19-1.35-.42c.56-1.28.55-2.79,1.24-4.08q1.83-3.45,3.7-6.89c.41-.76,2-1.61,2.58-1.27a2.32,2.32,0,0,0,1.74.16,26.8,26.8,0,0,1,6.6-.66,33.61,33.61,0,0,0-.59-7.43c-.72-3.6-1.37-7.21-1.9-10.84a101.11,101.11,0,0,0-2.43-11.54c-1-3.88-2.4-7.63-3.5-11.47a40.34,40.34,0,0,0-2.51-7.58c-1.38-2.66-2.77-5.32-4.1-8q-4-8.2-8-16.46a5.08,5.08,0,0,1-.37-1.1,27.1,27.1,0,0,0-3.46-7.86,13.66,13.66,0,0,1-.86-1.6c-.87-2.16-1.61-4.39-3.22-6.15a4.08,4.08,0,0,1-.34-.57c-1.13-1.77-2.15-3.63-3.43-5.28a16.49,16.49,0,0,0-5.18-4.32c-.94-.52-1.85-1.36-3.19-.82a1.76,1.76,0,0,1-1.62-.86c-.36-.91-.89-.56-1.25-.24a38.32,38.32,0,0,0-3.72,3,57.37,57.37,0,0,0-6.65,8.4c-1.37,2.22-2.84,4.36-4.38,6.47a15,15,0,0,0-1.85,2.32c-1.72,3.58-3.48,7.13-5.25,10.68-.69,1.38-1.37,2.77-2.06,4.15a37.78,37.78,0,0,1-1.66,3.79c-2.25,3.51-3.8,7.38-5.6,11.12a60.8,60.8,0,0,0-3.56,9.31c-.8,2.78-1.63,5.56-2.2,8.37-.82,4.08-1.84,8.12-2.43,12.26-.48,3.36-1.2,6.68-1.86,10-.11.54,0,.79.49,1,1.25.56,2.49,1.14,3.69,1.81a30.39,30.39,0,0,0,4.31,2.05c1.83.7,3.63,1.52,5.4,2.39a35.9,35.9,0,0,0,4.35,2.25c1,.35,1.4,1.15,2,1.82.16.19,0,.64,0,1,.1.69.7-.23.85.24.47,1.46,1.46,2.69,1.49,4.34a47.19,47.19,0,0,0,.51,5.16c.08.58.27,1.26-.32,1.47a2,2,0,0,1-2,0,25.46,25.46,0,0,0-4.45-2.42,15.48,15.48,0,0,1-4.16-2.31c-.95-.7-1.7-2-3.23-1.56-.32.08-.49-.38-.72-.61-.91-.91-1.6-2.25-3.25-1.75-.1,0-.32-.15-.37-.27a2,2,0,0,0-1.08-.94c-.91-.49-1.45-1.66-2.71-1.52,0,0-.09-.07-.11-.12-.26-.76-1.08-.88-1.56-1.41s-.8-.36-.9.4a36.3,36.3,0,0,0-.28,8.84c.57-.09,1.35-.51,1,.74a.82.82,0,0,0,.7,1.1,9.45,9.45,0,0,1,1.51.63,12.16,12.16,0,0,0,1.38.52c.63.17.63-.9,1.36-.73a1.07,1.07,0,0,0,.76,1.33c.79.34,1.63.23,2.31.49a11.59,11.59,0,0,1,3.59,2,52.37,52.37,0,0,1,6.41,7.14c.14.17.33.36.23.58-.28.67.23,1.09.52,1.49,1.93,2.75,3.39,5.82,5.53,8.34-.21.61-1-.42-1.07.58,0,.27-.47.3-.67.06-.85-1-2-.92-3.15-1.15a36.69,36.69,0,0,0-8.48-.82,70.67,70.67,0,0,1-12.92-1,18.91,18.91,0,0,1-8.27-3.43c-2.53-1.84-4.78-4-7.33-5.87a45.44,45.44,0,0,0-6.4-4c-.74-.37-.84-.85-1.08-1.42a1.42,1.42,0,0,1,1.61,0c1.75.86,3.55.24,5.32.25.25,0,.56-.1.52-.49-.06.09-.19-.54-.16,0s.51.53.87.37a6.41,6.41,0,0,1,1.93-.33,20.52,20.52,0,0,0,4.92-1c-.93-1.65-1.1-1.76-2.57-1.4a24.66,24.66,0,0,0-2.35.75,4.83,4.83,0,0,1-3.08,0,26.36,26.36,0,0,1,7.38-2.64c.91-.14,1.78-.52,2.69-.72.55-.12.69-.37.65-.92s-.27-1.17.39-1.67c.38.53.05,1,.21,1.5s.15.76.54.73a.89.89,0,0,0,.86-.64,5.33,5.33,0,0,0,.17-1.64,71.34,71.34,0,0,1,0-8c.12-1.59-.26-3-2.12-3.6a20.61,20.61,0,0,1-3.76-2c-2.42-1.42-4.79-3-7.71-3.55-.9,1.74-1.84,3.5-2.74,5.29-1.69,3.36-3.09,6.87-5,10.11-1.43,2.43-2.46,5.1-4.13,7.4-.45.62-.9,1.25-1.3,1.92q-2.22,3.7-4.59,7.32c-1.54,2.35-3.27,4.56-5,6.75a18.52,18.52,0,0,1-2.73,2.86,7.76,7.76,0,0,0-1.51,1.52,35.14,35.14,0,0,0-4.14,7.34c-.3.77-.92,1.45-.81,2.45a69.69,69.69,0,0,1,.3,7.65c0,4.06-.39,8.11.29,12.16a79,79,0,0,0,2.2,10.11c2.63,8.47,4.81,17.1,8.07,25.37,1.76,4.49,3.19,9.1,5.22,13.49,1.69,3.67,4,7,5.76,10.56.37.75,1.42.48,1.64,1.26a4.93,4.93,0,0,0,.74,2.15c.54.62,1,1.34,1.49,2,1.88,2.45,3.75,4.9,5.83,7.18a74.85,74.85,0,0,1,6.78,8.16,72.57,72.57,0,0,0,5,6.76,29.36,29.36,0,0,0,8.89,7.24,14.62,14.62,0,0,1,2.79,2.05c2,1.75,4.19,3.37,6.39,4.91,1,.71,2.31,1.06,3.12,2.09a6,6,0,0,0,2.52,1.78,40.23,40.23,0,0,1,4.94,2.62,19.54,19.54,0,0,0,5.56,2.66,17.08,17.08,0,0,0,5.43.66c3.65-.32,7.33.31,11-.29,2.72-.45,5.59-.3,7.84-2.37a1.06,1.06,0,0,1,.78-.19,2.39,2.39,0,0,0,1.52-.47c.84-.41,1.67-.83,2.52-1.22a85.27,85.27,0,0,0,11.52-6.4c3.71-2.45,7.45-4.87,11.15-7.35a59.87,59.87,0,0,0,5.22-3.75c2.66-2.24,5.14-4.69,7.75-7a82.42,82.42,0,0,0,8.1-8.92c2-2.37,3.55-5.07,5.41-7.55a7.56,7.56,0,0,0,1.23-2.33c.19-.64.09-1.1.92-1.51s1.06-1.49,1.51-2.32c1.33-2.48,2.41-5.11,3.74-7.58,2.52-4.66,4-9.76,6.07-14.59,1.27-2.95,2.37-6,3.44-9a40.58,40.58,0,0,0,2.43-7.78c.13-.89-.2-1.78.17-2.64,1.11-2.54.42-5.17.12-7.72a9.34,9.34,0,0,0-.63-3.2c-.81-1.58-1.36-3.3-2.23-4.8-2.33-4-3.12-8.65-5.27-12.72a12,12,0,0,1-1.15-2.57c-.62-2.43-1.57-4.72-2.34-7.09-.22-.69-.1-1.67-.53-2.06-1-.92-.8-2.12-1.09-3.2-.48-1.82-.89-3.66-1.35-5.49-.06-.23,0-.58-.44-.65-1.75.7-2.94,2.38-4.72,3.11-.09,0-.14.16-.21.25a4.76,4.76,0,0,1-2.9,1.67,21.25,21.25,0,0,1-8.14.43,10,10,0,0,0-2.79,0,14,14,0,0,1-5-.29A32.53,32.53,0,0,0,366,262a2,2,0,0,1-1.27.05.94.94,0,0,1,.61-1.2,9,9,0,0,0,1.62-1.38c1.47-1.26,2.38-3,3.84-4.29,2.42-2.14,4.7-4.46,7.27-6.42a11.44,11.44,0,0,0,3.18-3.82,8.5,8.5,0,0,0,.91-2.65,20.24,20.24,0,0,0,.56-5.89c-3.58,1.39-7,2.9-10.53,3.89.85.25.85.25,1.17,1-1.87,1-3.74,2-5.63,2.92A54,54,0,0,0,360.84,247.92Zm76.38-.67c-.74.82-1.5,1.62-2.22,2.45a6.59,6.59,0,0,0-1.47,4.7,14.82,14.82,0,0,0,4-6.88c.28-.11.46-.38.24-.58S437.37,247.1,437.22,247.25Zm4.16-1.46c-.27,1.57-1.26,2.79-1.92,4.16-.47,1-.89,1.92-.23,2.93.25-.4.5-.83.78-1.23a2.19,2.19,0,0,0,.41-1.57c0-.28.33-.18.5-.28s.38-.4.29-.52c-.53-.69,0-.79.39-1.22s1-.92,1.11-1.58a1.67,1.67,0,0,0-.35-1.63c-.63.09-.39,1-1,1-.39-.19-.13-.45,0-.68a3.55,3.55,0,0,0,.39-1.43c0-.22-.08-.45-.33-.52a.45.45,0,0,0-.52.29c-.3.53-.57,1.07-.85,1.61l-3.2,6.25a2.29,2.29,0,0,0,2.09-1.48,17.53,17.53,0,0,1,1.36-2.83C440.51,246.58,440.49,245.72,441.38,245.79Zm-2.46,11.3c.49.25.59-.23.67-.46A8.52,8.52,0,0,1,441.2,254a8.74,8.74,0,0,0,1.34-2.09,4.06,4.06,0,0,0,0-3.43,42,42,0,0,1-2.32,4.26A1.21,1.21,0,0,0,440,254c.27.54-.87.5-.94,1.11a2.9,2.9,0,0,0,0,.66,2.48,2.48,0,0,1-.13,1.32c-.07.11-.2.21-.06.36a.15.15,0,0,0,.12,0A.22.22,0,0,0,438.92,257.09Zm-66.24-24.25c.07-.19,0-.49.3-.51s.31.35.23.45c-.48.65-.37,1.47-.62,2.2a27.92,27.92,0,0,0,2.3-2.69c.75-.91.64-2.39,1.9-2.92.66,1.11-.81,1.78-.5,2.79.8-.14.8-.93,1.13-1.45s.27-1.26,1.15-.67c.22.15.51,0,.57-.39l.25-1.44c-1.7.46-3.46.17-4.51,1.84-.31-.12-.13-.32-.09-.5s-.05-.36-.19-.36-.37.17-.44.39-.12.46.21.41.37-.18.55,0c-.19.85-1.2,1.12-1.36,2,0,.15-.29.26-.37.12s-.29-.44-.51-.1a.86.86,0,0,0,0,.78l-.34.12C372.46,232.87,372.52,232.69,372.68,232.84Zm63.81,38.9c1.07-2.26,2.88-4,4.29-6a8.2,8.2,0,0,0,1.18-5.29c-1.53,2.2-2.59,4.66-4.19,6.77a6.77,6.77,0,0,0-1.22,4.5l0-.06ZM586.14,419.91c-.12-.12-.24-.41-.42-.11-.08.12.08.25.24.29a2.38,2.38,0,0,0,.55,1.19c2.3,3.65,4.8,7.17,7.33,10.65.93,1.28,1.85,2.57,2.77,3.85a6.05,6.05,0,0,0-.88-2.45c-1-1.77-2.32-3.39-3.29-5.17A38.53,38.53,0,0,0,586.14,419.91ZM437.27,265.79c.57.33.65-.29.81-.52,1.26-1.82,2.07-3.9,3.16-5.82a6.94,6.94,0,0,0,1-1.95,11.57,11.57,0,0,0,.35-3.59c-.87.45-1,1.36-1.46,2-1.54,2.51-3.48,4.86-3.41,8.1a8.46,8.46,0,0,1-.39,1.79l0,.25.1-.07ZM431.37,293a2.08,2.08,0,0,0,.3-.13s0-.09,0-.1c-.2-.06-.18.18-.29.24a2.8,2.8,0,0,0-.31-2,21.55,21.55,0,0,1-1.13-2.19c-1.28-3-2.74-5.82-4.29-8.87a11.59,11.59,0,0,0,.6,4.92,3,3,0,0,1,.25,2.1c-.64,1.66.17,3,.66,4.48.34,1,1.47,1.27,2.24,1.85s1.13-.37,1.68-.64C431.32,292.48,431.43,292.74,431.37,293Zm-184-47.17c-.21-.27-.37-.06-.49.09-.54.63-1.05,1.27-1.58,1.91a66,66,0,0,1-6.87,6.82,27.63,27.63,0,0,1-6.19,4.54c-.5.25-.55.58-.45,1.08.28,1.41.52,2.82.8,4.39l1.45-1.65c.71-.84,1.37-1.73,2.13-2.52a63.66,63.66,0,0,0,6.28-7.24c1.72-2.42,3.71-4.65,4.9-7.43a.42.42,0,0,0,.36-.45s-.19-.13-.2-.12C247.39,245.39,247,245.52,247.39,245.81ZM141.11,502c.61.43,1-.13,1.5-.33,2.17-.93,4-2.5,6.19-3.37,1.38-.54,2.73-1.16,4.07-1.78,2.63-1.22,5.23-2.51,7.87-3.71,2.27-1,4.73-1.57,7.07-2.44,4-1.46,8-2.72,12-4.07,1.66-.55,3.29-1.23,5-1.62,3.11-.71,6-2,9-3a.78.78,0,0,0,.63-.65c-1.28.37-2.5.68-3.69,1.07-3.37,1.12-6.71,2.36-10.11,3.4a68.74,68.74,0,0,0-9.33,3.16,6.37,6.37,0,0,1-1.59.38,39.05,39.05,0,0,0-9.73,2.89c-1.63.77-3.34,1.39-4.95,2.22-2.28,1.19-4.65,2.2-6.92,3.45-2.42,1.33-4.51,3.16-6.91,4.48l-.07.3s.09,0,.1,0C141.33,502.21,141.24,502.11,141.11,502ZM435.92,254.68c-.1,0-.25,0-.29.13-.63,1-1.78,1.41-2.42,2.37a.75.75,0,0,1-.84.38c-.7-.22-1.05.08-1.13.74a19.06,19.06,0,0,1-1.47,5.55,4.38,4.38,0,0,0-.23,1.8,2.74,2.74,0,0,1-.08,1.16,2.29,2.29,0,0,0,.1,2.17c1.54,4.21,3,8.44,4.55,12.65.48,1.3.49,2.76,1.37,4.19,1.13-4.19,2.19-8.14,3.33-12.36a23.74,23.74,0,0,1-2.84,2.68l-.25-.24a21.69,21.69,0,0,1,2.68-3.56,6.34,6.34,0,0,0,1.89-4.33,25.77,25.77,0,0,1-7.48,8.13,11,11,0,0,1,.59-2.4c.36-.57,1-1.11.16-1.86-.2-.16,0-.63.2-.92l1.15-1.62a5.49,5.49,0,0,0,.66-3.89c-1.14,1.25-1.59,3-2.93,4.11a1.06,1.06,0,0,1,0-1.26c1.13-1.76,2.23-3.56,3.38-5.31a8,8,0,0,0,1-4.16,37.53,37.53,0,0,0-2.38,3.57c-1.11,1.85-2.18,3.73-3.29,5.59-.17.3-.34.69-.9.56a1.91,1.91,0,0,1,.26-1.14c1.59-2.26,2.69-4.83,4.29-7.09.83-1.18,1.55-2.43,2.32-3.65a2.94,2.94,0,0,0,.22-2.62c-1.44,2.17-1.92,4.65-3.76,6.59a2.59,2.59,0,0,1,.47-2,18,18,0,0,0,1.94-3.81c.26-.08.35-.36.2-.48S436.07,254.58,435.92,254.68ZM218.7,266.23c1.18-.52,1.87-1.64,2.88-2.37a7.12,7.12,0,0,0,1.78-1.46c.15-.22.42-.56.1-.7-.75-.32-.32-.52-.05-.89a4.81,4.81,0,0,1,1.62-1.37,1.61,1.61,0,0,0,.94-1.6c0-1.67.21-3.33.27-5,.19-5.56.25-11.12.4-16.69,0-.55-.13-.79-.63-1a11.9,11.9,0,0,1-3.57-1.63c-.27-.21-.49-.65-1.06-.41.07,1,.18,1.93.23,2.91.17,3.55-.06,7.1-.12,10.64a98.06,98.06,0,0,1-1.1,11.87c-.32,2.27-.42,4.66-1.62,6.74a.9.9,0,0,0,0,.95c-.1-.1-.2-.1-.22,0s.05.12.08.19ZM282.59,162c-1.34,1.88-2.65,3.78-4,5.64a13.05,13.05,0,0,0-1.45,2.58c-1.51,3.45-3,6.88-4.55,10.33a42.81,42.81,0,0,0-2,5.07q-1.11,3.81-2.25,7.62c-.82,2.7-1.75,5.37-2.58,8.07-.67,2.16-1.26,4.35-1.89,6.52a10.32,10.32,0,0,0-.61,2.93c.44-.49,1.36-.45,1.38-1.25,0-1,.64-1.33,1.35-1.66.48-.23,1-.33,1.22-1,.63-1.72,1.44-3.36,2-5.09,1.61-4.78,3-9.62,5-14.27a125.52,125.52,0,0,0,4.69-12.24c1.36-4.34,3-8.61,3.92-13.07.09-.14.17-.34,0-.43S282.62,161.86,282.59,162Zm30-5.33c-.23-.1-1.09.44-.6-.33a40.79,40.79,0,0,1,3.09-4.9,1.07,1.07,0,0,0,.12-.44c-.38-.18-.68.46-1.09,0a6.36,6.36,0,0,1,1.66-2.41,17.29,17.29,0,0,0,1.93-2.27c1.38-2.31,2.65-4.69,4-7a69.92,69.92,0,0,1,4.18-6.77,36.15,36.15,0,0,1,7.76-7.81,5.67,5.67,0,0,1,2.87-1.38c-.11-.4-.29-.82-.48-.75-.71.24-1.17.17-1.33-.66-1.94-.75-3.87-1.69-6-.55a11.56,11.56,0,0,0-5.08,6.12c-.53,1.29-1.13,2.52-1.76,3.74-1.17,2.26-2.37,4.51-3.34,6.85-1.4,3.38-3.06,6.62-4.58,9.93-1.87,4.06-3.84,8.08-5.77,12.11-1.07,2.25-2.19,4.47-3.22,6.73-1.78,3.89-3.63,7.73-5.25,11.69-1.21,3-1.87,6.13-3.21,9.06a9.18,9.18,0,0,0-.68,2.39c-.47,3-.92,5.92-1.66,8.83a66.12,66.12,0,0,0-1.62,6.92c-.44,3.08-.95,6.15-1.32,9.24-.2,1.64-.63,3.31.18,4.93a.48.48,0,0,1-.06.61c-.78.6-.42,1.43-.41,2.15a31.51,31.51,0,0,1,.07,4.66,20.16,20.16,0,0,0,.69,7.76c.07.27.13.71.81.51,0-1.65,0-3.36,0-5.06a80.37,80.37,0,0,1,1-9.91c.22-1.5.7-3.07-.08-4.59-.1-.2,0-.57.18-.51,1.13.42.87-.5.92-1,.28-2.59.85-5.13,1.3-7.68.51-2.89.9-5.8,1.49-8.68a149.54,149.54,0,0,1,3.5-15.1,92.29,92.29,0,0,1,5.68-13.65c1.68-3.37,3.6-6.62,5.13-10.07.38-.87,1-1.67.95-2.71.1.11.19.11.23,0s-.05-.14-.08-.21Zm9-29.38a46.26,46.26,0,0,0-7.53,5.84,61,61,0,0,0-9.74,10.55,78.64,78.64,0,0,0-6.86,11.11c-.75,1.59-1.48,3.2-2.36,4.74a37.85,37.85,0,0,0-3.06,6.73,43.57,43.57,0,0,1-2,4.92,6.68,6.68,0,0,0-.8,2.15,37.48,37.48,0,0,1-1.3,4.92c-.83,3.45-1.74,6.87-2.58,10.31s-2,6.78-3,10.15c-.74,2.43-1.6,4.81-2.44,7.2-.14.39-.26.74,0,1.08.46.55.54,1.34,1.1,1.83.67.9.76,2.18,1.87,2.95.08-1.49-.16-2.67-1.55-3.29.33-.64-.65-1-.25-1.88,2.55,2.08,5.69,3,8.33,5.19.25-1.08.46-1.93.62-2.79.45-2.29.9-4.58,1.31-6.87.58-3.29,1.79-6.42,2.21-9.74a37,37,0,0,1,.94-5.25,62.83,62.83,0,0,1,3.24-8.71c.93-2.07,1.63-4.24,2.6-6.29q2.43-5.12,4.85-10.22c1.21-2.55,2.31-5.16,3.63-7.65,2.19-4.15,4.38-8.3,6.33-12.56,2-4.44,3.91-8.94,6.32-13.19a6.76,6.76,0,0,0,.36-.92c.2-.12.28-.29.11-.47S321.77,127.22,321.65,127.28ZM362.49,139c-.13,0-.32-.15-.37-.11s-.08.34.08.48c.42.72.88,1.42,1.25,2.16a9.51,9.51,0,0,0,4.32,4.19,2.46,2.46,0,0,1,1.35,1.93c-.81-.85-1.87-1-3.07-1.49a14.06,14.06,0,0,0,1,2.82c1.05,1.89,2,3.81,3.18,5.64,1.68,2.66,3.18,5.42,4.74,8.15a62.75,62.75,0,0,1,3.47,6.41c.49,1.13.8,2.45,1.9,3.26.32.24.35.68.51,1,1.61,3.34,3.15,6.72,4.87,10s2.85,6.49,4.46,9.66a40,40,0,0,0,2.15,4.1,17.26,17.26,0,0,1,2.18,4.46,43.86,43.86,0,0,0,1.83,5.16,37.65,37.65,0,0,1,2.25,7.64c.39,1.85.54,3.74.79,5.61.37,2.81.82,5.6,1.12,8.42.43,4.2.93,8.39,1.72,12.53.76,4,1.86,7.89,2.52,11.9,0,.25,0,.51.39.58.74.13,1.37.39.48,1.23a.49.49,0,0,0,0,.46,31.83,31.83,0,0,1,.71,3.73c.73,2.95,1.45,5.91,2.28,8.83a66.13,66.13,0,0,0,3.29,9.94,38.63,38.63,0,0,1,2.13,4.68,82.2,82.2,0,0,0,4.81,11.15A72.23,72.23,0,0,1,425,313a32.06,32.06,0,0,1,.8,6.09c0,.51.1,1,.15,1.53a7.63,7.63,0,0,0,1-3.14c.31-1.81.23-3.66.59-5.47a21.38,21.38,0,0,0,.27-7.48c-.23-1.48.2-3.16-1.07-4.4a.68.68,0,0,1-.09-.63c.65-1,0-1.79-.15-2.68-.29-1.41-.76-2.77-1.11-4.17-1.12-4.47-2.09-9-3.22-13.44a117.57,117.57,0,0,0-5.5-17.81,38,38,0,0,1-2.44-6.87c-.59-2.73-1.54-5.33-2.3-8-.85-3-2.36-5.74-3-8.8-.47-2.12-.78-4.25-1.14-6.38-.75-4.44-1.27-8.91-1.9-13.37-.46-3.19-.69-6.42-1.73-9.5a26.49,26.49,0,0,1-.93-4.22c-.45-2.85-.87-5.7-1.45-8.54-.81-3.94-2.44-7.61-3.33-11.52a9.62,9.62,0,0,0-.66-2.05,41.34,41.34,0,0,1-2.45-6.73A89,89,0,0,0,391,164.2c-1.61-3.65-3.23-7.3-4.73-11-1.08-2.67-1.83-5.49-3-8.13a92.23,92.23,0,0,0-6.2-11.17,40.06,40.06,0,0,0-5.64-7.17c-.43-.44-.79-.93-1.22-1.36a25,25,0,0,0-9.85-6.39,4.73,4.73,0,0,0-3.95.43,19.38,19.38,0,0,1-3.72,2.1c-.52.15-1.5.89-1.1,1.58.81,1.42,1.54,3,3,3.88,3.05,1.86,5.85,4.1,9,5.82a2.23,2.23,0,0,1,1.16,1.89,22.81,22.81,0,0,0-4.37-2.79c-1.47-.77-2.74-1.91-4.48-2.7.11.62,0,1,.3,1.33a6,6,0,0,0,1.71,1.55c1,.48,1.95,1,2.92,1.48.24.12.65.19.44.72-.95,0-1.73-.82-2.75-.77a7,7,0,0,0,3.14,3.61,36.47,36.47,0,0,1,6.76,5.25c.31.33.67.6.31,1.18C366.73,141.93,364.67,140.38,362.49,139ZM329.7,115.45a9.38,9.38,0,0,0,1.07,2.78c.15.29.36.72.59.76,1.1.17,2.07.91,3.32.87a34.54,34.54,0,0,1,.48-4.33,1.52,1.52,0,0,0-1.45,0,5,5,0,0,1-3.81-.29c-1-1.86-.83-2.27,1.25-2.62a14.42,14.42,0,0,0,4.27-1.69c-.24-.17-.37-.32-.51-.34a9.22,9.22,0,0,0-5,.23,5.9,5.9,0,0,1-1.54.5,1.49,1.49,0,0,1-1.51-.8,1.59,1.59,0,0,1,.67-1.72,6.53,6.53,0,0,1,1.06-.43,12.23,12.23,0,0,1,4.69-.61c1.05.07,2.18.3,3.17-.82a3,3,0,0,0-2.27-.73A22,22,0,0,0,331,107a6.82,6.82,0,0,1-4.17.14c-.34-.09-.65-.21-.64-.62a1,1,0,0,1,.5-1,4.12,4.12,0,0,1,.78-.23,18,18,0,0,1,5.22-.52,6.67,6.67,0,0,0,3.62-.79,7.34,7.34,0,0,0-2.47-1.3,25.94,25.94,0,0,0-4.34-.9,52.66,52.66,0,0,0-6.64-1,49.25,49.25,0,0,0-12.71,1.44,110.66,110.66,0,0,0-21.9,6.88c-3.2,1.43-6.32,3-9.4,4.7a82.3,82.3,0,0,0-9.63,6.58,92.59,92.59,0,0,0-12.38,11.45,36.38,36.38,0,0,0-4.77,6.13c-2.35,4-4.61,8.09-6.89,12.15-1.06,1.88-2.07,3.79-3.13,5.67-.21.37-.48.93-1,.53s-.78,0-1,.33c-.78,1.21-1.48,2.47-2.3,3.66a32.28,32.28,0,0,0-3.37,5.72,58.54,58.54,0,0,1-3,6.68,29.77,29.77,0,0,0-1.78,3.9,58.66,58.66,0,0,0-2.06,6.68c-.89,3.5-2,6.92-2.95,10.41a23.81,23.81,0,0,1-1.37,4.44,24.11,24.11,0,0,0-1.75,7.57c-.42,3.3-1.08,6.56-1.57,9.84a72.87,72.87,0,0,0-.57,7.81c0,.26,0,.56.38.61,1.36.18,2.09,1.34,3.11,2.06s2,1.83,3.1,2.66a6.87,6.87,0,0,1,2.74,3.14l.38-.32c1.29-.94,2-.83,3.4-.07a19.76,19.76,0,0,1,3.72,2.68.71.71,0,0,0,.88.18c1.55-.77,3-1.63,3.47-3.53a36,36,0,0,0,1.06-4.18,41.2,41.2,0,0,1,2.36-8c.14-.4.51-.77.26-1.25a2.41,2.41,0,0,1,.36-2.37c1.24-2.21,2.37-4.5,4.28-6.28,1.21-1.13,2.42-2.26,3.71-3.3a2.8,2.8,0,0,0,1-1.64c.32-1.4.7-2.79,1.09-4.18,1.08-3.84,2.15-7.68,2.93-11.59.85-4.25,1.75-8.48,2.64-12.71.94-4.41,2.22-8.72,3.49-13,.44-1.49.93-3,1.23-4.49a40,40,0,0,1,2.94-8.48c.72-1.64,1.86-3,2.73-4.56,2.22-3.95,4.47-7.9,7.64-11.19a59.52,59.52,0,0,1,4.38-4.73c1.6-1.35,3.34-2.53,5-3.81a16,16,0,0,1,5.91-2.75,41.5,41.5,0,0,0,7.57-2.68,11.6,11.6,0,0,1,4.37-1.37,3.63,3.63,0,0,0,2.77-1.49c1.53-1.87,3.63-3,5.55-4.35a7.6,7.6,0,0,1,2.12-.88,18.2,18.2,0,0,1,6.14-.66,6.92,6.92,0,0,1,6,2.88A9.83,9.83,0,0,0,329.7,115.45ZM221.84,279.76c-.73-.28-1.06.8-2,.47l2.2-1.1a4.21,4.21,0,0,0,1.8-1.41c1.39-2.19,2.95-4.26,4.14-6.6a1.87,1.87,0,0,0-.07-2.24c-1.07-1.54-2.38-3-2.29-5.28-1.92,1.62-3.76,2.95-5.32,4.56a29.9,29.9,0,0,0-3.85,4.1,1.63,1.63,0,0,0-.38,1.05c.21,2.84-.72,5.49-1.47,8.16s-1.71,5.51-2.3,8.35a12.17,12.17,0,0,1-.62,3,16,16,0,0,0-1.08,2.58,92.43,92.43,0,0,1-3.77,10.83,54,54,0,0,0-2.21,5.56c-.37,1.1-.55,2.28-1,3.36q-3,7.66-6,15.31c-.76,1.91-1.77,3.71-2.55,5.6a91.67,91.67,0,0,1-4.77,9.63c-1.33,2.38-3,4.52-4.35,6.89a50,50,0,0,1-4.87,7.31A48.89,48.89,0,0,0,178,364c-3.27,5-6.66,9.91-8.86,15.53a33.77,33.77,0,0,0-1.36,3.36c-.78,3-2.12,5.69-3.13,8.56-2,5.69-4.15,11.32-5,17.34-.43,2.91-1.41,5.7-1.64,8.65s-.57,6.2-.94,9.29c-.28,2.34.16,4.66,0,7a57.78,57.78,0,0,1-.72,7.32,56.82,56.82,0,0,0-1.37,11.39,91.47,91.47,0,0,0,.54,12.82,54.61,54.61,0,0,0,1,6.77,86.18,86.18,0,0,1,2.17,10.62c.33,2.44,1.05,5-.08,7.42,0,0,.12.16.23.29a26.08,26.08,0,0,1,4-1.5,54.36,54.36,0,0,0,7.56-2c3.69-1.38,7.44-2.6,11.22-3.63,4-1.08,7.79-2.58,11.74-3.71,4.52-1.3,9.13-2.25,13.57-3.82,2-.69,4-1.13,5.94-1.9a99.5,99.5,0,0,1,10.36-3.13,29,29,0,0,0,9-3.94c1.48-1,3-2,4.56-2.92a40.09,40.09,0,0,0,8.2-6.35,53.83,53.83,0,0,0,9.81-12.68,4.82,4.82,0,0,0,.86-2.62,2.54,2.54,0,0,1,.93-1.89,13.41,13.41,0,0,0,2.51-4c1.08-2.25,1.74-4.68,2.67-7a2.66,2.66,0,0,0,.3-1.76c-1.27.94-1.55,2.39-2.37,3.44a34,34,0,0,0-2.12,3.55c-.72,1.18-1.48,2.35-2.25,3.49a24.61,24.61,0,0,1-2.2,3.5c-.41-1.61-.37-1.67.6-3.12A62.87,62.87,0,0,0,257,433c1-1.8,2.11-3.49,3.23-5.17,1.79-2.67,3.25-5.52,4.78-8.34a15,15,0,0,0,1.41-5.81c-3.39,6.55-7.43,12.66-11,19.14a1.74,1.74,0,0,1-.28-2.44,56.15,56.15,0,0,1,3.79-6.2,12,12,0,0,0,1.85-3,84.36,84.36,0,0,1,4.88-9.27,18.5,18.5,0,0,0,2-4c.64-2.46.95-5,1.38-7.54,0-.11.09-.31-.24-.37-1.53,2.36-2.67,5-4.22,7.41a27.46,27.46,0,0,0-1.75,2.6,82.14,82.14,0,0,1-4,7.25c-1.63,2.64-3.19,5.32-4.77,8-.14.24-.2.58-.54.52s-.33-.53-.45-.81.13-.51.27-.74c1.27-2,2.6-4,3.79-6.05a68.82,68.82,0,0,0,4.5-7.93,20.21,20.21,0,0,1,2.61-4.62,58.48,58.48,0,0,0,5-8.21,4.07,4.07,0,0,0,.47-1.24q.82-5.28,1.59-10.57c.05-.34.19-.8-.43-.94a2.54,2.54,0,0,0-.35.49,106,106,0,0,1-5.13,10.08c-1.9,3.25-3.66,6.59-5.48,9.89-.16.31-.35.67-.72.51s-.13-.56,0-.83a11,11,0,0,1,.6-1.19q2-3.56,4-7.1a131.49,131.49,0,0,0,6.76-13.15c1-2.29,1.67-4.63,1.1-7.12a10.87,10.87,0,0,1,0-3.94,1.37,1.37,0,0,0-.07-.45c-.4,0-.41.33-.53.57-1.45,3-2.72,6.1-4.41,8.95-2.11,3.58-3.77,7.4-5.91,11-2.42,4-4.48,8.29-6.69,12.45-.23.43-.38.91-.95.95a.53.53,0,0,1,0-.66c1.63-3.15,3.22-6.32,4.92-9.43,1.2-2.19,2.67-4.22,3.82-6.44,2.83-5.45,5.56-11,8.3-16.46a8.69,8.69,0,0,0,1.21-3.24,53.2,53.2,0,0,0,0-9.36c0-.25.21-.67-.35-.81-1.41,3-2.59,6.1-4.07,9.07-2.39,4.83-4.93,9.56-7.49,14.29-1.71,3.17-3.67,6.2-5.24,9.46-1.83,3.8-3.85,7.5-6,11.11-1.19,2-2.3,4-3.46,6.06-.24.43-.43,1-1.14.87a1.73,1.73,0,0,1,.42-1.33c1.84-2,2.72-4.67,4.2-6.95,2.32-3.57,3.85-7.6,5.94-11.31s4.3-7.36,6.3-11.14c1.08-2.05,2.06-4.19,3.3-6.15s1.52-4.38,2.92-6.31a7.91,7.91,0,0,0,1.29-3.48,3.35,3.35,0,0,1,.67-1.84c1-.9,1.1-2.08,1.45-3.22a1.79,1.79,0,0,0-.8-2.2c-.48,1.31-.9,2.51-1.36,3.7a64,64,0,0,1-4.18,9.24,58.62,58.62,0,0,0-3.24,6.18,119.31,119.31,0,0,1-6.85,12.76c-1.75,2.95-3.55,5.89-5.31,8.83-2.66,4.46-5.13,9.05-7.67,13.59-.36.63-.77,1.22-1.18,1.81a.63.63,0,0,1-.73.27c-.32-.14-.22-.48-.09-.72a13.08,13.08,0,0,1,.87-1.6,31.47,31.47,0,0,0,2.54-3.87q2.46-4.64,5.05-9.19c.71-1.25,1.61-2.38,2.34-3.62q3.42-5.9,6.76-11.82a49.13,49.13,0,0,0,2.4-4.75c1.16-2.7,2.3-5.41,3.71-8a21.36,21.36,0,0,0,1.57-2.73c1.27-3.39,3.05-6.54,4.2-10,.51-1.49.44-1.82-1.1-2.73a50.15,50.15,0,0,1-2.17,6.47,24,24,0,0,1-5.64,8.9,3.62,3.62,0,0,0-.89,1.36,39.32,39.32,0,0,1-2.42,5.66c-2.39,3.86-4.43,7.94-6.94,11.73a105.76,105.76,0,0,0-6.53,12,8.21,8.21,0,0,1-.65,1.16.66.66,0,0,1-.85.32c-.48-.24-.12-.53,0-.8,1.8-3.68,3.75-7.29,5.72-10.87,1.12-2.05,2.56-3.89,3.74-5.9,1.73-2.95,3.35-6,5-9a8.25,8.25,0,0,0,1.18-2.82c-.12,0-.18-.09-.22-.07a6.9,6.9,0,0,0-.75.3A10.69,10.69,0,0,1,250,373.4a2.39,2.39,0,0,0-2.57,1.54c-1.31,2.45-2.56,4.92-3.82,7.39-2.42,4.73-5.1,9.32-7.69,13.95a2.2,2.2,0,0,1-1.54,1.35.76.76,0,0,1,0-1c.76-1.22,1.26-2.6,2-3.82q2.32-3.72,4.46-7.58c2-3.59,3.69-7.32,5.5-11,.33-.68.08-1-.43-1.24-1.18-.54-2.38-1-3.58-1.56a56.67,56.67,0,0,0-3.77,7,4.64,4.64,0,0,1-1.13,1.63c-.32.27-.64.19-.67-.28a2.91,2.91,0,0,1,.47-1.72c1.33-2.29,2.59-4.63,3.91-7a20.73,20.73,0,0,1-6.59-8.48,40.93,40.93,0,0,1-2.59-10c-.7-5.26-.43-10.58-.4-15.87,0-3.29.16-6.58.14-9.86a36.53,36.53,0,0,1,.3-6.63c.75-4.26,1.78-8.48,2.37-12.77a5.34,5.34,0,0,1,.21-1c1.35-3.7,2.35-7.54,4.1-11.08a1.23,1.23,0,0,0,0-1.34c-1.56-2.86-3.12-5.75-3-9.2a5.66,5.66,0,0,0-.27-1.31,33.32,33.32,0,0,0-2.29-5.88,18.94,18.94,0,0,0-1.73-3.42,6.78,6.78,0,0,0-2.08,2c-1.18,1.54-2.39,3-3.68,4.49a11.69,11.69,0,0,0-1.82,2.56,46.06,46.06,0,0,0-3.76,9.2c-.75,3.13-1.53,6.24-2.28,9.37a7.31,7.31,0,0,0-.19,1.48,10.15,10.15,0,0,1-.61,3.07,14.32,14.32,0,0,0-.78,4.07c0,1.89,0,3.78-.09,5.67,0,1.09-.22,2.18-.34,3.27a12,12,0,0,1-.69-4.24c.08-4.72.19-9.45.41-14.18a38.06,38.06,0,0,1,2.82-12.6c1.15-2.85,2.62-5.5,4-8.21.11-.19.25-.41,0-.56C222.17,279.54,222,279.7,221.84,279.76Zm177,105.35c-1-1.46-1-3.16-2-4.47a4,4,0,0,0-.69,2.3c-.27,1.35-1.45,2.41-1.15,3.93a.45.45,0,0,1-.37.49c-.64.14-.76.74-1,1.2-.66,1.09-1.27,2.21-2,3.24-2.68,3.65-5.47,7.24-8,11-.82,1.23-2.14,2.09-2.62,3.59-2.6,2.61-4.18,6-6.16,9-1.28,2-2.17,4.22-3.39,6.25s-2.39,4.16-3.82,6.12a52.65,52.65,0,0,0-3.52,5.4,131,131,0,0,0-6.89,13.25c-.39.92-.73,1.86-1.16,2.77a76.06,76.06,0,0,0-4,10.19c-.81,2.65-1.51,5.34-2.46,8a91.17,91.17,0,0,0-3.67,11.17c-.66,2.86-1.21,5.74-1.93,8.59A56.64,56.64,0,0,0,342.42,505,52.64,52.64,0,0,0,347,524c1.14,2.45,2.17,5,3.18,7.48a73.46,73.46,0,0,0,4,8.38c1.24,2.21,2.88,4.2,4.25,6.35a1.34,1.34,0,0,0,.84.73,2.37,2.37,0,0,0,0-1.49c-.56-1.75-.61-3.6-1.2-5.36-.68-2-.56-4.17-.86-6.26a79.48,79.48,0,0,1-.79-16.16,22.39,22.39,0,0,1,.34-4.47,85.37,85.37,0,0,1,3.54-11.07,74.06,74.06,0,0,1,4.43-9.67,57.15,57.15,0,0,0,3.12-5.69,54.18,54.18,0,0,1,5.35-8.78,36.84,36.84,0,0,0,2.37-3,54,54,0,0,1,4.08-5.84,39.9,39.9,0,0,1,4.58-5.46c2.65-2.49,5.2-5.08,7.89-7.53a27.4,27.4,0,0,1,6.32-4.73,39.8,39.8,0,0,0,4-2.21c2.88-1.83,6-3.17,8.86-5.05,3.3-2.17,6.92-3.79,10.37-5.71a81,81,0,0,0,12.46-8.32c.85-.7,1.67-1.44,2.55-2.1,2-1.53,4-3.07,5.94-4.74a35.8,35.8,0,0,1,9.75-6c.24-.11.71-.19.41-.67-.53-.84.23-.88.62-.87,1.91.06,3.81-.16,5.71-.22a12.22,12.22,0,0,0,5.84-1.27,5.86,5.86,0,0,1,1.32-.67,8.4,8.4,0,0,0,4.27-3.17,40,40,0,0,0,5.37-7.75,70.61,70.61,0,0,0,3.26-7.8,58.75,58.75,0,0,0,2.68-12.35c.45-3.19.93-6.38,1.06-9.61a80.89,80.89,0,0,0-1-15.3c-.55-3.57-1-7.16-1.77-10.68-.56-2.61-.95-5.25-1.62-7.83s-.87-5.06-1.6-7.53c-1.57-5.29-2.8-10.69-4.91-15.81-.64-1.53-1.27-3.07-1.86-4.62-1.86-4.87-3.64-9.77-5.56-14.61-1.6-4-3-8.11-4.53-12.17-1.78-4.78-3.27-9.67-5.05-14.46-2-5.25-3.69-10.57-6.28-15.56-.94-1.81-1.2-3.9-1.87-5.81a61.59,61.59,0,0,1-2-8.2c-.23-1.18.05-2.4-.35-3.7l-1.22,1.08c-.31.28-.73.49-1.05.23-1.14-.94-2.77-1.41-3-3.14a2,2,0,0,0-2,2.08,42.67,42.67,0,0,0-.37,6.59c1-.71,1.78-1.33,2.62-1.92a2.33,2.33,0,0,1,2.78-.11,4.64,4.64,0,0,1,2,3.7,50.75,50.75,0,0,1,.13,6.17c-.32,3.48-.51,7-.75,10.47a15.42,15.42,0,0,1-.84,3.72q-1,3-1.81,6c-.54,2-.93,4-1.51,6-.93,3.19-1.78,6.41-2.92,9.54a2.5,2.5,0,0,0-.08,2.09,34.63,34.63,0,0,1,1.27,3.76c1.2,2.92,1.34,6.05,1.93,9.09.41,2.1.3,4.3,1.61,6.17a4.72,4.72,0,0,1,.44,1.6,8,8,0,0,0,.7,2,14.09,14.09,0,0,1,1.8,5c.1.88-.15,1.93.23,2.63.76,1.38.76,2.85,1.08,4.29a56.63,56.63,0,0,1,.75,7.45c.23,2.74-.29,5.52,0,8.3.18,1.91-.48,3.73-.91,5.56-.38,1.55-1,3.06-1.25,4.64a25.17,25.17,0,0,1-2.23,7.61c-1.64,3.23-3.41,6.34-6.24,8.66-2.4,2-4.89,3.7-8.12,3.93a30.21,30.21,0,0,1-5.21-.05,11.43,11.43,0,0,1-6.52-2.38,10.78,10.78,0,0,1-3.61-4.21c-2.12-5.44-3.93-11-4.1-16.92a12,12,0,0,0-.39-4c-.7,1.77-1.26,3.17-1.9,4.54a2.51,2.51,0,0,0,.2,1.78,58.11,58.11,0,0,0,2.85,7.1,1.47,1.47,0,0,1-.11,1.9,9.42,9.42,0,0,1-.51-.95c-.66-1.65-1.28-3.32-2-5-.34-.81-.77-1.58-1.17-2.37a.34.34,0,0,0-.38-.23c-.31.05-.28.29-.27.5,0,.77.59,1.3.87,2a86.88,86.88,0,0,0,5.17,10.79,1.18,1.18,0,0,1-.15,1.54c-2.5-4.33-4.3-8.87-6.67-13.15a3.06,3.06,0,0,0-.55,3.62c.9,2.09,1.72,4.21,2.69,6.27,1.87,3.95,3.45,8.05,5.8,11.75.26.42.72.95.08,1.26s-.75-.49-.94-.85c-2.38-4.57-4.42-9.31-6.65-13.95-.77-1.59-1.59-3.16-2.37-5.08a18,18,0,0,1-2,2.92c-.28.31-.14.56,0,.88.88,1.54,1.77,3.08,2.57,4.66,2.81,5.54,5.76,11,9.07,16.25a6.29,6.29,0,0,1,.62,1.54c.1.3.14.7-.29.81s-.46-.27-.57-.5c-2.72-5.52-6-10.75-8.83-16.2-.92-1.76-2-3.44-3.05-5.15-.14-.23-.27-.54-.6-.46a.72.72,0,0,0-.5.6c-.11,1.14-.41,2.32.14,3.41,2.08,4.1,3.62,8.48,6.23,12.3a5.71,5.71,0,0,1,.47.88c.17.37.26.82-.12,1.06-.55.34-.64-.28-.79-.56-.75-1.42-1.42-2.89-2.18-4.31-1.19-2.24-2.16-4.61-3.57-6.77a1.59,1.59,0,0,0-.43,1.06,13,13,0,0,0,1.74,8.16c.34.58.62,1.18,1,1.74.23.38.36.79-.05,1s-.6-.2-.81-.54a20.54,20.54,0,0,0-1.82-3.21c-.28,1.47-.58,2.75-.76,4.06-.08.58-.38,1.29.07,1.78,1.12,1.22,1.14,2.86,1.75,4.27A1.68,1.68,0,0,1,398.88,385.11ZM350.49,121.52a3.8,3.8,0,0,1,1.68-1.54,42.29,42.29,0,0,1,5.1-2.62,4.71,4.71,0,0,1,3.22-.13,24.72,24.72,0,0,1,9.4,5.93c1.23,1.28,2.44,2.57,3.74,3.76a22.36,22.36,0,0,1,2.46,2.69c1.87,2.38,3.47,5,5.31,7.37a43.21,43.21,0,0,0,4.24,4.51c3.76,3.71,7.74,7.24,10.84,11.59a38,38,0,0,1,4.53,7.33,34.49,34.49,0,0,0,3.8,7.52c1.61,2.15,2.39,4.76,3.38,7.21,1.09,2.7,1.82,5.56,2.81,8.32,1.21,3.39,2.6,6.71,4,10,2,4.82,2.74,10.05,4.61,14.92.84,2.17,1.13,4.51,2.05,6.67.85,2,1.3,4.13,2.11,6.12,1,2.55,2.27,5,3.2,7.63a11,11,0,0,0,2.59,4.38c.91.87.89.93,2,.09.29-.23.59-.37.87-.13,1,.83,1.86.27,2.73-.11a4.9,4.9,0,0,1,2.84-.61,2.65,2.65,0,0,0,1.94-.5c.63-.35,1.36-.41,1.87-1.1,1.25-1.68,2.61-3.29,3.95-4.9.55-.66,1.37-1.09,1.44-2.14a1.09,1.09,0,0,1,1-.93c.24,0,.66-.21.39-.51-.5-.54,0-.75.2-1.1.9-1.5,1.94-2.89,2-4.81a16,16,0,0,1,.34-2.81,31.24,31.24,0,0,0-.38-12.11c-.7-3.7-2-7.26-3-10.9a31.81,31.81,0,0,0-2.86-7.09c-1.91-3.43-4-6.78-6-10.18-1.11-1.9-2.4-3.7-3.34-5.72-1.17-2.51-2.48-5-3.89-7.34-1.62-2.73-3.71-5.11-5.43-7.76A66.45,66.45,0,0,0,418,142.22c-4-4.1-8.31-7.93-12.66-11.68-3.18-2.73-6.13-5.74-9.67-8a12.59,12.59,0,0,1-1.87-1.36,28.51,28.51,0,0,0-6.65-4.85c-1.5-.8-2.84-1.87-4.32-2.73s-3-1.57-4.52-2.28c-2.12-1-4.23-2-6.42-2.92a63.36,63.36,0,0,0-9.18-3.06c-4.08-.94-8.27-.74-12.4-1.17-2-.21-4,0-6-.71a1.84,1.84,0,0,0-2.13.42,15.83,15.83,0,0,0,4.8.8,3,3,0,0,1,1.87.51c.44.37,1.11.67.84,1.45a1.28,1.28,0,0,1-1.44.86c-1.09,0-2.19-.1-3.29-.11a3.83,3.83,0,0,0-3.05,1,3.25,3.25,0,0,0,2.08,1.07l3.09.34a5.51,5.51,0,0,1,2.2.66c.54.31,1.14.7.88,1.4s-1,.41-1.44.24c-1.81-.66-3.59-.22-5.36,0-.45.06-1.17.14-1.14.74s.7.58,1.18.6a11.08,11.08,0,0,1,4.11,1,1,1,0,0,1,.73,1c0,.62-.42.7-.84.84a18.75,18.75,0,0,1-4.22.52c-1.62.17-1.85.61-1.25,2.36.63-.09,1-.6,1.48-.94,2.23-1.6,3.69-1.41,5.31.73C349.3,119.73,349.8,120.52,350.49,121.52Zm-46.15-.91a1,1,0,0,0-1,.08c-2,.77-3.92,1.7-5.88,2.53A55.94,55.94,0,0,0,283,132.53,52.12,52.12,0,0,0,271.48,147a80.21,80.21,0,0,0-4.11,9.24c-1.43,3.57-1.45,7.51-2.38,11.23-.66,2.64-1.11,5.33-1.84,7.94-1.07,3.85-2,7.74-3,11.61-.75,2.9-1.38,5.83-2.06,8.75-.55,2.39-1.38,4.69-1.92,7.08-.42,1.9-.85,3.81-1.45,5.64-.72,2.23-1.39,4.46-1.9,6.73-.79,3.47-1.75,6.88-2.76,10.28a43.34,43.34,0,0,1-6,12c-3.89,5.72-7.55,11.59-11.65,17.16-.11.15,0,.3.12.41a.58.58,0,0,0,.57-.22c2.23-2.14,4.64-4.07,6.79-6.3,1.46-1.51,3-3,4.51-4.4a37.69,37.69,0,0,0,7.73-9.68,84.21,84.21,0,0,0,6.37-15.32c.73-2.19,1.37-4.43,2.11-6.61.93-2.72,1.86-5.47,2.67-8.22,1.15-3.89,2.28-7.78,3.45-11.67a120.67,120.67,0,0,1,4.95-14.29c1.61-3.59,3.27-7.14,5.14-10.59a32.81,32.81,0,0,0,2-3.24,21.14,21.14,0,0,1,2-3.46c1.9-2.92,4.48-5.49,4.87-9.25a1.4,1.4,0,0,1,.19-.46c1.35-2.49,2.26-5.19,3.51-7.73.44-.91.6-2.07,1.83-2.4.17-.05.27-.45.38-.7a65.47,65.47,0,0,1,4.62-8.62c2.42-3.69,4.29-7.79,7.72-10.73A2.08,2.08,0,0,0,304.34,120.61Zm25.36-1.54a11.39,11.39,0,0,0-2.63-4.15,5.91,5.91,0,0,0-4.63-2.2,19.57,19.57,0,0,0-5.67.54,14.56,14.56,0,0,0-7.33,4.68c-.36.42-.72.83-1.1,1.22-1.47,1.49-3,3-4.39,4.49-2.62,2.8-4.5,6.14-6.52,9.36A83,83,0,0,0,291,145.72c-1.27,3.12-2.82,6.12-4,9.3-.84,2.29-1.77,4.58-2.38,6.9-.87,3.28-1.8,6.52-2.84,9.74-1.75,5.43-3.48,10.88-4.73,16.46-.86,3.85-1.79,7.69-2.82,11.49-.54,2-.66,4.09-1.37,6-2.12,5.72-4.43,11.36-7.09,16.84-.44.9-1,1.73-1.5,2.58-1.05,1.69-2.2,3.31-3.15,5.07-1.46,2.73-3,5.39-4.63,8-1.74,2.89-3.84,5.54-5.61,8.41a29,29,0,0,1-3.24,4.61c-1.37,1.45-2.79,2.84-4.15,4.3-.49.52-1.11.87-1.11,1.88,0,.7-1.37.39-1.81,1.17a12.5,12.5,0,0,1-1.46,1.8q-5.26,6-9.95,12.42a2.36,2.36,0,0,0-.73,1.77,2.36,2.36,0,0,0,1.58-1.2,28.32,28.32,0,0,1,4-3.81c3.06-2.7,6.42-5,9.38-7.84.88-.84,1.67-1.78,2.62-2.53a45.78,45.78,0,0,0,8.7-9.47c2.2-3.11,4.23-6.35,6.22-9.62,2.73-4.51,5.41-9,7.73-13.77,2.1-4.27,4.13-8.57,6.38-12.77a3.58,3.58,0,0,0,.64-2c-.13-1.15-.27-2.29-.43-3.43s-.13-1.26.95-1.4c.48-.07.64-.1.85-.64.62-1.61.88-3.31,1.49-4.92,1.91-5,2.68-10.31,3.9-15.5a78.83,78.83,0,0,1,2.44-8.29c1.41-4,2.94-7.9,4.41-11.85a97.41,97.41,0,0,1,5.77-12.89,81.41,81.41,0,0,1,7.82-11.93,50.67,50.67,0,0,1,6.11-7,19.2,19.2,0,0,0,2.71-2.09c-1.58.14-2.78,1.78-4.43.6a6.84,6.84,0,0,0,1.8-.72c2.08-1.65,4.58-2.31,6.95-3.29.56-.23,1.27-.26,1.73-.88-1.14-.39-1.87.39-2.73.64-.54.16-.82.24-1-.52s.07-.78.53-.88c2.23-.47,4.43-1.06,6.68-1.39a3.74,3.74,0,0,0,2.67-1.45C325.42,121.54,326.91,119.47,329.7,119.07Zm106,203.48c-1.13-1.25-.55-2.2.35-3.12s1.3-2.42,1.87-3.67a1.11,1.11,0,0,0-.05-1c-.46-1-.72-2.09-1.18-3.11a50.75,50.75,0,0,0-4.5-7.37,10.82,10.82,0,0,0-2.92-2.18,2.83,2.83,0,0,0,0,.5,46.65,46.65,0,0,1,.61,7,72,72,0,0,1-.35,8.17c-.37,2.79-.53,5.6-1.13,8.36-.24,1.08-.31,2.2-.58,3.28-.45,1.74-.38,3.65-1.57,5.18s-2.51,3.44-3.82,5.12a1.94,1.94,0,0,1-1.55,1c1.6-3.78,3.94-7.14,4-11.57-.73.7-.7,1.65-1.53,1.87a1.12,1.12,0,0,1,.38-1,6.58,6.58,0,0,0,1.23-4.34,56.8,56.8,0,0,0-.38-6c-.14-1.43-.22-2.88-.49-4.29a53.14,53.14,0,0,1-1.25-7.2c0-.35.05-.76-.54-1,0,1.13-1,1.73-1.16,2.73-.33,1.93-1.22,3.68-1.69,5.57a19.86,19.86,0,0,1-.82,2.87c-1.13,2.7-2.19,5.44-3.16,8.21a20.65,20.65,0,0,1-2,4.7,5.13,5.13,0,0,0-1,2.6,42.85,42.85,0,0,0,.13,7.51c.21,1.49.65,2.93.77,4.41A29.6,29.6,0,0,0,416,356a10.61,10.61,0,0,0,4.55,5.32,9.07,9.07,0,0,0,6.35.88,11.76,11.76,0,0,0,7.64-5A28,28,0,0,0,438.78,347c.7-3.6,1.73-7.12,1.66-10.85A118.15,118.15,0,0,0,439,319.26C437.82,320.33,437.28,322,435.73,322.55ZM245.26,364.76a4,4,0,0,1,1.08-2.75,46.28,46.28,0,0,0,4.3-6.9,48.23,48.23,0,0,1,3-5.16,53.06,53.06,0,0,0,4.49-8.5c.17-.37.52-.74.24-1.24-.5-.87-1-1.76-1.49-2.71a3.64,3.64,0,0,0-.44.49q-1.94,3.3-3.55,6.78a3.43,3.43,0,0,1-.89,1.38.52.52,0,0,1-.6.11.56.56,0,0,1-.3-.55,2.71,2.71,0,0,1,.22-.8A61.41,61.41,0,0,1,255,338c.76-1.12,1.38-2.18.53-3.59a16.75,16.75,0,0,1-.69-2.21c-.14-.36-.11-.91-.65-1a21.88,21.88,0,0,0-2.17,4.29c-.25.55-.48,1.38-1.21,1s-.15-1,.1-1.49c.77-1.53,1.56-3.06,2.34-4.59A1.86,1.86,0,0,0,253,328c-1.16,1.13-1.61,2.86-3.24,3.84a4.75,4.75,0,0,1,.71-2.26c.46-.81,1.05-1.54,1.46-2.4a1.77,1.77,0,0,0-.1-2.15c-.57.47-.71,1.51-1.86,1.5a4.74,4.74,0,0,1,.82-2.08,1.65,1.65,0,0,0,.3-2,13.16,13.16,0,0,1-.8,1c-.28.3-.51,1-1,.69s0-.75.16-1.12a5.56,5.56,0,0,1,.91-1.76c.22-.28.39-.55.14-.89-.25-.09-.4.06-.58.19s-.47.37-.73.14,0-.63.17-.83a2.18,2.18,0,0,0,.41-2.46c-.46-1.6-.84-3.22-1.28-4.83a8,8,0,0,0-.44-2.1,16.49,16.49,0,0,1-1.44-4.06c-.65-2.46-1.3-4.91-1.87-7.39-.25-1.13-.34-1.23-1.29-.56a3.09,3.09,0,0,0-.77.62c-2.32,3-4.23,6.21-4.63,10.13a65.2,65.2,0,0,1-.9,7.28,56.42,56.42,0,0,0-1,9.59c-.17,3.28-.17,6.57-.4,9.85a72.32,72.32,0,0,0-.53,8.32,25.48,25.48,0,0,0,1.11,7.35,58.49,58.49,0,0,0,3.86,8.44A9.2,9.2,0,0,0,245.26,364.76Zm140.56-128.4a8.15,8.15,0,0,0,1-2.48c.35-1.2.22-2.44.48-3.64a25.81,25.81,0,0,0,.4-8.59,8.6,8.6,0,0,1-.23-3.14,6.81,6.81,0,0,0-.14-3.12c-.2-1-.35-2-.62-2.92-.87-3-.57-6.33-2-9.25a.47.47,0,0,1,0-.17c-.2-3.92-.7-7.81-1.23-11.69-.61-4.41-1.24-8.82-3.26-12.85-.52-1-.7-2.28-1.51-3.12a10.12,10.12,0,0,1-1.37-2,65,65,0,0,1-3.08-6.06,87.76,87.76,0,0,0-5.76-9.9c-.15-.24-.38-.49-.37-.73.07-1.69-.84-3-1.58-4.38a108.39,108.39,0,0,0-6.31-9.58,8.36,8.36,0,0,1-1.54-3.64,8.92,8.92,0,0,0-1.25-3.38,5,5,0,0,1-.75-1.47c-.31-1.46-.84-2.64-2.4-3.08-.29-.08-.6-.55-.18-.74.66-.3.45-.59.18-1-1.21-1.71-2.41-3.43-3.65-5.12-.18-.25-.53-.36-.58-.74-.26-1.82-1.74-2.76-2.83-4-.94-1-1.58-.94-2.74-.2-1.4.88-2.25,2.33-3.46,3.4a.5.5,0,0,0-.1.61,18.5,18.5,0,0,1,9.21,6.24,47.7,47.7,0,0,1,4.56,6.88c1.75,3.27,3.52,6.52,5,9.93,1.61,3.71,3.43,7.32,4.7,11.18a29.92,29.92,0,0,0,2.68,5.66,67.39,67.39,0,0,1,4.53,9.37,1.53,1.53,0,0,0,.32.57,10.25,10.25,0,0,1,1.93,3.61,77.06,77.06,0,0,1,2.59,7.54,33.13,33.13,0,0,1,1.67,5.58,25.53,25.53,0,0,0,.74,3.6c.55,2,1.14,4.06,1.66,6.11a81.47,81.47,0,0,1,2,10.79c.42,3.73,1.29,7.41,1.92,11.12A70.28,70.28,0,0,1,385.82,236.36Zm55.12,75.54a4.28,4.28,0,0,0-.45,1.76c0,1-.73,2-.39,3.09.3.94.48,1.93.72,2.89a30.36,30.36,0,0,1,.67,4.57c.15,1.73.17,3.54.34,5.28a51.78,51.78,0,0,1-1.21,17.2,39.75,39.75,0,0,1-2.34,7.27c-1.38,3.06-3,5.84-5.92,7.75-3.81,2.52-7.71,3.48-12,1.41a9.91,9.91,0,0,1-4.1-3.24,22.27,22.27,0,0,1-3.56-8.36,147.35,147.35,0,0,1-2.09-14.85c-.46,1.26-1.52,2.34-.82,3.92.18.41,0,1,0,1.49a45.41,45.41,0,0,0,.05,4.67,50.36,50.36,0,0,0,1.56,8.51,39.89,39.89,0,0,0,2.4,7.08,10,10,0,0,0,7.14,5.34,21.41,21.41,0,0,0,3.59.36,13.53,13.53,0,0,0,10.63-3.87,25.57,25.57,0,0,0,7.27-12.81c.63-2.65,1.31-5.29,1.82-8s1.18-5.24.79-8c-.28-2,0-4.15-.26-6.26-.52-4.06-.66-8.17-1.75-12.15C442.53,315.23,442.7,313.25,440.94,311.9Zm-51.62-87.14c1.57-.67,3.3-.21,4.55-1.44.21-.21.36.09.53.13A5.43,5.43,0,0,0,398,223c.62-.31-.2-1.41-.11-2.18a4.79,4.79,0,0,0,0-1,59.59,59.59,0,0,0-1.15-7.4c-1-3.87-2.39-7.6-3.54-11.42a10,10,0,0,0-1.77-3.73c-1.82-2.07-2.85-4.58-4.06-7-.95-1.92-1.85-3.86-2.79-5.81a.56.56,0,0,0-.21.68,49.75,49.75,0,0,1,.74,6.45c.26,2.81.45,5.63.85,8.44.66,4.57,1.86,9,2.84,13.52a26.41,26.41,0,0,1,.64,4.79C389.49,220.41,389.47,222.51,389.32,224.76Zm38.1,38.78c.44-.23.39-.61.45-.92.45-2.39.73-4.82,1.38-7.18a28.39,28.39,0,0,0,1-4.39c.46-4,.11-8,.23-12a2.42,2.42,0,0,0-.82-1.75,30.25,30.25,0,0,1-4.56-6.32c-.39-.74-.73-1.5-1.09-2.24a.45.45,0,0,0-.68-.22c-.36.21-.21.39,0,.6s.13.5-.15.61-.74.18-1,.55a.77.77,0,0,1-1.37.06c-.73-1-1.53-.44-2.19-.1s-.29,1.12-.17,1.64c.65,2.92,1.32,5.83,2.08,8.72.69,2.62,1.47,5.21,2.27,7.8C424.38,253.41,425.56,258.55,427.42,263.54Zm-162.52,87c-.4,1.35-.76,2.51-1.08,3.67a16,16,0,0,1-3.09,6.37c-1.07,1.25-2,2.61-3,4-2.65,3.81-6.78,5-11,3.14a28,28,0,0,1-4.31-2.42,12.66,12.66,0,0,1-2.06-1.89c-1.76-2-2.74-4.41-3.91-6.71a24.53,24.53,0,0,1-2.5-8.92,64.38,64.38,0,0,1-.06-9.52c.13-2.1.52-4.17.6-6.29.22-5.77,0-11.59,1.49-17.25a12.13,12.13,0,0,0,.13-1.49c.45-2.89.41-5.82,1.53-8.65a42.09,42.09,0,0,1,3.09-5.65,5.91,5.91,0,0,1,2.06-2.13c1.47-.86,1.45-.88,1-2.56a4.73,4.73,0,0,0-.65-1.57,13,13,0,0,0-3.94,5.47c-1.08,2.78-1.81,5.71-2.82,8.52a40.62,40.62,0,0,0-1.16,5.85c-.53,2.67-1.23,5.31-1.68,8a50.72,50.72,0,0,0-.46,9.31c.1,5.09,0,10.19,0,15.29a37.43,37.43,0,0,0,.34,7c.83,4.29,1.58,8.61,3.81,12.52a14.31,14.31,0,0,0,8.25,6.7A12.61,12.61,0,0,0,260,366.07a39.8,39.8,0,0,0,4.25-9,43,43,0,0,0,1.14-4.18C265.5,352.19,265.85,351.36,264.9,350.53ZM394.14,249.05c2.18,1,2.73.94,4.43-.7.31-.29.41-.94,1.08-.86,0,1.23-1.23,1.62-1.51,2.58.35.51.92.33,1.36.53,1.17.53,1.79.28,2.19-.89a6.2,6.2,0,0,0,.36-3.42c-.79-3.46-1.49-6.94-2.31-10.39-.24-1,.13-2.1-.57-3.11a4.47,4.47,0,0,1-1.73,1c-1.93.34-4,.33-5.63,1.68a.28.28,0,0,1-.43,0c-.3-.47-.63-.18-1-.1a4.63,4.63,0,0,1-2.1.32c-1.47,3.32-2.19,6.85-4.21,10,.74-.07,1.3.24,1.58-.41.13-.31.32-.44.58-.18.44.42.9.27,1.38.13a6.72,6.72,0,0,1,3.56,0c1.14.28,2.29,0,3.43.21.38.06.5-.29.71-.56.54-.71.69-.67,1,.27a.68.68,0,0,0,.66.57,4.07,4.07,0,0,1,1.84.59C396.87,246.89,394.83,246.75,394.14,249.05ZM231.68,251.2a3.2,3.2,0,0,0,1.47-1.41c1.16-1.75,2.28-3.52,3.42-5.28.84-1.3,1.82-2.51,2.59-3.87a1.1,1.1,0,0,0-.07-1.48,7.08,7.08,0,0,0-2.67-2.4.74.74,0,0,1-.49-.39c-.75-1.73-2.38-2.38-3.86-3.17-1-.53-1.67-.25-2.41.67a8.7,8.7,0,0,0-1.54,5.84c.07,4.18,0,8.35-.22,12.52-.06,1.39,0,2.79,0,4.35,1.68-1.73,2.68-3.42,2.16-5.86a17.76,17.76,0,0,1-.07-6,3.59,3.59,0,0,1,2.45-3.26c1.55-.46,2.83.51,4.11,1.21a.51.51,0,0,1,.19.73.73.73,0,0,1-.6.19c-.7-.11-1.38-.35-2.08-.42a1.87,1.87,0,0,0-2.2,1.54A14.47,14.47,0,0,0,231.68,251.2Zm14.39,114a7,7,0,0,0,3,1.28c1,.31,1.31.08,1.79-.88a14.65,14.65,0,0,1,.75-1.48c2.86-4.48,4.89-9.42,7.47-14.05.67-1.2,1.13-2.53,1.7-3.79a1.59,1.59,0,0,0,.06-1.44c-.44-.86-.93-1.68-1.5-2.7C255.23,350.13,250.75,357.67,246.07,365.16Zm-6-71.77c1-.89,1.8-1.66,2.63-2.45a.88.88,0,0,0,.27-.76,9.37,9.37,0,0,0-.31-2.14c-1.09-2.75-1.06-5.78-2.17-8.52-.42-1-.47-2.34-2-2.29a.68.68,0,0,1-.64-.46c-.52-1.81-1.77-3.17-2.78-4.68-.59-.9-.57-.92-1.43-.24-.3.24-.6.5-.88.76s-.47.48-.19.84a19.43,19.43,0,0,1,1.39,3c1.68,3.31,3.31,6.63,3.45,10.47a3.6,3.6,0,0,0,.32,1.29A45.94,45.94,0,0,0,240.06,293.39Zm57.4-41.51,1.32-.35c.89-.23,1.6-.89,2.55-1.05s2.36-2.2,2.38-3.09c0-.16,0-.4-.1-.47-.91-.65-1.05-1.79-1.67-2.61a5.56,5.56,0,0,0-3.11-2,1.9,1.9,0,0,0-2.19.6c-.12.14-.5,0-.76.07a8.23,8.23,0,0,0-3.05,1c-1,.5-1.2.81-1.05,2,0,.22.1.48,0,.65-.46.89.06,1.63.38,2.34s.73,1.19.32,2c-.14.26.16.76.54.4.58-.55,1.05-.28,1.62-.06A6.51,6.51,0,0,0,297.46,251.88Zm115.57-51c0,.5.05,1,.13,1.49q.6,4,1.48,8c.6,2.7.95,5.46,1.4,8.19.3,1.85.69,3.69,1,5.54.1.63.36.78.87.5a.83.83,0,0,1,1.21.39c.07,1.48,1,.26,1.41.42.18.46-.13,1.11.25,1.16a5,5,0,0,1,1.76.93c.37.2.8.14.69-.49a5.44,5.44,0,0,0-.31-.94c-.59-1.67-1.35-3.27-1.8-5a27.87,27.87,0,0,0-1.79-5.16c-1.4-2.9-2.44-5.93-3.63-8.91A31.87,31.87,0,0,0,413,200.88ZM389.53,251a16.82,16.82,0,0,0-7,.45c-.55.14-.94.33-1,.86a18.67,18.67,0,0,1-.75,2.37c-.34,1.17.35,2.11.65,3.13,1.68.93,3.36,1.89,5.36,1.42a15.47,15.47,0,0,0,2.42-.93c.73-.31,1-1.44,2-1.22,0,0,.16-.17.17-.27a8,8,0,0,0-1-4.75.59.59,0,0,0-.58-.23C388.68,251.88,389.85,251.13,389.53,251ZM252.15,366a.78.78,0,0,0,1,.09,8.88,8.88,0,0,0,2.16-1.47c1.22-1.35,2.27-2.83,3.47-4.2,2.8-3.18,4.11-7,5-11.06a.91.91,0,0,0-.18-.93c-.54-.49-.92-1.18-1.61-1.54C258.76,353.35,255.5,359.69,252.15,366Zm48.72-110.84c2.89.16,5.78.35,8.67.46a2.32,2.32,0,0,0,2.33-2.29c.19-3,.16-3-1.78-5.3a21.6,21.6,0,0,0-2.51-2.37c-.26-.23-.47-.67-1-.47C306.59,251.33,305.32,253.5,300.87,255.12Zm-26.36-64.58c-4,12-8.57,23.72-13.18,35.47,3.59-5.27,5.89-11.17,8.31-17S273.06,196.73,274.51,190.54ZM177,362.89c7-9.61,13.55-19.21,17.89-30.19a2.52,2.52,0,0,0-.74.86,84.57,84.57,0,0,1-4.59,8.28c-1.62,2.83-3.43,5.54-5.16,8.3-.68,1.09-1.62,1.95-2.31,3-1.72,2.72-3,5.67-4.93,8.27A1.39,1.39,0,0,0,177,362.89Zm251.19-66.81c.26,1.44.28,2.68,1.61,3.54a11.16,11.16,0,0,1,2.85,2.72c1.45,2,3.2,3.73,4.18,6.05a4,4,0,0,0,1.31,1.78c.59-2-.38-3.55-.87-5.19-1.76-1.27-2.53-3.26-3.63-5-.71-1.15-1.38-2.51-2.78-2.92C430,296.79,429.27,296.4,428.18,296.08ZM290.67,165.78a120.76,120.76,0,0,0-9.53,31.68c.56-1.31,1-2.66,1.48-4,.69-2,1.43-3.94,2.07-5.94.31-1,.26-2.07.54-3.1.68-2.51,1.24-5.06,1.95-7.56.9-3.14,1.6-6.35,3.16-9.26A2.22,2.22,0,0,0,290.67,165.78Zm88.41,94.37a10.6,10.6,0,0,1-1.68-3.07,4.25,4.25,0,0,1,.33-3.52.43.43,0,0,0,0-.16c0-.44-.22-.67-.6-.52-1.52.6-3.11,1.13-4.1,2.59-.65,1-1.38,2-.17,3.06.13.12.14.41.16.62,0,.51.35.66.78.63A47.5,47.5,0,0,1,379.08,260.15Zm13.55.14c1-.06,1.87-.19,2.23-.83.9-1.61,2.67-1.94,3.94-3a9,9,0,0,0,1.71-1.49,34.59,34.59,0,0,0-5.78-3.32c0,1.6.61,3.11,0,4.53S393.38,258.85,392.63,260.29Zm-104-9.26c-1.21-3.48-1.64-4.67.69-9.31l-7.13,4.16a4.9,4.9,0,0,0,2.44,1.83,2.42,2.42,0,0,1,1.16.87C286.39,249.58,287.44,250.08,288.58,251Zm-49.24,16.4c-1,.64-1.81,1.23-2.68,1.76a1,1,0,0,0-.4,1.64,37.87,37.87,0,0,1,2.19,3.88,4.11,4.11,0,0,0,1.78,2,1.06,1.06,0,0,0,.22-1c-.13-1.12.17-2.34-.6-3.34C240.44,270.67,239.84,269.16,239.34,267.43Zm-9.92,1.25c1.11-1.21,2.33-2.15,1.49-3.9-.07-.14,0-.34,0-.5a14.83,14.83,0,0,0-.39-3c-.12-.77-.52-.88-1.16-.54s-1.15.65-1.75.92a.91.91,0,0,0-.53,1.34A41,41,0,0,0,229.42,268.68Zm-25.53,209.9a67.09,67.09,0,0,1,9.45-2.3s.09,0,.15-.07c3.4-.83,6.62-2.22,9.95-3.26a5.38,5.38,0,0,0,2.5-1.4A227.75,227.75,0,0,0,203.89,478.58Zm192.82-117c-.93.65-1.32,1.15-1.41,1.86a37.47,37.47,0,0,0-.41,3.82c-.08,2.78.62,5.51.45,8.3a1.13,1.13,0,0,0,.52.92C396.66,371.57,396.52,366.7,396.71,361.56ZM393.3,165.15l.37-.13a51.75,51.75,0,0,0-1.6-5.13c-1.27-3-2.75-5.93-4-8.95a2,2,0,0,0-1.36-1.53C388.84,154.91,391.12,160,393.3,165.15ZM290.68,253.5a6.48,6.48,0,0,0-2.29-1.88,43.57,43.57,0,0,1-5-2.76,3,3,0,0,0-.73-.34c-.11,0-.28.11-.39.21a.25.25,0,0,0,0,.41c.6.55,1.12,1.41,1.82,1.6,1.63.44,2.82,1.65,4.35,2.22A5.09,5.09,0,0,0,290.68,253.5ZM477.9,329.14l-.29.17q1.38,5.26,2.77,10.54l.33-.09C479.86,336.2,479.61,332.47,477.9,329.14Zm-81.56-157c.22,2.2,2.5,8.81,3.47,10A36.46,36.46,0,0,0,396.34,172.11Zm-82.62,80.65c-.4,1.16-.37,2.28-1.19,3.21,1.49.33,2.63,1.16,4.35,1.2A16,16,0,0,1,313.72,252.76Zm-16.78-27.93a2.3,2.3,0,0,0,.08-2.08,14.4,14.4,0,0,1-2.08-3.87c-.44,2.47-.49,2.51.08,3.23S296.63,223.65,296.94,224.83Zm-4.83-63,.32.21,4.65-9.61-.32-.16A101.58,101.58,0,0,0,292.11,161.86Zm36.23-51.78a2.82,2.82,0,0,0,.65,0c2.18-.46,4.35-1.15,6.62-.43.4.13.58-.21.58-.59s-.31-.56-.67-.46a14.4,14.4,0,0,1-3.59.16A5.51,5.51,0,0,0,328.34,110.08ZM284.86,238.31a3.28,3.28,0,0,0,3.28,1.11.57.57,0,0,0,.52-.34c.22-.53-.93-2.09-1.43-1.87A6.16,6.16,0,0,0,284.86,238.31ZM340.71,116.2c1.81-.63,3.72-.57,5.92-.89-2-.88-4-.12-5.7-1.36A4,4,0,0,0,340.71,116.2Zm20.73-12.6c-.42-.4-.85.14-1.36-.07-2.74-1.15-5.61-1-8.47-.7C354.9,103.45,358.24,103.33,361.44,103.6ZM482.3,351.42c.57-3.72-1.36-7-1.48-10.59l-.35.06Zm-92.2-103c.87-.37,1.5.45,2.16.12a2.86,2.86,0,0,0,1.6-1.52C391.08,246.52,390.58,246.67,390.1,248.43ZM289,217.52a2,2,0,0,0-.09-1.71c-.43-1.1-1.23-2.11-.94-3.43.14-.65-.42-.83-.85-1a.62.62,0,0,0-.45.06c-.18.08-.15.28-.08.43C287.39,213.64,288.16,215.45,289,217.52ZM348.1,106.31c-.17-.54-.53-.54-.85-.55a35,35,0,0,1-4.57-.45,1.83,1.83,0,0,0-.33,0c-.26,0-.57,0-.61.39s.25.55.58.66a1.66,1.66,0,0,0,1-.08,8.08,8.08,0,0,1,3.1-.06A4.81,4.81,0,0,0,348.1,106.31Zm38.13,142c.91-.37,1.52.12,2.21.2s.85-.35.95-.89-.3-.73-.76-.77c-.27,0-.54,0-.81,0C386.57,246.62,386.57,246.61,386.23,248.29ZM331,114a3.66,3.66,0,0,0,3.13.18c1.29-.33,1.3-.29,1.27-1.86A31.48,31.48,0,0,1,331,114ZM381.07,249a22.51,22.51,0,0,1,2.94-.48,1.36,1.36,0,0,0,.92-.25c.25-.22.53-.49.41-.84s-.54-.25-.83-.18A15.07,15.07,0,0,0,381.07,249Zm-10.66,8.4c-.77.92-1.74,1.51-2.78,2.61,1.41-.29,2.48,0,3.58-.56C370.78,258.8,369.92,258.39,370.41,257.37ZM209.63,283.94c.29-1.09.46-2,.75-2.78a10.62,10.62,0,0,0,.73-3C209.86,280,209.11,281.63,209.63,283.94Zm88.7-44.76a5,5,0,0,0-3.5-1.19C295.64,239.78,297.14,239,298.33,239.18ZM434.3,298l.26-.22c-.68-1.08-1.36-2.15-2.08-3.27-.67.94-.71,1-.46,1.15C433.09,296.1,433.42,297.31,434.3,298ZM344.14,110.4c-1.14.36-1.81-.47-2.86-.51.26.57-.08,1.09.43,1.55A9.76,9.76,0,0,0,344.14,110.4ZM388.67,231l.38.08,1.16-3.29A3.73,3.73,0,0,0,388.67,231Zm54.48,2.73c.45-1,1-1.82.72-2.88C443,231.71,443,231.71,443.15,233.75Zm-163-22.18a5.42,5.42,0,0,0-1.29-2.39C278.43,210.27,278.43,210.27,280.12,211.57Zm89.24,24.68a3,3,0,0,0,1.09-2.24A2.89,2.89,0,0,0,369.36,236.25Zm61.8,50.94a16.48,16.48,0,0,1,.49,2.07C431.89,288.52,432.15,287.78,431.16,287.19Zm-53.52-54.53c-.24.54-1.29.67-.87,1.84C377.26,233.84,377.7,233.4,377.64,232.66Zm-37.5-111.39c.9-1,.9-1,.06-1.76C339.9,120,340.07,120.54,340.14,121.27Zm51.92,105.17c.3-.25.66-.39.78-.82.06-.2-.07-.45-.19-.37C392.25,225.49,391.54,225.59,392.06,226.44Zm2.26-1.4c-.94.12-1.08.72-.92,1.54A2.57,2.57,0,0,0,394.32,225Zm-86.86,4.57c.27.85.27.85,1,1.26C308.83,229.88,307.76,230,307.46,229.61Zm3.41,2.19c-.27-1.38-.31-1.44-1.24-2A6.77,6.77,0,0,0,310.87,231.8Zm91.81,18.54c.05.1-.82.3-.28.8.1.09.37.14.45.07C403.33,250.8,402.65,250.47,402.68,250.34Zm-111.4-86.07c.75-.44.48-1.23.79-1.82A3.25,3.25,0,0,0,291.28,164.27Zm107,63.76a1,1,0,0,0-.81.76C397.94,228.76,398.21,228.59,398.23,228ZM195.07,331.79c0,.28.09.31.16.2a5.71,5.71,0,0,0,.76-1.9Zm197.11-98.86c.43-.17.92,0,.9-.56,0-.13-.18-.38-.26-.37C392.4,232.05,392.25,232.37,392.18,232.93ZM262.78,425.87c-.46.73-1,1-.95,1.6,0,0,.2.12.25.08C262.61,427.26,262.59,426.7,262.78,425.87Zm37.53-199.36c.06,0,.19-.06.2-.11.05-.45-.59-.4-.58-.82C300.15,225.85,299.56,226.46,300.31,226.51Zm138.28,85.4a.83.83,0,0,0-.39-1.13C438,311.31,438.31,311.58,438.59,311.91Zm4.37-77a.56.56,0,0,0-.46.42c-.08.26-.2.63.12.7s.48-.31.46-.65A2.49,2.49,0,0,0,443,234.89Zm-61.48-1.77c-.57.52-1.17.7-1,1.43C381.1,234.36,381.31,234,381.48,233.12Zm-5.77,3.71a1.37,1.37,0,0,0,1.16-1.12C376.23,235.87,376,236.19,375.71,236.83Zm-98.55-22.89c0-.39.8,0,.63-.63a.44.44,0,0,0-.36-.24C277,213.15,277,213.47,277.16,213.94Zm-74.71,99.42a4.06,4.06,0,0,0-.41.54c-.1.19-.36.44,0,.62A1,1,0,0,0,202.45,313.36Zm89.89-74.71c.11-.41.52-.9-.09-1.26-.12-.07-.23-.06-.29.06C291.75,237.92,292.11,238.23,292.34,238.65ZM433,292.46c.33-.6-.39-.84-.42-1.29-.22,0,0-.05-.09.16A1,1,0,0,0,433,292.46ZM306.23,227c0-.34-.18-.37-.33-.37a.33.33,0,0,0-.18.2.3.3,0,0,0,.26.31A.21.21,0,0,0,306.23,227Zm143.23.09c0-.26-.1-.47-.34-.49-.05,0-.16.24-.16.37s-.13.48.23.43C449.3,227.41,449.38,227.22,449.46,227.12Zm-66.84,2.37c.1-.49.28-.85-.08-1.36A1.87,1.87,0,0,0,382.62,229.49Zm56.53,14.6c0,.09-.14.18-.13.27a.13.13,0,0,0,.23.1.36.36,0,0,0,.13-.26C439.38,244.07,439.27,244,439.15,244.09ZM311.56,232.42a2.27,2.27,0,0,0-.44-.38.17.17,0,0,0-.1.3,5.39,5.39,0,0,0,.43.39Zm-50.7-5.75a.33.33,0,0,0,.1,0s.1-.06.1-.09-.06-.17-.15,0A.69.69,0,0,0,260.86,226.67Zm75.72-121a.22.22,0,0,0-.22-.31.31.31,0,0,0-.35.23c0,.19.09.29.25.33S336.52,105.84,336.58,105.7ZM265.93,209.85a.22.22,0,0,0,.3-.24.25.25,0,0,0-.15-.21c-.21-.07-.26.11-.29.25S265.88,209.79,265.93,209.85ZM482.8,352.08c-.09.23-.18.35-.15.42s-.18.39.14.31A2.87,2.87,0,0,0,482.8,352.08Zm85.46,49a.73.73,0,0,0-.58-.48s-.2.14-.19.19a.7.7,0,0,0,.57.48C568.11,401.29,568.19,401.16,568.26,401.09ZM391.83,227s-.08.08-.08.12,0,.2,0,.3.08-.09.08-.13A1.35,1.35,0,0,0,391.83,227ZM584.62,417.84l-.45-.41a.79.79,0,0,0-.1.28c0,.26.23.33.41.44Zm-364.4-191c.06-.1.16-.19.16-.28s-.08-.26-.14-.26-.22.16-.2.31S220.16,226.75,220.22,226.83Zm166.09-79.09-.08-.28s-.1.08-.09.12a1,1,0,0,0,.07.28ZM271.38,384.35c0-.09-.08-.25-.13-.26s-.23.16-.23.29.11.14.18.21Zm25.94-232.48c0-.05,0-.1,0-.14s-.11-.12-.17,0a.19.19,0,0,0,0,.13S297.28,151.87,297.32,151.87Zm8,74.13-.14-.26c0,.08-.13.16-.13.25a.84.84,0,0,0,.13.27Zm-14.16-60.95-.18-.18a.89.89,0,0,0-.11.31s.13.15.18.14S291.2,165.17,291.15,165.05Zm144.79,99.74a1.43,1.43,0,0,0-.09.27s0,.07.09.1.09-.07.08-.1A1.38,1.38,0,0,0,435.94,264.79Zm-39.72-93.42-.16-.17a.7.7,0,0,0-.08.27c0,.06.1.11.15.16Zm16.46,21.37-.09-.26s-.1.06-.1.09a1.09,1.09,0,0,0,.07.24ZM306.81,228.88l.25.12s.07-.06.11-.09-.16-.09-.25-.12S306.85,228.85,306.81,228.88Zm-64.29,19.59.07.13a1.48,1.48,0,0,0,.08-.13c0-.13,0-.19-.1-.14S242.54,248.42,242.52,248.47ZM399,123.24l0-.15.09,0ZM200.74,318l0-.16h.1Zm179-84.75-.08-.12s-.1.07-.1.11.05.08.08.12Zm-99.45-21.45-.11-.14s-.11.08-.11.12.06.09.1.13Zm161-37.65,0,.1h.08Zm-45.45-3.73s-.1.08-.09.11a.64.64,0,0,0,.09.21s.09-.07.09-.1A.85.85,0,0,0,395.76,170.4Zm-78.84,87,.1,0v-.08ZM387,149.17l-.12-.22s-.1.08-.1.11a1.47,1.47,0,0,0,.1.22Zm-.44-.89s-.1.08-.1.11a.88.88,0,0,0,.1.22s.1-.08.09-.11A1,1,0,0,0,386.54,148.28ZM473.5,414s-.1.08-.1.1a1,1,0,0,0,.1.21s.1-.07.1-.1A1,1,0,0,0,473.5,414ZM355.72,129s0-.09-.07-.1-.08,0-.11.06,0,.09.08.1S355.69,129,355.72,129Z" transform="translate(-122.57 -81.78)"/><path class="cls-8" d="M610.36,468.32l-1.72-6.38c.7.34.87.91,1.23,1.31.15.17.3.3.49,0Z" transform="translate(-122.57 -81.78)"/><path class="cls-8" d="M134.05,446c0-.1,0-.32,0-.54s.22-.51.56-.46a.39.39,0,0,1,.33.49,1.14,1.14,0,0,0,.26,1.35.4.4,0,0,1-.09.58.57.57,0,0,1-.75-.06C134,447,134.06,446.52,134.05,446Z" transform="translate(-122.57 -81.78)"/><path class="cls-8" d="M219.35,231.8c.94-.16,0-1.06.61-1.43a4.69,4.69,0,0,1,1,1.85c-.67.79-1-.9-1.6-.13Z" transform="translate(-122.57 -81.78)"/><path class="cls-7" d="M412.43,123.51c.48.06.61.53.89.75,0,.16-.06.21-.18.12C412.83,124.17,412.25,124.2,412.43,123.51Z" transform="translate(-122.57 -81.78)"/><path class="cls-7" d="M358.08,91.15c0,.4-.23.49-.46.5s-.49,0-.5-.3.31-.19.49-.22A3.47,3.47,0,0,1,358.08,91.15Z" transform="translate(-122.57 -81.78)"/><path class="cls-8" d="M248.55,243.66a68.89,68.89,0,0,1,4-6.84,10.91,10.91,0,0,0,.76-1.8,42.06,42.06,0,0,0,3.79-7.81,52.6,52.6,0,0,1,2-5.06,59.75,59.75,0,0,0,2.41-7.05c.36-1.26.73-2.19,2.23-2,.39.05.66-.26,1.07-.67a6.22,6.22,0,0,1-1,3c-1.31,2.93-2,6.13-3.7,8.89-1.48,2.4-2.34,5.15-3.82,7.51-2.36,3.8-4.13,8-7,11.45-.19.23-.28.85-.82.39Z" transform="translate(-122.57 -81.78)"/><path class="cls-8" d="M177,362.89a1.39,1.39,0,0,1,.16-1.45c1.89-2.6,3.21-5.55,4.93-8.27.69-1.08,1.63-1.94,2.31-3,1.73-2.76,3.54-5.47,5.16-8.3a84.57,84.57,0,0,0,4.59-8.28,2.52,2.52,0,0,1,.74-.86C190.54,343.68,184,353.28,177,362.89Z" transform="translate(-122.57 -81.78)"/><path class="cls-8" d="M329.9,115.21a5,5,0,0,0,3.81.29,1.52,1.52,0,0,1,1.45,0,34.54,34.54,0,0,0-.48,4.33c-1.25,0-2.22-.7-3.32-.87-.23,0-.44-.47-.59-.76a9.38,9.38,0,0,1-1.07-2.78Z" transform="translate(-122.57 -81.78)"/><path class="cls-8" d="M379,109.26c-.14.4-.41.24-.65.15a48.42,48.42,0,0,0-7.26-2.45,24.85,24.85,0,0,1-3.43-1.58c.92.21,1.83.49,2.75.62s2,.66,3,.87,2.13.24,2.88,1,1.87.77,2.69,1.38Z" transform="translate(-122.57 -81.78)"/><path class="cls-8" d="M292.11,161.86a101.58,101.58,0,0,1,4.65-9.56l.32.16-4.65,9.61Z" transform="translate(-122.57 -81.78)"/><path class="cls-8" d="M328.34,110.08a5.51,5.51,0,0,1,3.59-1.33,14.4,14.4,0,0,0,3.59-.16c.36-.1.67,0,.67.46s-.18.72-.58.59c-2.27-.72-4.44,0-6.62.43A2.82,2.82,0,0,1,328.34,110.08Z" transform="translate(-122.57 -81.78)"/><path class="cls-8" d="M340.71,116.2a4,4,0,0,1,.22-2.25c1.68,1.24,3.67.48,5.7,1.36C344.43,115.63,342.52,115.57,340.71,116.2Z" transform="translate(-122.57 -81.78)"/><path class="cls-8" d="M361.44,103.6c-3.2-.27-6.54-.15-9.83-.77,2.86-.27,5.73-.45,8.47.7C360.59,103.74,361,103.2,361.44,103.6Z" transform="translate(-122.57 -81.78)"/><path class="cls-8" d="M348.1,106.31a4.81,4.81,0,0,1-1.72-.11,8.08,8.08,0,0,0-3.1.06,1.66,1.66,0,0,1-1,.08c-.33-.11-.62-.24-.58-.66s.35-.36.61-.39a1.83,1.83,0,0,1,.33,0,35,35,0,0,0,4.57.45C347.57,105.77,347.93,105.77,348.1,106.31Z" transform="translate(-122.57 -81.78)"/><path class="cls-8" d="M331,114a31.48,31.48,0,0,0,4.4-1.68c0,1.57,0,1.53-1.27,1.86A3.66,3.66,0,0,1,331,114Z" transform="translate(-122.57 -81.78)"/><path class="cls-8" d="M264.81,426.08c.32.81-.17,1.5-.39,2.19a9.87,9.87,0,0,1-1.66,3.3,11,11,0,0,1,2.09-5.46Z" transform="translate(-122.57 -81.78)"/><path class="cls-8" d="M211.11,278.15a10.62,10.62,0,0,1-.73,3c-.29.82-.46,1.69-.75,2.78" transform="translate(-122.57 -81.78)"/><path class="cls-8" d="M381.41,111a14,14,0,0,1,4.59,2.83l.06,0a15.56,15.56,0,0,1-4.59-2.83Z" transform="translate(-122.57 -81.78)"/><path class="cls-8" d="M344.14,110.4a9.76,9.76,0,0,1-2.43,1c-.51-.46-.17-1-.43-1.55C342.33,109.93,343,110.76,344.14,110.4Z" transform="translate(-122.57 -81.78)"/><path class="cls-8" d="M264.85,426.11c-.2-1.35.8-2.37,1-3.63a3.5,3.5,0,0,1,.59-1.31,8.89,8.89,0,0,1-1.6,4.91Z" transform="translate(-122.57 -81.78)"/><path class="cls-8" d="M283,211.76c-1.11-.77-1.2-2-1.87-2.95l.32-.34" transform="translate(-122.57 -81.78)"/><path class="cls-8" d="M443.15,233.75c-.11-2-.11-2,.72-2.88C444.12,231.93,443.6,232.72,443.15,233.75Z" transform="translate(-122.57 -81.78)"/><path class="cls-8" d="M413.94,197.16c-.31-1.32-1.15-2.47-1.27-4a5.52,5.52,0,0,1,1.28,4Z" transform="translate(-122.57 -81.78)"/><path class="cls-8" d="M313.9,225.69c1,.54,1.1.81,1.29,2.33a3.09,3.09,0,0,1-1.26-2.37Z" transform="translate(-122.57 -81.78)"/><path class="cls-8" d="M431.16,287.19c1,.59.73,1.33.49,2.07A16.48,16.48,0,0,0,431.16,287.19Z" transform="translate(-122.57 -81.78)"/><path class="cls-8" d="M340.14,121.27c-.07-.73-.24-1.24.06-1.76C341,120.31,341,120.31,340.14,121.27Z" transform="translate(-122.57 -81.78)"/><path class="cls-8" d="M306.69,225a2.67,2.67,0,0,1,1.32,2l-.23.2-1.3-2Z" transform="translate(-122.57 -81.78)"/><path class="cls-8" d="M303.38,226.34c.51.42.52,1.2,1.17,1.51-1.14,0-1.14,0-1.13-1.55Z" transform="translate(-122.57 -81.78)"/><path class="cls-8" d="M307.46,229.61c.3.42,1.37.27,1,1.26C307.73,230.46,307.73,230.46,307.46,229.61Z" transform="translate(-122.57 -81.78)"/><path class="cls-8" d="M310.87,231.8a6.77,6.77,0,0,1-1.24-2C310.56,230.36,310.6,230.42,310.87,231.8Z" transform="translate(-122.57 -81.78)"/><path class="cls-8" d="M291.28,164.27a3.25,3.25,0,0,1,.79-1.82C291.76,163,292,163.83,291.28,164.27Z" transform="translate(-122.57 -81.78)"/><path class="cls-8" d="M195.07,331.79l.92-1.7a5.71,5.71,0,0,1-.76,1.9C195.16,332.1,195.11,332.07,195.07,331.79Z" transform="translate(-122.57 -81.78)"/><path class="cls-8" d="M240.77,250.14a3.53,3.53,0,0,1,1.38-1.36c-.18.95-.63,1.33-1.42,1.32Z" transform="translate(-122.57 -81.78)"/><path class="cls-8" d="M262.78,425.87c-.19.83-.17,1.39-.7,1.68-.05,0-.25,0-.25-.08C261.76,426.84,262.32,426.6,262.78,425.87Z" transform="translate(-122.57 -81.78)"/><path class="cls-8" d="M300.31,226.51c-.75,0-.16-.66-.38-.93,0,.42.63.37.58.82C300.5,226.45,300.37,226.48,300.31,226.51Z" transform="translate(-122.57 -81.78)"/><path class="cls-8" d="M200.42,319.37l-.64,1.26c0-.51-.53-1.37.64-1.25Z" transform="translate(-122.57 -81.78)"/><path class="cls-8" d="M227.74,276.23c-.44-.87.17-1.3.73-2,.33,1-.73,1.28-.72,2Z" transform="translate(-122.57 -81.78)"/><path class="cls-8" d="M303,226c-.6-.24-.81-.76-1.06-1.43.91.63.91.63,1,1.47Z" transform="translate(-122.57 -81.78)"/><path class="cls-8" d="M396.23,121.16c-.62,0-.93-.52-1.25-1a1.57,1.57,0,0,1,1.41.77Z" transform="translate(-122.57 -81.78)"/><path class="cls-8" d="M308,227a2.23,2.23,0,0,1,.92,1.33c-.8,0-.76-.79-1.15-1.13Z" transform="translate(-122.57 -81.78)"/><path class="cls-8" d="M443,234.89a2.49,2.49,0,0,1,.12.47c0,.34,0,.75-.46.65s-.2-.44-.12-.7A.56.56,0,0,1,443,234.89Z" transform="translate(-122.57 -81.78)"/><path class="cls-8" d="M482.69,389.72a5.55,5.55,0,0,1,0-2.11,4,4,0,0,1-.07,2.07Z" transform="translate(-122.57 -81.78)"/><path class="cls-8" d="M277.16,213.94c-.15-.47-.13-.79.27-.87a.44.44,0,0,1,.36.24C278,213.91,277.19,213.55,277.16,213.94Z" transform="translate(-122.57 -81.78)"/><path class="cls-8" d="M202.45,313.36a1,1,0,0,1-.39,1.16c-.38-.18-.12-.43,0-.62A4.06,4.06,0,0,1,202.45,313.36Z" transform="translate(-122.57 -81.78)"/><path class="cls-8" d="M298.6,223.9c0-.56-.73-.8-.51-1.53a1.21,1.21,0,0,1,.5,1.55Z" transform="translate(-122.57 -81.78)"/><path class="cls-8" d="M433,292.46a1,1,0,0,1-.51-1.13c.12-.21-.13-.13.09-.16C432.64,291.62,433.36,291.86,433,292.46Z" transform="translate(-122.57 -81.78)"/><path class="cls-8" d="M379,109.27c.15.36.76.18.79.7a.74.74,0,0,1-.94-.27c-.18-.21-.09-.38.18-.44Z" transform="translate(-122.57 -81.78)"/><path class="cls-8" d="M306.23,227a.21.21,0,0,1-.25.14.3.3,0,0,1-.26-.31.33.33,0,0,1,.18-.2C306.05,226.66,306.21,226.69,306.23,227Z" transform="translate(-122.57 -81.78)"/><path class="cls-8" d="M449.46,227.12c-.08.1-.16.29-.27.31-.36,0-.23-.26-.23-.43s.11-.38.16-.37C449.36,226.65,449.43,226.86,449.46,227.12Z" transform="translate(-122.57 -81.78)"/><path class="cls-8" d="M306.48,225.21l-.7-1L306,224a1.22,1.22,0,0,1,.66,1Z" transform="translate(-122.57 -81.78)"/><path class="cls-8" d="M301,222.24c-.43.26-.69.1-.82-.35.43-.26.44.47.81.35Z" transform="translate(-122.57 -81.78)"/><path class="cls-8" d="M311.56,232.42l-.11.31a5.39,5.39,0,0,1-.43-.39.17.17,0,0,1,.1-.3A2.27,2.27,0,0,1,311.56,232.42Z" transform="translate(-122.57 -81.78)"/><path class="cls-8" d="M396.92,121.46a1,1,0,0,1,.31.06c.2.14.56.26.31.58-.11.14-.39,0-.54-.18a2.65,2.65,0,0,1-.21-.26Z" transform="translate(-122.57 -81.78)"/><path class="cls-8" d="M260.86,226.67a.69.69,0,0,1,.05-.13c.09-.13.15-.11.15,0s-.06.07-.1.09A.33.33,0,0,1,260.86,226.67Z" transform="translate(-122.57 -81.78)"/><path class="cls-8" d="M299.33,220.83c.36-.1.36-.1.72.68l-.7-.74Z" transform="translate(-122.57 -81.78)"/><path class="cls-8" d="M336.58,105.7c-.06.14-.12.3-.32.25s-.29-.14-.25-.33a.31.31,0,0,1,.35-.23A.22.22,0,0,1,336.58,105.7Z" transform="translate(-122.57 -81.78)"/><path class="cls-8" d="M265.93,209.85c-.05-.06-.15-.14-.14-.2s.08-.32.29-.25a.25.25,0,0,1,.15.21A.22.22,0,0,1,265.93,209.85Z" transform="translate(-122.57 -81.78)"/><path class="cls-8" d="M313.09,232.86c.13,0,.37,0,.38,0,.07.33-.09,0-.14,0-.05-.13-.13-.14-.23,0Z" transform="translate(-122.57 -81.78)"/><path class="cls-8" d="M482.8,352.08a2.87,2.87,0,0,1,0,.73c-.32.08-.09-.2-.14-.31S482.71,352.31,482.8,352.08Z" transform="translate(-122.57 -81.78)"/><path class="cls-8" d="M280.78,210.18l.09.31c0,.13.13.35-.07.37s-.16-.22-.13-.36a.88.88,0,0,1,.13-.3Z" transform="translate(-122.57 -81.78)"/><path class="cls-8" d="M299.15,224a1.53,1.53,0,0,1,.17.27,1.42,1.42,0,0,1,.1.29c-.23,0-.25-.14-.27-.29a1.13,1.13,0,0,1,.05-.32Z" transform="translate(-122.57 -81.78)"/><path class="cls-8" d="M199.19,321.34c.64.23.09.56.06.85,0,0-.22.07-.24.05a.74.74,0,0,1,.19-.86Z" transform="translate(-122.57 -81.78)"/><path class="cls-8" d="M391.83,227a1.54,1.54,0,0,1,0,.3s-.05.09-.08.13,0-.2,0-.3S391.8,227.07,391.83,227Z" transform="translate(-122.57 -81.78)"/><path class="cls-8" d="M584.62,417.84l-.14.31c-.18-.11-.4-.18-.41-.44a.79.79,0,0,1,.1-.28Z" transform="translate(-122.57 -81.78)"/><path class="cls-8" d="M220.22,226.83c-.06-.08-.17-.15-.18-.23s0-.32.2-.31.15.17.14.26S220.28,226.73,220.22,226.83Z" transform="translate(-122.57 -81.78)"/><path class="cls-8" d="M248.51,243.64c.39.36,0,.7,0,1.05v0c-.59-.4,0-.7.08-1.05Z" transform="translate(-122.57 -81.78)"/><path class="cls-8" d="M386.31,147.74l-.1.12a1,1,0,0,1-.07-.28s.06-.08.09-.12Z" transform="translate(-122.57 -81.78)"/><path class="cls-8" d="M239.94,251.31a1.23,1.23,0,0,1-.29.13c-.13,0-.26,0-.39,0s0-.15,0-.16a1.43,1.43,0,0,1,.41-.09c.09,0,.18.09.27.14Z" transform="translate(-122.57 -81.78)"/><path class="cls-8" d="M271.38,384.35l-.18.24c-.07-.07-.18-.14-.18-.21s0-.32.23-.29S271.34,384.26,271.38,384.35Z" transform="translate(-122.57 -81.78)"/><path class="cls-8" d="M297.32,151.87s-.09,0-.11,0a.19.19,0,0,1,0-.13c.06-.14.12-.14.17,0S297.33,151.82,297.32,151.87Z" transform="translate(-122.57 -81.78)"/><path class="cls-8" d="M435.92,254.68c.15-.1.22-.46.42-.29s.06.4-.2.48Z" transform="translate(-122.57 -81.78)"/><path class="cls-8" d="M396.39,121c.22.13.49.19.53.51l-.13.2c-.24-.11-.5-.18-.56-.5Z" transform="translate(-122.57 -81.78)"/><path class="cls-8" d="M305.31,226l-.14.26A.84.84,0,0,1,305,226c0-.09.09-.17.13-.25Z" transform="translate(-122.57 -81.78)"/><path class="cls-8" d="M438.92,257.09a.22.22,0,0,1,.12.35.15.15,0,0,1-.12,0c-.14-.15,0-.25.06-.36Z" transform="translate(-122.57 -81.78)"/><path class="cls-8" d="M291.15,165.05c.05.12,0,.24-.11.27s-.18-.09-.18-.14a.89.89,0,0,1,.11-.31Z" transform="translate(-122.57 -81.78)"/><path class="cls-8" d="M435.94,264.79a1.38,1.38,0,0,1,.08.27s0,.07-.08.1-.1-.07-.09-.1A1.43,1.43,0,0,1,435.94,264.79Z" transform="translate(-122.57 -81.78)"/><path class="cls-8" d="M412.68,192.74l-.12.07a1.09,1.09,0,0,1-.07-.24s.07-.06.1-.09Z" transform="translate(-122.57 -81.78)"/><path class="cls-8" d="M248.07,143c-.45-.4.22-.63.14-1v0c.2.37.26.71-.18,1Z" transform="translate(-122.57 -81.78)"/><path class="cls-8" d="M384.56,142.39l0-.32,0,.32Z" transform="translate(-122.57 -81.78)"/><path class="cls-8" d="M196.49,329.71c0-.1-.06-.19-.08-.29a1.28,1.28,0,0,1,0-.26c.3,0,.1.16.1.26a1.45,1.45,0,0,1,0,.29Z" transform="translate(-122.57 -81.78)"/><path class="cls-8" d="M306.81,228.88s.09-.1.11-.09.16.08.25.12-.08.09-.11.09Z" transform="translate(-122.57 -81.78)"/><path class="cls-8" d="M242.52,248.47c0-.05,0-.12,0-.14s.14,0,.1.14a1.48,1.48,0,0,1-.08.13Z" transform="translate(-122.57 -81.78)"/><path class="cls-8" d="M280.8,210.2l-.24,0s.05.08.08.08a.42.42,0,0,0,.13-.07Z" transform="translate(-122.57 -81.78)"/><path class="cls-8" d="M200.42,319.38a2.87,2.87,0,0,1,0-.31,2.53,2.53,0,0,1,0-.28c.35,0,0,.19.06.29a1.4,1.4,0,0,1,0,.29Z" transform="translate(-122.57 -81.78)"/><path class="cls-8" d="M402.69,125.63c-.33.29-.66,0-1,0l0,0Z" transform="translate(-122.57 -81.78)"/><polygon class="cls-8" points="276.47 41.46 276.54 41.33 276.45 41.31 276.47 41.46"/><path class="cls-8" d="M247.39,245.81c-.36-.29,0-.42.14-.58,0,0,.19.07.2.12a.42.42,0,0,1-.36.45Z" transform="translate(-122.57 -81.78)"/><polygon class="cls-8" points="78.17 236.2 78.24 236.04 78.14 236.03 78.17 236.2"/><path class="cls-8" d="M299.26,221.81c.09.12.19.29.06.4s-.23,0-.27-.17Z" transform="translate(-122.57 -81.78)"/><path class="cls-8" d="M431.38,293c.11-.06.09-.3.29-.24,0,0,0,.09,0,.1l-.29.14Z" transform="translate(-122.57 -81.78)"/><path class="cls-8" d="M299,221.5l.25.31-.21.23c-.22,0-.31-.14-.33-.34Z" transform="translate(-122.57 -81.78)"/><path class="cls-8" d="M311.68,233.54s.07,0,.08,0,.05-.1-.05,0Z" transform="translate(-122.57 -81.78)"/><path class="cls-8" d="M301,222.24l-.23.31c-.21-.33.13-.22.24-.31Z" transform="translate(-122.57 -81.78)"/><polygon class="cls-8" points="163.95 132.25 164.02 132.18 164 132.28 163.95 132.25"/><path class="cls-8" d="M221.84,279.76c.13-.06.33-.22.4-.17.25.15.11.37,0,.56Z" transform="translate(-122.57 -81.78)"/><path class="cls-8" d="M280.26,211.78l-.12.11s-.1-.08-.1-.13.07-.08.11-.12Z" transform="translate(-122.57 -81.78)"/><polygon class="cls-8" points="104.65 194.47 104.63 194.56 104.7 194.52 104.65 194.47"/><path class="cls-8" d="M227.75,276.21l-.53.05,0,0c.07-.12.05-.27.24-.32s.16.17.24.25Z" transform="translate(-122.57 -81.78)"/><path class="cls-8" d="M298.59,223.92c.21-.33.38-.16.56,0l.05,0h-.6A.1.1,0,0,1,298.59,223.92Z" transform="translate(-122.57 -81.78)"/><path class="cls-8" d="M199.2,321.38l.29,0-.15.16-.15-.23Z" transform="translate(-122.57 -81.78)"/><path class="cls-8" d="M414,197.17l.11-.3.14.1-.26.19Z" transform="translate(-122.57 -81.78)"/><polygon class="cls-8" points="313.92 189.96 313.96 189.88 313.98 189.94 313.92 189.96"/><path class="cls-8" d="M218.7,266.23l-.11.25c0-.07-.09-.14-.08-.19s.12-.12.22,0Z" transform="translate(-122.57 -81.78)"/><path class="cls-8" d="M196.46,329.71s-.09-.06-.13-.06-.06.07-.09.11c0-.2.17,0,.25-.05Z" transform="translate(-122.57 -81.78)"/><polygon class="cls-8" points="318.64 92.35 318.68 92.45 318.59 92.45 318.64 92.35"/><path class="cls-8" d="M437.27,265.79l.14.22-.1.07a2.17,2.17,0,0,0,0-.26Z" transform="translate(-122.57 -81.78)"/><path class="cls-8" d="M436.28,164.89l-.17,0s0,0,.05,0l.11-.07Z" transform="translate(-122.57 -81.78)"/><path class="cls-8" d="M313.93,225.65l-.21.08v-.2l.17.16Z" transform="translate(-122.57 -81.78)"/><polygon class="cls-8" points="194.35 175.56 194.46 175.53 194.45 175.62 194.35 175.56"/><path class="cls-8" d="M282.59,162c0-.13.05-.35.24-.23s.07.29,0,.43A2.09,2.09,0,0,1,282.59,162Z" transform="translate(-122.57 -81.78)"/><path class="cls-8" d="M312.6,156.66l.12-.24c0,.07.09.15.08.21s-.13.11-.23,0Z" transform="translate(-122.57 -81.78)"/><path class="cls-8" d="M232,255.66c-.1.1-.22.3-.36.14s0-.28.17-.33Z" transform="translate(-122.57 -81.78)"/><path class="cls-8" d="M231.84,255.47c.08-.17.12-.49.38-.26s0,.34-.19.45Z" transform="translate(-122.57 -81.78)"/><path class="cls-8" d="M312.16,226a.34.34,0,0,1,.2-.36s.07.07.11.11a3.19,3.19,0,0,0-.32.23Z" transform="translate(-122.57 -81.78)"/><path class="cls-8" d="M387,149.17l-.12.11a1.47,1.47,0,0,1-.1-.22s.07-.07.1-.11Z" transform="translate(-122.57 -81.78)"/><path class="cls-8" d="M386.54,148.28a1,1,0,0,1,.09.22s-.06.07-.09.11a.88.88,0,0,1-.1-.22S386.5,148.32,386.54,148.28Z" transform="translate(-122.57 -81.78)"/><path class="cls-8" d="M303,226.06c.36-.23.3.12.37.28l0,0c-.29.15-.34-.06-.38-.28Z" transform="translate(-122.57 -81.78)"/><path class="cls-8" d="M386.36,144.27a.3.3,0,0,1-.32-.34c.07-.07.14-.13.2-.2.11.11.22.23.32.35Z" transform="translate(-122.57 -81.78)"/><path class="cls-8" d="M238.32,251.92Z" transform="translate(-122.57 -81.78)"/><path class="cls-8" d="M238.32,251.92l.32.16s-.07.06-.08,0l-.24-.21Z" transform="translate(-122.57 -81.78)"/><path class="cls-8" d="M386,143.93c-.16,0-.33-.14-.26-.27.16-.29.31,0,.46.07C386.18,143.8,386.11,143.86,386,143.93Z" transform="translate(-122.57 -81.78)"/><path class="cls-8" d="M240,251.34a.4.4,0,0,1,.09-.56l0,0c0,.18-.06.36-.08.56Z" transform="translate(-122.57 -81.78)"/><path class="cls-6" d="M473.5,414a1,1,0,0,1,.1.21s-.07.07-.1.1a1,1,0,0,1-.1-.21S473.47,414.06,473.5,414Z" transform="translate(-122.57 -81.78)"/><path class="cls-8" d="M240.37,250.41c0,.28-.13.34-.36.34l0,0,.36-.33Z" transform="translate(-122.57 -81.78)"/><path class="cls-8" d="M585,418.72c-.16,0-.27-.08-.28-.25s0-.12.07-.12.25.07.3.22Z" transform="translate(-122.57 -81.78)"/><path class="cls-8" d="M585.09,418.57a.5.5,0,0,1,.37.35l-.17.18a.29.29,0,0,1-.29-.38Z" transform="translate(-122.57 -81.78)"/><path class="cls-8" d="M585.46,418.92c.11.14.38.28.15.46s-.26-.13-.32-.28Z" transform="translate(-122.57 -81.78)"/><path class="cls-8" d="M586,420.09c-.16,0-.32-.17-.24-.29.18-.3.3,0,.42.11Z" transform="translate(-122.57 -81.78)"/><path class="cls-8" d="M385.53,142.8q0,.22,0,0Z" transform="translate(-122.57 -81.78)"/><path class="cls-8" d="M248,142.93c0,.16-.14.25-.3.23a.32.32,0,0,1,0-.24c.13-.16.24,0,.34.06Z" transform="translate(-122.57 -81.78)"/><path class="cls-8" d="M384.94,142.76l.58,0h0l-.62-.06S384.94,142.76,384.94,142.76Z" transform="translate(-122.57 -81.78)"/><path class="cls-8" d="M384.55,142.39c.25,0,.42.06.39.37,0,0,0,0,0,0,0-.27-.08-.42-.38-.35Z" transform="translate(-122.57 -81.78)"/><path class="cls-8" d="M240.41,250.45a.41.41,0,0,1,.37-.3l-.05-.05c.06.32,0,.43-.36.31Z" transform="translate(-122.57 -81.78)"/><path class="cls-8" d="M248.21,142l.31.08-.11.14a2.23,2.23,0,0,1-.19-.24Z" transform="translate(-122.57 -81.78)"/><path class="cls-8" d="M398.36,227l-.39-.14c.28-.33.29,0,.39.16Z" transform="translate(-122.57 -81.78)"/><path class="cls-8" d="M418,140l0,0s0,.05,0,.06Z" transform="translate(-122.57 -81.78)"/><path class="cls-8" d="M362.2,139.35c-.16-.14-.25-.31-.08-.48s.24.07.37.11Z" transform="translate(-122.57 -81.78)"/><path class="cls-8" d="M141.11,502c.13.08.22.18.09.34,0,0-.07,0-.1,0l.06-.31Z" transform="translate(-122.57 -81.78)"/><path class="cls-8" d="M355.72,129s-.07.06-.1.06-.06-.06-.08-.1.07-.07.11-.06S355.7,129,355.72,129Z" transform="translate(-122.57 -81.78)"/><path class="cls-8" d="M321.65,127.28c.12-.06.32-.19.36-.16s.09.35-.11.47Z" transform="translate(-122.57 -81.78)"/><path class="cls-8" d="M401.7,125.62a.3.3,0,0,0,.08-.08.08.08,0,0,0,0,0l0,.14Z" transform="translate(-122.57 -81.78)"/><path class="cls-8" d="M248.48,244.69l-.45-.07c.06-.07.12-.18.19-.2s.22.14.26.3Z" transform="translate(-122.57 -81.78)"/><path class="cls-8" d="M398.24,122.46c.15,0,.34.1.29.21-.14.27-.29.08-.42,0C398.15,122.56,398.2,122.51,398.24,122.46Z" transform="translate(-122.57 -81.78)"/><path class="cls-8" d="M398.11,122.62a.39.39,0,0,1-.26-.36s.08-.1.12-.1a.28.28,0,0,1,.27.3C398.2,122.51,398.15,122.56,398.11,122.62Z" transform="translate(-122.57 -81.78)"/><path class="cls-8" d="M386,113.82l.07,0s0,.08,0,.08Z" transform="translate(-122.57 -81.78)"/><path class="cls-8" d="M381.47,111l-.06,0V111Z" transform="translate(-122.57 -81.78)"/><path class="cls-8" d="M311.71,233.54l0-.49c.08,0,.21.09.23.16s-.12.26-.28.33Z" transform="translate(-122.57 -81.78)"/><path class="cls-8" d="M290,238.58l.13-.05,0,0-.08.09Z" transform="translate(-122.57 -81.78)"/><path class="cls-6" d="M179.28,571.86a1.47,1.47,0,0,1-1.56-.72,1.16,1.16,0,0,1,.13-1.4,1,1,0,0,1,1.75,0c.56.68.94.85,1.73.21a3.82,3.82,0,0,1,2.49-1.08c.5,0,1.11,0,1.15.64a1.25,1.25,0,0,1-.86,1.29,1.39,1.39,0,0,1-.64.07,4.42,4.42,0,0,0-3.26.8A1.27,1.27,0,0,1,179.28,571.86Z" transform="translate(-122.57 -81.78)"/><path class="cls-6" d="M197,576.6c-.78.35-.38,1-.41,1.57a.56.56,0,0,1-.72.48,2.44,2.44,0,0,1-.76-1.8.82.82,0,0,0,.1-.61c-.19-.58.17-.71.6-.65S196.84,575.82,197,576.6Z" transform="translate(-122.57 -81.78)"/><path class="cls-6" d="M190.54,574.48l-.38-1.62c.41-.48,1-.37,1.51-.56s.84.13,1,.64,0,.9-.62.93S191.17,574.36,190.54,574.48Z" transform="translate(-122.57 -81.78)"/><path class="cls-6" d="M193.6,577.56c-.88,0-1.23-.38-1.23-1.12s.53-1.24,1.09-1.14c.74.12.81.77.86,1.38S194.09,577.62,193.6,577.56Z" transform="translate(-122.57 -81.78)"/><path class="cls-6" d="M186.69,571.07c.23-.05.3.11.34.27s.08.55-.23.68-.29-.11-.32-.27S186.41,571.22,186.69,571.07Z" transform="translate(-122.57 -81.78)"/><path class="cls-6" d="M144.14,590.22c0,.09-.06.23-.12.26s-.17-.06-.26-.1.05-.24.12-.26S144.05,590.18,144.14,590.22Z" transform="translate(-122.57 -81.78)"/><path class="cls-6" d="M184.58,577c0-.09.06-.24.13-.26s.17.06.26.1-.06.24-.12.26S184.67,577,184.58,577Z" transform="translate(-122.57 -81.78)"/><path class="cls-7" d="M294.41,337.82c.29-.17.4-.29.47-.27,2.2.62,4.58.32,6.7,1.58a12.06,12.06,0,0,0,4.93,1.12,37.28,37.28,0,0,0,9.67-.45,49.45,49.45,0,0,1,10.8-.42c1.58.1,3,1.05,4.55,1.34,2.52.46,5,1.21,7.61.56a26.31,26.31,0,0,0,2.61-1c2.53-.91,5.09-.46,7.63-.16A51.49,51.49,0,0,0,364.1,340a19.43,19.43,0,0,0,9.23-4.08c1.45-1.19,3.23-1.82,4.71-3,0,0,.19,0,.4.09a23,23,0,0,1-5.2,4.51c-.08.06-.23,0-.31.1-1.81,1.67-4,2.89-5.73,4.64-1.1,1.09-2.19,2.19-3.3,3.27-.47.45-1.09.77-1.2,1.52-.05.31-.31.41-.56.54a8.42,8.42,0,0,0-3.58,2.81c-.17.26-.45.31-.7.42a7.76,7.76,0,0,0-2.53,1.8,5.56,5.56,0,0,1-1.49,1.28c-1.09.54-1.49,1.75-1.95,2.69a1.67,1.67,0,0,1-1.2,1.07c-2.56.77-5.12,1.55-7.63,2.47a21.48,21.48,0,0,1-11.91.25c-1.9-.5-3.9-.41-5.78-1.07-1.08-.37-1.11-.28-.47-1.28a2.24,2.24,0,0,0,.12-.35c-2.37-1-4.48-2.53-6.89-3.47a20.9,20.9,0,0,1-6-4,27.28,27.28,0,0,0-4.64-3.43,15.82,15.82,0,0,1-4.25-3.62,6.46,6.46,0,0,0-3-1.86,9.06,9.06,0,0,1-3.15-1.69A19.08,19.08,0,0,0,294.41,337.82Zm66.15,8.39c-1.2.12-2.23.93-3.48.89-.32,0-.69.14-.73-.38,0-.34.19-.46.49-.53,1.75-.41,3.5-.85,5.23-1.37a5,5,0,0,0,2.9-2.12c-.37-.26-.59.13-.88.21A56.52,56.52,0,0,0,354,346.63a1.53,1.53,0,0,1-1.13.1,1.38,1.38,0,0,0-1,.06,40.37,40.37,0,0,1-6.31,1.74,46.9,46.9,0,0,1-14.66.93c-1.58-.1-3.15-.37-4.73-.43a15.72,15.72,0,0,1-4.82-.81,14.17,14.17,0,0,0-1.57-.47c-3.87-.94-7.8-1.63-11.45-3.36a.66.66,0,0,0-.68.08c1.75,1.55,3.87,2.55,5.51,4.2a13.63,13.63,0,0,0,3.06,2.49c3.61,1.95,7.24,3.89,11,5.56a17.12,17.12,0,0,0,8.14,1.61,56.49,56.49,0,0,0,6.33-.82,35.57,35.57,0,0,0,8.84-3c.68-.32,1.51-.56,1.79-1.44a1.38,1.38,0,0,0-.91-.12c-.24,0-.5.27-.74-.13a1.66,1.66,0,0,1,1.95-.59c.39.12.94.43,1.15-.34-.45-.23-.79,0-1.16.09s-.49-.21-.56-.48a.44.44,0,0,1,.39-.6c.38-.07.75-.15,1.13-.19a17.92,17.92,0,0,0,2.88-.68c-.26-.54-1-.43-.92-.95s.64-.54,1-.68c.57-.19,1.16-.3,1.74-.47a5.88,5.88,0,0,0,2.55-1.4c.18-.14.59-.19.45-.47s-.46-.13-.7,0C360.62,346.12,360.6,346.17,360.56,346.21Zm-53.1-4.14c3.48,1.61,7.16,2.42,10.73,3.56a53,53,0,0,0,12.9,2c1.74.11,3.49.19,5.23.21a31.72,31.72,0,0,0,8.24-.92c1.8-.45,3.63-.76,5.42-1.31,2.15-.64,4.21-1.54,6.32-2.29a2.55,2.55,0,0,0,1.8-1.26c-1,0-1.74.16-2.51.21-3.09.17-6.1-.47-9.15-.71a11.44,11.44,0,0,0-5.6.83,8.65,8.65,0,0,1-3.65.86,21.36,21.36,0,0,1-8.31-1.58,12.83,12.83,0,0,0-5.61-1C318,340.83,312.75,342,307.46,342.07Zm49.42,7.35-.12.09s.06.11.1.11.08-.06.13-.09Z" transform="translate(-122.57 -81.78)"/><path class="cls-7" d="M346.66,317.79c1.21-.49,1.75-1.64,2.47-2.59,1.17-1.54,2.22-3.16,3.56-4.62.71.51.52,1,.07,1.53-.61.71-1.22,1.43-1.79,2.17-.23.29-.51.61.15.85s.31.77.16,1.13c-.31.68-.08.89.56,1a3.92,3.92,0,0,1,1.1.35c2.28,1.08,4.26.32,6.08-1.09.75-.58,1.65-1.12,1.73-2.3,0-.23.28-.47.48-.65s.31-.05.46,0a.28.28,0,0,1,.12.26c-.15.53-.07,1.11-.45,1.58a14.29,14.29,0,0,1-3.3,3.24,5.87,5.87,0,0,1-5.33.63c-.52-.18-1.07-.25-1.58-.44a2.53,2.53,0,0,0-2.84.48c-1.06.91-2.52,1-3.86,1.25a15,15,0,0,0-2.53.68,8.23,8.23,0,0,1-3.67.57,20.08,20.08,0,0,1-8.58-2.56c-1.16-.71-2.55-1.09-3.38-2.31-.25-.36-.67-.3-1.05-.35a9.36,9.36,0,0,0-3.42.38c-3.07.77-5.42-.53-7.57-2.5a13.37,13.37,0,0,1-1.33-1.48,1.3,1.3,0,0,1-.39-1.06.81.81,0,0,1,.61-.7c.32-.09.51.1.65.36a8.51,8.51,0,0,0,4.56,3.59c1.59.64,3.13.16,4.68,0,0-.11.1-.24.07-.3-.26-.42-1.06-.63-.55-1.34s1.07-.15,1.49,0a10.89,10.89,0,0,0,2.86,1.14.35.35,0,0,1,.29.15c.73,2.31,3.05,2.42,4.69,3.42a15.09,15.09,0,0,0,6.07,1.9c1.88.25,3.38-.14,4.37-2a30.39,30.39,0,0,1,2.24-3.3c.27-.38.5-.86,1.1-1,.35.71,0,1.2-.36,1.69l-1.25,1.75a.45.45,0,0,0,0,.6c.25.27.53.14.71-.07.74-.9,1.46-1.8,2.16-2.73.57-.75,1.09-1.54,1.65-2.3.12-.17.3-.35.54-.21a.58.58,0,0,1,.32.7,3.31,3.31,0,0,1-.55.81l-2.45,3.33c-.18.13-.36.28-.15.49C346.3,317.94,346.52,317.83,346.66,317.79Zm-2.88.86c-.1-.09-.14-.27-.36-.21a.61.61,0,0,0-.42.45c-.08.22.12.27.25.27A.5.5,0,0,0,343.78,318.65Z" transform="translate(-122.57 -81.78)"/><path class="cls-7" d="M347.14,284.63c-.33,1,.35,1.9.33,2.88-.43.2-.57-.19-.71-.43a10.1,10.1,0,0,1-1.37-5.9c.3-4.23.91-8.41,1.57-12.59.34-2.2.6-4.41,1-6.59a9.48,9.48,0,0,1,2.07-4.05,26.19,26.19,0,0,0-.55,5.33c.51-.91,1.9-.91,2-2.17,1.16,0,1.14-1.5,2.12-1.75.61-.16.66-.84,1-1.23.21-.23.3-.65.73-.39a.61.61,0,0,1,.13,1c-.7.56-1.13,1.34-1.77,1.94-1.61,1.49-3.19,3-4.79,4.51a.89.89,0,0,0-.23.6,11.94,11.94,0,0,0-.23,2.62,16.05,16.05,0,0,0,3.53-4.2c.67-1.19,2.05-1.37,2.73-2.46.16-.26.49-.12.71.1a.47.47,0,0,1,0,.73l-2.23,2.22a15.16,15.16,0,0,0-2.16,2.91,29,29,0,0,1-2.42,3.13c-.1.12-.33.17-.39.3-.21.42-.66.94-.18,1.32s.77-.19,1-.53c1.42-1.92,3.29-3.44,4.62-5.44.28-.42.6-.61,1.06-.19s.11.62-.16.93c-1.65,1.92-3.27,3.87-4.92,5.79a26.85,26.85,0,0,1-1.94,2.05,1.33,1.33,0,0,0-.32,1.79c1.24-1.23,2.45-2.4,3.61-3.62a21.56,21.56,0,0,1,2.7-2.44c.27-.2.62-.4.87-.1a.71.71,0,0,1-.13,1,3.5,3.5,0,0,1-.5.44,43.51,43.51,0,0,0-5.09,5c-.21.22-.59.48-.3.81s.66,0,.92-.26l3.1-3c.23-.22.44-.57.81-.26s.06.61,0,.92a1.11,1.11,0,0,1-.45.67c-2,1.69-3.55,3.81-5.71,5.29a1.23,1.23,0,0,0-.58,1.42c.14.65-.27,1.42.44,1.93Zm-.21-4.61a1.81,1.81,0,0,0,.92-.68c.26-.3.92-.59.43-1s-.93.11-1.23.45A1.27,1.27,0,0,0,346.93,280Zm1.19-7.29-.12-.12a.62.62,0,0,0-.1.22s.06.08.1.11Z" transform="translate(-122.57 -81.78)"/><path class="cls-7" d="M360,248.46a.73.73,0,0,0,1-.3c2.54-1.12,5-2.33,7.47-3.7.61-.35,1.27-.6,1.9-.92,1.15-.6,2.28-1.21,3.43-1.82.33.18.88-.52,1.07.25.13.56-.23.75-.67.95-4.46,2-8.77,4.38-13.12,6.62a26,26,0,0,0-3.87,2.12c-.19.17-.73.12-.48.57.16.29.44,0,.67-.09l.13-.08a21.44,21.44,0,0,0,5-2.16c3.55-1.8,7.19-3.39,10.81-5a1.54,1.54,0,0,1,.54,0,1.62,1.62,0,0,1-1,1.38c-2.36,1-4.74,2-7,3.1-3.36,1.7-6.78,3.27-10.13,5-.43.23-1,.9-1.41.19s.33-1,.91-1.25a8,8,0,0,0,.89-.42c.45-.26,1.11-.42.17-1-.59-.38-.15-.92.27-1.18.84-.52,1.73-1,2.59-1.44C359.45,249,360,249,360,248.46Z" transform="translate(-122.57 -81.78)"/><path class="cls-7" d="M391.42,345.21a10.73,10.73,0,0,1-.27-3.57,48.07,48.07,0,0,0,.4-7.77,13.24,13.24,0,0,0-1-5c-1.33-3.16-2.46-6.42-4.83-9a12.18,12.18,0,0,1-.81-1.25c-.22-.3-.36-.58,0-.85s.6,0,.83.26a15.18,15.18,0,0,1,2.67,3.16c1.8,3.05,3.57,6.18,4.25,9.68a21.51,21.51,0,0,1-.32,10.86A26.93,26.93,0,0,0,391.42,345.21Z" transform="translate(-122.57 -81.78)"/><path class="cls-7" d="M397.67,318.93a2.11,2.11,0,0,1-.63.14c-.49-.07-1.1-.18-1.11-.77,0-.74.63-.34,1-.41a14.91,14.91,0,0,0,4.54-1.75c3.38-1.94,6.06-4.74,8.78-7.48.23-.24.44-.49.66-.74s.43-.51.81-.22a.75.75,0,0,1,.27.89,4.1,4.1,0,0,1-.84,1.21c-1.93,1.8-3.7,3.76-5.73,5.47a21.76,21.76,0,0,1-6,3.4A4,4,0,0,1,397.67,318.93Z" transform="translate(-122.57 -81.78)"/><path class="cls-7" d="M334.75,323.89a15.55,15.55,0,0,0-.67,3c-.09.55-.29.82-.85.7s-.51-.59-.4-.92a11.28,11.28,0,0,0,.55-3.6c0-.94.61-1.32,1.45-.84a10.43,10.43,0,0,0,3.56,1.44c.64.09.61.8.53,1.39a29.9,29.9,0,0,0-.06,6.62,16.62,16.62,0,0,0,.84,3.37,2.63,2.63,0,0,1,.19,1.3.62.62,0,0,1-.45.44.45.45,0,0,1-.55-.25,9.75,9.75,0,0,1-.54-1.39,28.83,28.83,0,0,1-.64-7.7c0-.1.08-.21.09-.31.14-1.91-.12-2.33-1.93-3C335.52,324.08,335.2,323.81,334.75,323.89Z" transform="translate(-122.57 -81.78)"/><path class="cls-7" d="M275.27,318.87c-1.35-1.63-2.06-3.12-1.45-5a17.06,17.06,0,0,1,2.52-4.82c.45-.62.9-1.24,1.37-1.86.25-.33.55-.54.94-.14a.65.65,0,0,1,0,1c-.69.86-1.32,1.76-2,2.65a7.72,7.72,0,0,0-1.37,7.48C275.35,318.26,275.3,318.38,275.27,318.87Z" transform="translate(-122.57 -81.78)"/><path class="cls-7" d="M350.58,252.32c-.39-1.08.23-1.71.41-2.42,1-3.65,3.39-6,6.66-7.5.39-.19.71-.34,1,.11s0,.75-.38.94a14.78,14.78,0,0,0-4,3.09,6.92,6.92,0,0,0-1.46,2C352.15,249.76,351.39,250.92,350.58,252.32Z" transform="translate(-122.57 -81.78)"/><path class="cls-7" d="M367.28,250.78c-.07.13-.12.31-.23.39a6.5,6.5,0,0,1-1.51,1,67.35,67.35,0,0,0-6.74,3.25c-1,.49-2.26.44-3,1.43-.11.14-.31,0-.43-.1a.64.64,0,0,1-.15-.76,2,2,0,0,1,1.15-.86,78.75,78.75,0,0,0,9.94-4.53A.67.67,0,0,1,367.28,250.78Z" transform="translate(-122.57 -81.78)"/><path class="cls-7" d="M360.3,295.28c-.14.19-.27.36-.41.53a84.36,84.36,0,0,0-6.05,8.25,1.64,1.64,0,0,1-.32.37c-.22.19-.46.35-.7.06s-.1-.4,0-.6c.74-1,1.49-2.06,2.2-3.12a57.28,57.28,0,0,0,3.81-5.42,1.85,1.85,0,0,1,.56-.59.46.46,0,0,1,.6.08A3.39,3.39,0,0,1,360.3,295.28Z" transform="translate(-122.57 -81.78)"/><path class="cls-7" d="M351.15,302a3.49,3.49,0,0,1,1.13-2c1.56-1.76,3.26-3.42,4.17-5.69.12-.29.32-.59.75-.38s.37.59.13.93a35.76,35.76,0,0,1-3.95,4.87A10.25,10.25,0,0,1,351.15,302Z" transform="translate(-122.57 -81.78)"/><path class="cls-7" d="M347.19,284.69a1.22,1.22,0,0,1,.48-1.17c1.18-1.18,2.34-2.36,3.52-3.53a1.86,1.86,0,0,1,.38-.3.46.46,0,0,1,.6.06.48.48,0,0,1,0,.74,55.89,55.89,0,0,1-4.28,4.15c-.22.19-.53.06-.79,0Z" transform="translate(-122.57 -81.78)"/><path class="cls-7" d="M365.16,134.57c-.06.12-.08.26-.14.28s-.34,0-.39-.17.05-.19.09-.28Z" transform="translate(-122.57 -81.78)"/><path class="cls-7" d="M362,134.56c.08-.12.18-.14.23,0s0,.21,0,.21-.17-.08-.15-.22Z" transform="translate(-122.57 -81.78)"/><path class="cls-7" d="M362,134.52c-.15,0-.29,0-.34-.16a.3.3,0,0,1,.2-.13c.19,0,.17.18.11.33Z" transform="translate(-122.57 -81.78)"/><path class="cls-7" d="M313.7,152c-.39.22-.44,0-.43-.13a.58.58,0,0,1,.26-.34.22.22,0,0,1,.36.13A.24.24,0,0,1,313.7,152Z" transform="translate(-122.57 -81.78)"/><path class="cls-7" d="M436,276.14c-.1.16-.26.44-.4.33s-.16-.45.15-.57Z" transform="translate(-122.57 -81.78)"/><path class="cls-7" d="M308.27,223.94c0-.2,0-.5.13-.58s.34.12.46.27a4.86,4.86,0,0,1,.35.53l-.37.3-.62-.57Z" transform="translate(-122.57 -81.78)"/><path class="cls-7" d="M309.21,224.16c.24.28.8.59.31,1-.31.22-.55-.31-.68-.65Z" transform="translate(-122.57 -81.78)"/><path class="cls-7" d="M302.92,222.13c-.22-.21-.61-.47-.29-.73s.45.24.64.44Z" transform="translate(-122.57 -81.78)"/><path class="cls-7" d="M303.27,221.84l.26.28-.26.32a.32.32,0,0,1-.35-.31Z" transform="translate(-122.57 -81.78)"/><path class="cls-7" d="M305.17,222.56l-.32-.36.26-.3a.46.46,0,0,1,.38.29Z" transform="translate(-122.57 -81.78)"/><path class="cls-7" d="M305.49,222.19c.13.15.41.28.19.52s-.37,0-.51-.15Z" transform="translate(-122.57 -81.78)"/><path class="cls-7" d="M309.91,225.57l-.12.12a.62.62,0,0,1-.1-.22s.06-.08.1-.11Z" transform="translate(-122.57 -81.78)"/><path class="cls-7" d="M298.52,220.5c-.1-.19-.22-.37,0-.52a3.65,3.65,0,0,1,.23.32Z" transform="translate(-122.57 -81.78)"/><path class="cls-8" d="M360.56,346.21s.06-.09.1-.12c.24-.14.6-.22.7,0s-.27.33-.45.47Z" transform="translate(-122.57 -81.78)"/><path class="cls-8" d="M356.88,349.42l.11.11c-.05,0-.09.09-.13.09s-.07-.07-.1-.11Z" transform="translate(-122.57 -81.78)"/><path class="cls-8" d="M346.66,317.79c-.14,0-.36.15-.41.1-.21-.21,0-.36.15-.49Z" transform="translate(-122.57 -81.78)"/><path class="cls-8" d="M348.12,272.73l-.12.21s-.11-.08-.1-.11a.62.62,0,0,1,.1-.22Z" transform="translate(-122.57 -81.78)"/><path class="cls-8" d="M357.55,252.06l-.13.08c-.23.07-.51.38-.67.09-.25-.45.29-.4.48-.57Z" transform="translate(-122.57 -81.78)"/></g></svg>